<mxfile host="app.diagrams.net" modified="2023-03-28T05:17:55.837Z" agent="Mozilla/5.0 (Windows NT 10.0; Win64; x64) AppleWebKit/537.36 (KHTML, like Gecko) Chrome/111.0.0.0 Safari/537.36" etag="TjnH51psfzjDSjWuRDcZ" version="21.1.1" type="github" pages="8">
  <diagram id="iQmSwvzKtOvwUnxd-vjW" name="Plan">
    <mxGraphModel dx="1434" dy="756" grid="1" gridSize="2" guides="1" tooltips="1" connect="1" arrows="1" fold="1" page="1" pageScale="1" pageWidth="827" pageHeight="1169" math="0" shadow="0">
      <root>
        <mxCell id="0" />
        <mxCell id="1" parent="0" />
        <mxCell id="GcYLBaGO9OxWB2Lu9EzF-4" value="" style="edgeStyle=orthogonalEdgeStyle;rounded=0;orthogonalLoop=1;jettySize=auto;html=1;" parent="1" source="GcYLBaGO9OxWB2Lu9EzF-1" target="GcYLBaGO9OxWB2Lu9EzF-3" edge="1">
          <mxGeometry relative="1" as="geometry" />
        </mxCell>
        <mxCell id="GcYLBaGO9OxWB2Lu9EzF-1" value="H2D PLC/Infrastructure/Modular code" style="rounded=1;whiteSpace=wrap;html=1;fillColor=#ffff88;strokeColor=#36393d;" parent="1" vertex="1">
          <mxGeometry x="38" y="266" width="224" height="60" as="geometry" />
        </mxCell>
        <mxCell id="GcYLBaGO9OxWB2Lu9EzF-2" value="Phase-1" style="text;html=1;strokeColor=none;fillColor=none;align=center;verticalAlign=middle;whiteSpace=wrap;rounded=0;" parent="1" vertex="1">
          <mxGeometry x="122" y="216" width="60" height="30" as="geometry" />
        </mxCell>
        <mxCell id="GcYLBaGO9OxWB2Lu9EzF-6" value="" style="edgeStyle=orthogonalEdgeStyle;rounded=0;orthogonalLoop=1;jettySize=auto;html=1;" parent="1" source="GcYLBaGO9OxWB2Lu9EzF-3" target="GcYLBaGO9OxWB2Lu9EzF-5" edge="1">
          <mxGeometry relative="1" as="geometry" />
        </mxCell>
        <mxCell id="GcYLBaGO9OxWB2Lu9EzF-3" value="Develope Control logic/UML/SFC" style="whiteSpace=wrap;html=1;fillColor=#ffff88;strokeColor=#36393d;rounded=1;" parent="1" vertex="1">
          <mxGeometry x="330" y="266" width="120" height="60" as="geometry" />
        </mxCell>
        <mxCell id="GcYLBaGO9OxWB2Lu9EzF-11" value="" style="edgeStyle=orthogonalEdgeStyle;rounded=0;orthogonalLoop=1;jettySize=auto;html=1;" parent="1" source="GcYLBaGO9OxWB2Lu9EzF-5" target="GcYLBaGO9OxWB2Lu9EzF-10" edge="1">
          <mxGeometry relative="1" as="geometry" />
        </mxCell>
        <mxCell id="GcYLBaGO9OxWB2Lu9EzF-5" value="Modbus interface/HMI/python" style="whiteSpace=wrap;html=1;fillColor=#ffff88;strokeColor=#36393d;rounded=1;" parent="1" vertex="1">
          <mxGeometry x="572" y="266" width="120" height="60" as="geometry" />
        </mxCell>
        <mxCell id="GcYLBaGO9OxWB2Lu9EzF-7" value="Phase-2" style="text;html=1;strokeColor=none;fillColor=none;align=center;verticalAlign=middle;whiteSpace=wrap;rounded=0;" parent="1" vertex="1">
          <mxGeometry x="362" y="218" width="60" height="30" as="geometry" />
        </mxCell>
        <mxCell id="GcYLBaGO9OxWB2Lu9EzF-8" style="edgeStyle=orthogonalEdgeStyle;rounded=0;orthogonalLoop=1;jettySize=auto;html=1;exitX=0.5;exitY=1;exitDx=0;exitDy=0;" parent="1" source="GcYLBaGO9OxWB2Lu9EzF-7" target="GcYLBaGO9OxWB2Lu9EzF-7" edge="1">
          <mxGeometry relative="1" as="geometry" />
        </mxCell>
        <mxCell id="GcYLBaGO9OxWB2Lu9EzF-9" value="Phase-3" style="text;html=1;strokeColor=none;fillColor=none;align=center;verticalAlign=middle;whiteSpace=wrap;rounded=0;" parent="1" vertex="1">
          <mxGeometry x="606" y="216" width="60" height="30" as="geometry" />
        </mxCell>
        <mxCell id="GcYLBaGO9OxWB2Lu9EzF-10" value="Codesys Visu/Testing" style="whiteSpace=wrap;html=1;fillColor=#ffff88;strokeColor=#36393d;rounded=1;" parent="1" vertex="1">
          <mxGeometry x="772" y="266" width="120" height="60" as="geometry" />
        </mxCell>
        <mxCell id="GcYLBaGO9OxWB2Lu9EzF-12" value="Phase-4" style="text;html=1;strokeColor=none;fillColor=none;align=center;verticalAlign=middle;whiteSpace=wrap;rounded=0;" parent="1" vertex="1">
          <mxGeometry x="800" y="216" width="60" height="30" as="geometry" />
        </mxCell>
      </root>
    </mxGraphModel>
  </diagram>
  <diagram name="Main Block" id="Y6knwFs-T7UCbpDHQ6Iz">
    <mxGraphModel dx="3088" dy="756" grid="1" gridSize="2" guides="1" tooltips="1" connect="1" arrows="1" fold="1" page="1" pageScale="1" pageWidth="827" pageHeight="1169" math="0" shadow="0">
      <root>
        <mxCell id="0" />
        <mxCell id="1" parent="0" />
        <mxCell id="milDW27EMtLCyHozFYjx-6" value="&#xa;&#xa;&#xa;&#xa;&#xa;&#xa;&#xa;&#xa;&#xa;&#xa;&#xa;&#xa;&#xa;&#xa;&#xa;&#xa;&#xa;&#xa;&#xa;&#xa;&#xa;&#xa;&#xa;&#xa;&#xa;&#xa;&#xa;&#xa;&#xa;&#xa;&#xa;&#xa;&#xa;&#xa;&#xa;&#xa;&#xa;&#xa;&#xa;&#xa;&#xa;&#xa;&#xa;&#xa;" style="swimlane;startSize=20;horizontal=1;containerType=tree;fillColor=#eeeeee;strokeColor=#36393d;" parent="1" vertex="1">
          <mxGeometry x="-1440" y="830" width="2406" height="1739" as="geometry" />
        </mxCell>
        <mxCell id="milDW27EMtLCyHozFYjx-7" value="" style="edgeStyle=entityRelationEdgeStyle;startArrow=none;endArrow=none;segment=10;curved=1;sourcePerimeterSpacing=0;targetPerimeterSpacing=0;rounded=0;" parent="milDW27EMtLCyHozFYjx-6" source="milDW27EMtLCyHozFYjx-11" target="milDW27EMtLCyHozFYjx-12" edge="1">
          <mxGeometry relative="1" as="geometry" />
        </mxCell>
        <mxCell id="8YfRmtV6cL_evHmdfVGp-73" style="edgeStyle=entityRelationEdgeStyle;rounded=0;orthogonalLoop=1;jettySize=auto;html=1;startArrow=none;endArrow=none;segment=10;curved=1;sourcePerimeterSpacing=0;targetPerimeterSpacing=0;entryX=0;entryY=0.5;entryDx=0;entryDy=0;" parent="milDW27EMtLCyHozFYjx-6" source="milDW27EMtLCyHozFYjx-11" target="8YfRmtV6cL_evHmdfVGp-74" edge="1">
          <mxGeometry relative="1" as="geometry">
            <mxPoint x="1058" y="268" as="targetPoint" />
          </mxGeometry>
        </mxCell>
        <mxCell id="R2pfpIRXYTukhotHlzGh-32" style="edgeStyle=entityRelationEdgeStyle;rounded=0;orthogonalLoop=1;jettySize=auto;html=1;startArrow=none;endArrow=none;segment=10;curved=1;sourcePerimeterSpacing=0;targetPerimeterSpacing=0;" parent="milDW27EMtLCyHozFYjx-6" source="milDW27EMtLCyHozFYjx-11" target="R2pfpIRXYTukhotHlzGh-8" edge="1">
          <mxGeometry relative="1" as="geometry" />
        </mxCell>
        <mxCell id="milDW27EMtLCyHozFYjx-11" value="H2DController" style="ellipse;whiteSpace=wrap;html=1;align=center;treeFolding=1;treeMoving=1;newEdgeStyle={&quot;edgeStyle&quot;:&quot;entityRelationEdgeStyle&quot;,&quot;startArrow&quot;:&quot;none&quot;,&quot;endArrow&quot;:&quot;none&quot;,&quot;segment&quot;:10,&quot;curved&quot;:1,&quot;sourcePerimeterSpacing&quot;:0,&quot;targetPerimeterSpacing&quot;:0};fillColor=#ffff88;strokeColor=#36393d;" parent="milDW27EMtLCyHozFYjx-6" vertex="1">
          <mxGeometry x="1072" y="448" width="186" height="93" as="geometry" />
        </mxCell>
        <mxCell id="8YfRmtV6cL_evHmdfVGp-34" style="edgeStyle=entityRelationEdgeStyle;rounded=0;orthogonalLoop=1;jettySize=auto;html=1;startArrow=none;endArrow=none;segment=10;curved=1;sourcePerimeterSpacing=0;targetPerimeterSpacing=0;entryX=0;entryY=0.25;entryDx=0;entryDy=0;exitX=1;exitY=0.5;exitDx=0;exitDy=0;" parent="milDW27EMtLCyHozFYjx-6" target="8YfRmtV6cL_evHmdfVGp-27" edge="1">
          <mxGeometry relative="1" as="geometry">
            <mxPoint x="1735" y="532" as="sourcePoint" />
          </mxGeometry>
        </mxCell>
        <mxCell id="8YfRmtV6cL_evHmdfVGp-35" style="edgeStyle=entityRelationEdgeStyle;rounded=0;orthogonalLoop=1;jettySize=auto;html=1;startArrow=none;endArrow=none;segment=10;curved=1;sourcePerimeterSpacing=0;targetPerimeterSpacing=0;entryX=0;entryY=0.5;entryDx=0;entryDy=0;" parent="milDW27EMtLCyHozFYjx-6" target="8YfRmtV6cL_evHmdfVGp-28" edge="1">
          <mxGeometry relative="1" as="geometry">
            <mxPoint x="1735" y="532" as="sourcePoint" />
          </mxGeometry>
        </mxCell>
        <mxCell id="8YfRmtV6cL_evHmdfVGp-36" style="edgeStyle=entityRelationEdgeStyle;rounded=0;orthogonalLoop=1;jettySize=auto;html=1;startArrow=none;endArrow=none;segment=10;curved=1;sourcePerimeterSpacing=0;targetPerimeterSpacing=0;" parent="milDW27EMtLCyHozFYjx-6" target="8YfRmtV6cL_evHmdfVGp-29" edge="1">
          <mxGeometry relative="1" as="geometry">
            <mxPoint x="1735" y="532" as="sourcePoint" />
          </mxGeometry>
        </mxCell>
        <mxCell id="8YfRmtV6cL_evHmdfVGp-38" style="edgeStyle=entityRelationEdgeStyle;rounded=0;orthogonalLoop=1;jettySize=auto;html=1;startArrow=none;endArrow=none;segment=10;curved=1;sourcePerimeterSpacing=0;targetPerimeterSpacing=0;entryX=0;entryY=0.75;entryDx=0;entryDy=0;" parent="milDW27EMtLCyHozFYjx-6" target="8YfRmtV6cL_evHmdfVGp-31" edge="1">
          <mxGeometry relative="1" as="geometry">
            <mxPoint x="1735" y="532" as="sourcePoint" />
          </mxGeometry>
        </mxCell>
        <mxCell id="8YfRmtV6cL_evHmdfVGp-46" style="edgeStyle=entityRelationEdgeStyle;rounded=0;orthogonalLoop=1;jettySize=auto;html=1;startArrow=none;endArrow=none;segment=10;curved=1;sourcePerimeterSpacing=0;targetPerimeterSpacing=0;entryX=0;entryY=0.5;entryDx=0;entryDy=0;" parent="milDW27EMtLCyHozFYjx-6" target="8YfRmtV6cL_evHmdfVGp-45" edge="1">
          <mxGeometry relative="1" as="geometry">
            <mxPoint x="1735" y="532" as="sourcePoint" />
          </mxGeometry>
        </mxCell>
        <mxCell id="milDW27EMtLCyHozFYjx-12" value="ExhaustFeedbackControler" style="whiteSpace=wrap;html=1;rounded=1;arcSize=50;align=center;verticalAlign=middle;strokeWidth=1;autosize=1;spacing=4;treeFolding=1;treeMoving=1;newEdgeStyle={&quot;edgeStyle&quot;:&quot;entityRelationEdgeStyle&quot;,&quot;startArrow&quot;:&quot;none&quot;,&quot;endArrow&quot;:&quot;none&quot;,&quot;segment&quot;:10,&quot;curved&quot;:1,&quot;sourcePerimeterSpacing&quot;:0,&quot;targetPerimeterSpacing&quot;:0};fillColor=#ffff88;strokeColor=#36393d;" parent="milDW27EMtLCyHozFYjx-6" vertex="1" collapsed="1">
          <mxGeometry x="1550" y="494" width="186" height="69" as="geometry" />
        </mxCell>
        <mxCell id="8YfRmtV6cL_evHmdfVGp-4" value="" style="edgeStyle=entityRelationEdgeStyle;startArrow=none;endArrow=none;segment=10;curved=1;sourcePerimeterSpacing=0;targetPerimeterSpacing=0;rounded=0;" parent="milDW27EMtLCyHozFYjx-6" target="8YfRmtV6cL_evHmdfVGp-5" edge="1">
          <mxGeometry relative="1" as="geometry">
            <mxPoint x="1734" y="532" as="sourcePoint" />
          </mxGeometry>
        </mxCell>
        <mxCell id="8YfRmtV6cL_evHmdfVGp-5" value="ExhaustPressure(PT701)" style="whiteSpace=wrap;html=1;rounded=1;arcSize=50;align=center;verticalAlign=middle;strokeWidth=1;autosize=1;spacing=4;treeFolding=1;treeMoving=1;newEdgeStyle={&quot;edgeStyle&quot;:&quot;entityRelationEdgeStyle&quot;,&quot;startArrow&quot;:&quot;none&quot;,&quot;endArrow&quot;:&quot;none&quot;,&quot;segment&quot;:10,&quot;curved&quot;:1,&quot;sourcePerimeterSpacing&quot;:0,&quot;targetPerimeterSpacing&quot;:0};fillColor=#1ba1e2;fontColor=#ffffff;strokeColor=#006EAF;" parent="milDW27EMtLCyHozFYjx-6" vertex="1" collapsed="1">
          <mxGeometry x="1974" y="412" width="180" height="35" as="geometry" />
        </mxCell>
        <mxCell id="8YfRmtV6cL_evHmdfVGp-6" value="" style="edgeStyle=entityRelationEdgeStyle;startArrow=none;endArrow=none;segment=10;curved=1;sourcePerimeterSpacing=0;targetPerimeterSpacing=0;rounded=0;exitX=1;exitY=0.643;exitDx=0;exitDy=0;exitPerimeter=0;" parent="milDW27EMtLCyHozFYjx-6" source="R2pfpIRXYTukhotHlzGh-8" target="8YfRmtV6cL_evHmdfVGp-7" edge="1">
          <mxGeometry relative="1" as="geometry">
            <mxPoint x="1559" y="437" as="sourcePoint" />
          </mxGeometry>
        </mxCell>
        <mxCell id="8YfRmtV6cL_evHmdfVGp-7" value="ThermoCouple(TC702)" style="whiteSpace=wrap;html=1;rounded=1;arcSize=50;align=center;verticalAlign=middle;strokeWidth=1;autosize=1;spacing=4;treeFolding=1;treeMoving=1;newEdgeStyle={&quot;edgeStyle&quot;:&quot;entityRelationEdgeStyle&quot;,&quot;startArrow&quot;:&quot;none&quot;,&quot;endArrow&quot;:&quot;none&quot;,&quot;segment&quot;:10,&quot;curved&quot;:1,&quot;sourcePerimeterSpacing&quot;:0,&quot;targetPerimeterSpacing&quot;:0};fillColor=#1ba1e2;fontColor=#ffffff;strokeColor=#006EAF;" parent="milDW27EMtLCyHozFYjx-6" vertex="1" collapsed="1">
          <mxGeometry x="1648" y="318" width="180" height="32" as="geometry" />
        </mxCell>
        <mxCell id="8YfRmtV6cL_evHmdfVGp-8" value="" style="edgeStyle=entityRelationEdgeStyle;startArrow=none;endArrow=none;segment=10;curved=1;sourcePerimeterSpacing=0;targetPerimeterSpacing=0;rounded=0;" parent="milDW27EMtLCyHozFYjx-6" target="8YfRmtV6cL_evHmdfVGp-9" edge="1">
          <mxGeometry relative="1" as="geometry">
            <mxPoint x="1735" y="532" as="sourcePoint" />
          </mxGeometry>
        </mxCell>
        <mxCell id="8YfRmtV6cL_evHmdfVGp-9" value="HyderogenSensor(GD705)" style="whiteSpace=wrap;html=1;rounded=1;arcSize=50;align=center;verticalAlign=middle;strokeWidth=1;autosize=1;spacing=4;treeFolding=1;treeMoving=1;newEdgeStyle={&quot;edgeStyle&quot;:&quot;entityRelationEdgeStyle&quot;,&quot;startArrow&quot;:&quot;none&quot;,&quot;endArrow&quot;:&quot;none&quot;,&quot;segment&quot;:10,&quot;curved&quot;:1,&quot;sourcePerimeterSpacing&quot;:0,&quot;targetPerimeterSpacing&quot;:0};fillColor=#1ba1e2;fontColor=#ffffff;strokeColor=#006EAF;" parent="milDW27EMtLCyHozFYjx-6" vertex="1" collapsed="1">
          <mxGeometry x="1976" y="459" width="180" height="35" as="geometry" />
        </mxCell>
        <mxCell id="8YfRmtV6cL_evHmdfVGp-12" value="" style="edgeStyle=entityRelationEdgeStyle;startArrow=none;endArrow=none;segment=10;curved=1;sourcePerimeterSpacing=0;targetPerimeterSpacing=0;rounded=0;" parent="milDW27EMtLCyHozFYjx-6" target="8YfRmtV6cL_evHmdfVGp-13" edge="1">
          <mxGeometry relative="1" as="geometry">
            <mxPoint x="1735" y="532" as="sourcePoint" />
          </mxGeometry>
        </mxCell>
        <mxCell id="8YfRmtV6cL_evHmdfVGp-13" value="Alarm1(GD705)" style="whiteSpace=wrap;html=1;rounded=1;arcSize=50;align=center;verticalAlign=middle;strokeWidth=1;autosize=1;spacing=4;treeFolding=1;treeMoving=1;newEdgeStyle={&quot;edgeStyle&quot;:&quot;entityRelationEdgeStyle&quot;,&quot;startArrow&quot;:&quot;none&quot;,&quot;endArrow&quot;:&quot;none&quot;,&quot;segment&quot;:10,&quot;curved&quot;:1,&quot;sourcePerimeterSpacing&quot;:0,&quot;targetPerimeterSpacing&quot;:0};fillColor=#f8cecc;strokeColor=#b85450;" parent="milDW27EMtLCyHozFYjx-6" vertex="1" collapsed="1">
          <mxGeometry x="1978" y="505" width="180" height="35" as="geometry" />
        </mxCell>
        <mxCell id="8YfRmtV6cL_evHmdfVGp-25" value="" style="edgeStyle=entityRelationEdgeStyle;startArrow=none;endArrow=none;segment=10;curved=1;sourcePerimeterSpacing=0;targetPerimeterSpacing=0;rounded=0;" parent="milDW27EMtLCyHozFYjx-6" target="8YfRmtV6cL_evHmdfVGp-26" edge="1">
          <mxGeometry relative="1" as="geometry">
            <mxPoint x="1735" y="532" as="sourcePoint" />
          </mxGeometry>
        </mxCell>
        <mxCell id="8YfRmtV6cL_evHmdfVGp-26" value="Alarm2(GD705)" style="whiteSpace=wrap;html=1;rounded=1;arcSize=50;align=center;verticalAlign=middle;strokeWidth=1;autosize=1;spacing=4;treeFolding=1;treeMoving=1;newEdgeStyle={&quot;edgeStyle&quot;:&quot;entityRelationEdgeStyle&quot;,&quot;startArrow&quot;:&quot;none&quot;,&quot;endArrow&quot;:&quot;none&quot;,&quot;segment&quot;:10,&quot;curved&quot;:1,&quot;sourcePerimeterSpacing&quot;:0,&quot;targetPerimeterSpacing&quot;:0};fillColor=#f8cecc;strokeColor=#b85450;" parent="milDW27EMtLCyHozFYjx-6" vertex="1" collapsed="1">
          <mxGeometry x="1976" y="553" width="180" height="35" as="geometry" />
        </mxCell>
        <mxCell id="8YfRmtV6cL_evHmdfVGp-27" value="Fault(GD705)" style="whiteSpace=wrap;html=1;rounded=1;arcSize=50;align=center;verticalAlign=middle;strokeWidth=1;autosize=1;spacing=4;treeFolding=1;treeMoving=1;newEdgeStyle={&quot;edgeStyle&quot;:&quot;entityRelationEdgeStyle&quot;,&quot;startArrow&quot;:&quot;none&quot;,&quot;endArrow&quot;:&quot;none&quot;,&quot;segment&quot;:10,&quot;curved&quot;:1,&quot;sourcePerimeterSpacing&quot;:0,&quot;targetPerimeterSpacing&quot;:0};fillColor=#f8cecc;strokeColor=#b85450;" parent="milDW27EMtLCyHozFYjx-6" vertex="1" collapsed="1">
          <mxGeometry x="1978" y="597" width="180" height="35" as="geometry" />
        </mxCell>
        <mxCell id="8YfRmtV6cL_evHmdfVGp-28" value="HydrogenSensor(GD706)" style="whiteSpace=wrap;html=1;rounded=1;arcSize=50;align=center;verticalAlign=middle;strokeWidth=1;autosize=1;spacing=4;treeFolding=1;treeMoving=1;newEdgeStyle={&quot;edgeStyle&quot;:&quot;entityRelationEdgeStyle&quot;,&quot;startArrow&quot;:&quot;none&quot;,&quot;endArrow&quot;:&quot;none&quot;,&quot;segment&quot;:10,&quot;curved&quot;:1,&quot;sourcePerimeterSpacing&quot;:0,&quot;targetPerimeterSpacing&quot;:0};fillColor=#1ba1e2;fontColor=#ffffff;strokeColor=#006EAF;" parent="milDW27EMtLCyHozFYjx-6" vertex="1" collapsed="1">
          <mxGeometry x="1982" y="649" width="176" height="32" as="geometry" />
        </mxCell>
        <mxCell id="8YfRmtV6cL_evHmdfVGp-29" value="Alarm1(GD706)" style="whiteSpace=wrap;html=1;rounded=1;arcSize=50;align=center;verticalAlign=middle;strokeWidth=1;autosize=1;spacing=4;treeFolding=1;treeMoving=1;newEdgeStyle={&quot;edgeStyle&quot;:&quot;entityRelationEdgeStyle&quot;,&quot;startArrow&quot;:&quot;none&quot;,&quot;endArrow&quot;:&quot;none&quot;,&quot;segment&quot;:10,&quot;curved&quot;:1,&quot;sourcePerimeterSpacing&quot;:0,&quot;targetPerimeterSpacing&quot;:0};fillColor=#f8cecc;strokeColor=#b85450;" parent="milDW27EMtLCyHozFYjx-6" vertex="1" collapsed="1">
          <mxGeometry x="1980" y="695" width="180" height="35" as="geometry" />
        </mxCell>
        <mxCell id="8YfRmtV6cL_evHmdfVGp-31" value="Alarm2(GD706)." style="whiteSpace=wrap;html=1;rounded=1;arcSize=50;align=center;verticalAlign=middle;strokeWidth=1;autosize=1;spacing=4;treeFolding=1;treeMoving=1;newEdgeStyle={&quot;edgeStyle&quot;:&quot;entityRelationEdgeStyle&quot;,&quot;startArrow&quot;:&quot;none&quot;,&quot;endArrow&quot;:&quot;none&quot;,&quot;segment&quot;:10,&quot;curved&quot;:1,&quot;sourcePerimeterSpacing&quot;:0,&quot;targetPerimeterSpacing&quot;:0};fillColor=#f8cecc;strokeColor=#b85450;" parent="milDW27EMtLCyHozFYjx-6" vertex="1" collapsed="1">
          <mxGeometry x="1982" y="743" width="180" height="35" as="geometry" />
        </mxCell>
        <mxCell id="8YfRmtV6cL_evHmdfVGp-39" style="edgeStyle=entityRelationEdgeStyle;rounded=0;orthogonalLoop=1;jettySize=auto;html=1;startArrow=none;endArrow=none;segment=10;curved=1;sourcePerimeterSpacing=0;targetPerimeterSpacing=0;exitX=0.5;exitY=1;exitDx=0;exitDy=0;entryX=0.368;entryY=1.094;entryDx=0;entryDy=0;entryPerimeter=0;" parent="milDW27EMtLCyHozFYjx-6" source="8YfRmtV6cL_evHmdfVGp-27" target="8YfRmtV6cL_evHmdfVGp-27" edge="1">
          <mxGeometry relative="1" as="geometry" />
        </mxCell>
        <mxCell id="8YfRmtV6cL_evHmdfVGp-45" value="Fault(GD706)." style="whiteSpace=wrap;html=1;rounded=1;arcSize=50;align=center;verticalAlign=middle;strokeWidth=1;autosize=1;spacing=4;treeFolding=1;treeMoving=1;newEdgeStyle={&quot;edgeStyle&quot;:&quot;entityRelationEdgeStyle&quot;,&quot;startArrow&quot;:&quot;none&quot;,&quot;endArrow&quot;:&quot;none&quot;,&quot;segment&quot;:10,&quot;curved&quot;:1,&quot;sourcePerimeterSpacing&quot;:0,&quot;targetPerimeterSpacing&quot;:0};fillColor=#f8cecc;strokeColor=#b85450;" parent="milDW27EMtLCyHozFYjx-6" vertex="1" collapsed="1">
          <mxGeometry x="1982" y="789" width="180" height="35" as="geometry" />
        </mxCell>
        <mxCell id="8YfRmtV6cL_evHmdfVGp-56" style="edgeStyle=entityRelationEdgeStyle;rounded=0;orthogonalLoop=1;jettySize=auto;html=1;startArrow=none;endArrow=none;segment=10;curved=1;sourcePerimeterSpacing=0;targetPerimeterSpacing=0;exitX=0.5;exitY=0;exitDx=0;exitDy=0;" parent="milDW27EMtLCyHozFYjx-6" source="8YfRmtV6cL_evHmdfVGp-55" target="milDW27EMtLCyHozFYjx-11" edge="1">
          <mxGeometry relative="1" as="geometry" />
        </mxCell>
        <mxCell id="8YfRmtV6cL_evHmdfVGp-55" value="DilutionSubSystemController" style="whiteSpace=wrap;html=1;rounded=1;arcSize=50;align=center;verticalAlign=middle;strokeWidth=1;autosize=1;spacing=4;treeFolding=1;treeMoving=1;newEdgeStyle={&quot;edgeStyle&quot;:&quot;entityRelationEdgeStyle&quot;,&quot;startArrow&quot;:&quot;none&quot;,&quot;endArrow&quot;:&quot;none&quot;,&quot;segment&quot;:10,&quot;curved&quot;:1,&quot;sourcePerimeterSpacing&quot;:0,&quot;targetPerimeterSpacing&quot;:0};fillColor=#ffff88;strokeColor=#36393d;" parent="milDW27EMtLCyHozFYjx-6" vertex="1" collapsed="1">
          <mxGeometry x="1472" y="732" width="204" height="76" as="geometry" />
        </mxCell>
        <mxCell id="8YfRmtV6cL_evHmdfVGp-66" style="edgeStyle=entityRelationEdgeStyle;rounded=0;orthogonalLoop=1;jettySize=auto;html=1;startArrow=none;endArrow=none;segment=10;curved=1;sourcePerimeterSpacing=0;targetPerimeterSpacing=0;exitX=1;exitY=0.5;exitDx=0;exitDy=0;" parent="milDW27EMtLCyHozFYjx-6" source="8YfRmtV6cL_evHmdfVGp-60" target="8YfRmtV6cL_evHmdfVGp-55" edge="1">
          <mxGeometry relative="1" as="geometry">
            <mxPoint x="1276" y="750" as="targetPoint" />
            <mxPoint x="1574" y="926.5" as="sourcePoint" />
          </mxGeometry>
        </mxCell>
        <mxCell id="8YfRmtV6cL_evHmdfVGp-60" value="ProcessInletTS(TS101)." style="whiteSpace=wrap;html=1;rounded=1;arcSize=50;align=center;verticalAlign=middle;strokeWidth=1;autosize=1;spacing=4;treeFolding=1;treeMoving=1;newEdgeStyle={&quot;edgeStyle&quot;:&quot;entityRelationEdgeStyle&quot;,&quot;startArrow&quot;:&quot;none&quot;,&quot;endArrow&quot;:&quot;none&quot;,&quot;segment&quot;:10,&quot;curved&quot;:1,&quot;sourcePerimeterSpacing&quot;:0,&quot;targetPerimeterSpacing&quot;:0};fillColor=#1ba1e2;fontColor=#ffffff;strokeColor=#006EAF;" parent="milDW27EMtLCyHozFYjx-6" vertex="1" collapsed="1">
          <mxGeometry x="1190" y="674" width="180" height="35" as="geometry" />
        </mxCell>
        <mxCell id="8YfRmtV6cL_evHmdfVGp-67" style="edgeStyle=entityRelationEdgeStyle;rounded=0;orthogonalLoop=1;jettySize=auto;html=1;startArrow=none;endArrow=none;segment=10;curved=1;sourcePerimeterSpacing=0;targetPerimeterSpacing=0;entryX=0;entryY=0.5;entryDx=0;entryDy=0;" parent="milDW27EMtLCyHozFYjx-6" source="8YfRmtV6cL_evHmdfVGp-61" target="8YfRmtV6cL_evHmdfVGp-55" edge="1">
          <mxGeometry relative="1" as="geometry" />
        </mxCell>
        <mxCell id="8YfRmtV6cL_evHmdfVGp-61" value="DilutionTS(TS102)" style="whiteSpace=wrap;html=1;rounded=1;arcSize=50;align=center;verticalAlign=middle;strokeWidth=1;autosize=1;spacing=4;treeFolding=1;treeMoving=1;newEdgeStyle={&quot;edgeStyle&quot;:&quot;entityRelationEdgeStyle&quot;,&quot;startArrow&quot;:&quot;none&quot;,&quot;endArrow&quot;:&quot;none&quot;,&quot;segment&quot;:10,&quot;curved&quot;:1,&quot;sourcePerimeterSpacing&quot;:0,&quot;targetPerimeterSpacing&quot;:0};fillColor=#1ba1e2;fontColor=#ffffff;strokeColor=#006EAF;" parent="milDW27EMtLCyHozFYjx-6" vertex="1" collapsed="1">
          <mxGeometry x="1190" y="724" width="180" height="35" as="geometry" />
        </mxCell>
        <mxCell id="8YfRmtV6cL_evHmdfVGp-68" style="edgeStyle=entityRelationEdgeStyle;rounded=0;orthogonalLoop=1;jettySize=auto;html=1;startArrow=none;endArrow=none;segment=10;curved=1;sourcePerimeterSpacing=0;targetPerimeterSpacing=0;" parent="milDW27EMtLCyHozFYjx-6" source="8YfRmtV6cL_evHmdfVGp-59" target="8YfRmtV6cL_evHmdfVGp-55" edge="1">
          <mxGeometry relative="1" as="geometry" />
        </mxCell>
        <mxCell id="8YfRmtV6cL_evHmdfVGp-59" value="StaticSensor(VE108)" style="whiteSpace=wrap;html=1;rounded=1;arcSize=50;align=center;verticalAlign=middle;strokeWidth=1;autosize=1;spacing=4;treeFolding=1;treeMoving=1;newEdgeStyle={&quot;edgeStyle&quot;:&quot;entityRelationEdgeStyle&quot;,&quot;startArrow&quot;:&quot;none&quot;,&quot;endArrow&quot;:&quot;none&quot;,&quot;segment&quot;:10,&quot;curved&quot;:1,&quot;sourcePerimeterSpacing&quot;:0,&quot;targetPerimeterSpacing&quot;:0};fillColor=#cdeb8b;strokeColor=#36393d;" parent="milDW27EMtLCyHozFYjx-6" vertex="1" collapsed="1">
          <mxGeometry x="1194" y="776" width="180" height="35" as="geometry" />
        </mxCell>
        <mxCell id="8YfRmtV6cL_evHmdfVGp-69" style="edgeStyle=entityRelationEdgeStyle;rounded=0;orthogonalLoop=1;jettySize=auto;html=1;startArrow=none;endArrow=none;segment=10;curved=1;sourcePerimeterSpacing=0;targetPerimeterSpacing=0;entryX=0;entryY=0.5;entryDx=0;entryDy=0;" parent="milDW27EMtLCyHozFYjx-6" source="8YfRmtV6cL_evHmdfVGp-63" target="8YfRmtV6cL_evHmdfVGp-55" edge="1">
          <mxGeometry relative="1" as="geometry" />
        </mxCell>
        <mxCell id="8YfRmtV6cL_evHmdfVGp-63" value="DilutionPS(PS102)" style="whiteSpace=wrap;html=1;rounded=1;arcSize=50;align=center;verticalAlign=middle;strokeWidth=1;autosize=1;spacing=4;treeFolding=1;treeMoving=1;newEdgeStyle={&quot;edgeStyle&quot;:&quot;entityRelationEdgeStyle&quot;,&quot;startArrow&quot;:&quot;none&quot;,&quot;endArrow&quot;:&quot;none&quot;,&quot;segment&quot;:10,&quot;curved&quot;:1,&quot;sourcePerimeterSpacing&quot;:0,&quot;targetPerimeterSpacing&quot;:0};fillColor=#cdeb8b;strokeColor=#36393d;" parent="milDW27EMtLCyHozFYjx-6" vertex="1" collapsed="1">
          <mxGeometry x="1194" y="828" width="180" height="35" as="geometry" />
        </mxCell>
        <mxCell id="8YfRmtV6cL_evHmdfVGp-70" style="edgeStyle=entityRelationEdgeStyle;rounded=0;orthogonalLoop=1;jettySize=auto;html=1;startArrow=none;endArrow=none;segment=10;curved=1;sourcePerimeterSpacing=0;targetPerimeterSpacing=0;" parent="milDW27EMtLCyHozFYjx-6" source="8YfRmtV6cL_evHmdfVGp-65" target="8YfRmtV6cL_evHmdfVGp-55" edge="1">
          <mxGeometry relative="1" as="geometry" />
        </mxCell>
        <mxCell id="8YfRmtV6cL_evHmdfVGp-65" value="HydrogenMassFlow" style="whiteSpace=wrap;html=1;rounded=1;arcSize=50;align=center;verticalAlign=middle;strokeWidth=1;autosize=1;spacing=4;treeFolding=1;treeMoving=1;newEdgeStyle={&quot;edgeStyle&quot;:&quot;entityRelationEdgeStyle&quot;,&quot;startArrow&quot;:&quot;none&quot;,&quot;endArrow&quot;:&quot;none&quot;,&quot;segment&quot;:10,&quot;curved&quot;:1,&quot;sourcePerimeterSpacing&quot;:0,&quot;targetPerimeterSpacing&quot;:0};fillColor=#1ba1e2;fontColor=#ffffff;strokeColor=#006EAF;" parent="milDW27EMtLCyHozFYjx-6" vertex="1" collapsed="1">
          <mxGeometry x="1194" y="880" width="180" height="35" as="geometry" />
        </mxCell>
        <mxCell id="8YfRmtV6cL_evHmdfVGp-77" style="edgeStyle=entityRelationEdgeStyle;rounded=0;orthogonalLoop=1;jettySize=auto;html=1;startArrow=none;endArrow=none;segment=10;curved=1;sourcePerimeterSpacing=0;targetPerimeterSpacing=0;entryX=0;entryY=0.5;entryDx=0;entryDy=0;" parent="milDW27EMtLCyHozFYjx-6" source="8YfRmtV6cL_evHmdfVGp-74" target="8YfRmtV6cL_evHmdfVGp-80" edge="1">
          <mxGeometry relative="1" as="geometry">
            <mxPoint x="1723" y="62" as="targetPoint" />
          </mxGeometry>
        </mxCell>
        <mxCell id="8YfRmtV6cL_evHmdfVGp-74" value="H2DExpBypassvalve(711)" style="whiteSpace=wrap;html=1;rounded=1;arcSize=50;align=center;verticalAlign=middle;strokeWidth=1;autosize=1;spacing=4;treeFolding=1;treeMoving=1;newEdgeStyle={&quot;edgeStyle&quot;:&quot;entityRelationEdgeStyle&quot;,&quot;startArrow&quot;:&quot;none&quot;,&quot;endArrow&quot;:&quot;none&quot;,&quot;segment&quot;:10,&quot;curved&quot;:1,&quot;sourcePerimeterSpacing&quot;:0,&quot;targetPerimeterSpacing&quot;:0};fillColor=#60a917;fontColor=#ffffff;strokeColor=#2D7600;" parent="milDW27EMtLCyHozFYjx-6" vertex="1" collapsed="1">
          <mxGeometry x="1439" y="64" width="204" height="76" as="geometry" />
        </mxCell>
        <mxCell id="8YfRmtV6cL_evHmdfVGp-76" style="edgeStyle=entityRelationEdgeStyle;rounded=0;orthogonalLoop=1;jettySize=auto;html=1;startArrow=none;endArrow=none;segment=10;curved=1;sourcePerimeterSpacing=0;targetPerimeterSpacing=0;entryX=1;entryY=0.5;entryDx=0;entryDy=0;" parent="milDW27EMtLCyHozFYjx-6" source="8YfRmtV6cL_evHmdfVGp-75" target="milDW27EMtLCyHozFYjx-11" edge="1">
          <mxGeometry relative="1" as="geometry" />
        </mxCell>
        <mxCell id="8YfRmtV6cL_evHmdfVGp-84" style="edgeStyle=entityRelationEdgeStyle;rounded=0;orthogonalLoop=1;jettySize=auto;html=1;startArrow=none;endArrow=none;segment=10;curved=1;sourcePerimeterSpacing=0;targetPerimeterSpacing=0;entryX=0;entryY=0.5;entryDx=0;entryDy=0;" parent="milDW27EMtLCyHozFYjx-6" source="8YfRmtV6cL_evHmdfVGp-75" target="8YfRmtV6cL_evHmdfVGp-83" edge="1">
          <mxGeometry relative="1" as="geometry" />
        </mxCell>
        <mxCell id="8YfRmtV6cL_evHmdfVGp-75" value="H2DSourceBypassValve(FV710)" style="whiteSpace=wrap;html=1;rounded=1;arcSize=50;align=center;verticalAlign=middle;strokeWidth=1;autosize=1;spacing=4;treeFolding=1;treeMoving=1;newEdgeStyle={&quot;edgeStyle&quot;:&quot;entityRelationEdgeStyle&quot;,&quot;startArrow&quot;:&quot;none&quot;,&quot;endArrow&quot;:&quot;none&quot;,&quot;segment&quot;:10,&quot;curved&quot;:1,&quot;sourcePerimeterSpacing&quot;:0,&quot;targetPerimeterSpacing&quot;:0};fillColor=#60a917;fontColor=#ffffff;strokeColor=#2D7600;" parent="milDW27EMtLCyHozFYjx-6" vertex="1" collapsed="1">
          <mxGeometry x="1434" y="178" width="204" height="76" as="geometry" />
        </mxCell>
        <mxCell id="8YfRmtV6cL_evHmdfVGp-78" style="edgeStyle=entityRelationEdgeStyle;rounded=0;orthogonalLoop=1;jettySize=auto;html=1;startArrow=none;endArrow=none;segment=10;curved=1;sourcePerimeterSpacing=0;targetPerimeterSpacing=0;entryX=0;entryY=0.5;entryDx=0;entryDy=0;" parent="milDW27EMtLCyHozFYjx-6" source="8YfRmtV6cL_evHmdfVGp-74" target="8YfRmtV6cL_evHmdfVGp-79" edge="1">
          <mxGeometry relative="1" as="geometry">
            <mxPoint x="1095" y="758" as="targetPoint" />
            <mxPoint x="1007" y="968" as="sourcePoint" />
          </mxGeometry>
        </mxCell>
        <mxCell id="8YfRmtV6cL_evHmdfVGp-79" value="H2DExpBypassvalveClose" style="whiteSpace=wrap;html=1;rounded=1;arcSize=50;align=center;verticalAlign=middle;strokeWidth=1;autosize=1;spacing=4;treeFolding=1;treeMoving=1;newEdgeStyle={&quot;edgeStyle&quot;:&quot;entityRelationEdgeStyle&quot;,&quot;startArrow&quot;:&quot;none&quot;,&quot;endArrow&quot;:&quot;none&quot;,&quot;segment&quot;:10,&quot;curved&quot;:1,&quot;sourcePerimeterSpacing&quot;:0,&quot;targetPerimeterSpacing&quot;:0};fillColor=#cdeb8b;strokeColor=#36393d;" parent="milDW27EMtLCyHozFYjx-6" vertex="1" collapsed="1">
          <mxGeometry x="1685" y="96" width="184" height="32" as="geometry" />
        </mxCell>
        <mxCell id="8YfRmtV6cL_evHmdfVGp-80" value="H2DExpBypassValveOpen" style="whiteSpace=wrap;html=1;rounded=1;arcSize=50;align=center;verticalAlign=middle;strokeWidth=1;autosize=1;spacing=4;treeFolding=1;treeMoving=1;newEdgeStyle={&quot;edgeStyle&quot;:&quot;entityRelationEdgeStyle&quot;,&quot;startArrow&quot;:&quot;none&quot;,&quot;endArrow&quot;:&quot;none&quot;,&quot;segment&quot;:10,&quot;curved&quot;:1,&quot;sourcePerimeterSpacing&quot;:0,&quot;targetPerimeterSpacing&quot;:0};fillColor=#cdeb8b;strokeColor=#36393d;" parent="milDW27EMtLCyHozFYjx-6" vertex="1" collapsed="1">
          <mxGeometry x="1683" y="50" width="184" height="32" as="geometry" />
        </mxCell>
        <mxCell id="8YfRmtV6cL_evHmdfVGp-81" value="" style="edgeStyle=entityRelationEdgeStyle;rounded=0;orthogonalLoop=1;jettySize=auto;html=1;startArrow=none;endArrow=none;segment=10;curved=1;sourcePerimeterSpacing=0;targetPerimeterSpacing=0;" parent="milDW27EMtLCyHozFYjx-6" source="8YfRmtV6cL_evHmdfVGp-75" target="8YfRmtV6cL_evHmdfVGp-82" edge="1">
          <mxGeometry relative="1" as="geometry" />
        </mxCell>
        <mxCell id="8YfRmtV6cL_evHmdfVGp-82" value="H2DSourceBypassValveOpen" style="whiteSpace=wrap;html=1;rounded=1;arcSize=50;align=center;verticalAlign=middle;strokeWidth=1;autosize=1;spacing=4;treeFolding=1;treeMoving=1;newEdgeStyle={&quot;edgeStyle&quot;:&quot;entityRelationEdgeStyle&quot;,&quot;startArrow&quot;:&quot;none&quot;,&quot;endArrow&quot;:&quot;none&quot;,&quot;segment&quot;:10,&quot;curved&quot;:1,&quot;sourcePerimeterSpacing&quot;:0,&quot;targetPerimeterSpacing&quot;:0};fillColor=#cdeb8b;strokeColor=#36393d;" parent="milDW27EMtLCyHozFYjx-6" vertex="1" collapsed="1">
          <mxGeometry x="1674" y="156" width="200" height="32" as="geometry" />
        </mxCell>
        <mxCell id="8YfRmtV6cL_evHmdfVGp-83" value="H2DSourceBypassValveClose" style="whiteSpace=wrap;html=1;rounded=1;arcSize=50;align=center;verticalAlign=middle;strokeWidth=1;autosize=1;spacing=4;treeFolding=1;treeMoving=1;newEdgeStyle={&quot;edgeStyle&quot;:&quot;entityRelationEdgeStyle&quot;,&quot;startArrow&quot;:&quot;none&quot;,&quot;endArrow&quot;:&quot;none&quot;,&quot;segment&quot;:10,&quot;curved&quot;:1,&quot;sourcePerimeterSpacing&quot;:0,&quot;targetPerimeterSpacing&quot;:0};fillColor=#cdeb8b;strokeColor=#36393d;" parent="milDW27EMtLCyHozFYjx-6" vertex="1" collapsed="1">
          <mxGeometry x="1673" y="202" width="202" height="32" as="geometry" />
        </mxCell>
        <mxCell id="8YfRmtV6cL_evHmdfVGp-89" style="edgeStyle=entityRelationEdgeStyle;rounded=0;orthogonalLoop=1;jettySize=auto;html=1;startArrow=none;endArrow=none;segment=10;curved=1;sourcePerimeterSpacing=0;targetPerimeterSpacing=0;" parent="milDW27EMtLCyHozFYjx-6" source="8YfRmtV6cL_evHmdfVGp-88" target="milDW27EMtLCyHozFYjx-11" edge="1">
          <mxGeometry relative="1" as="geometry" />
        </mxCell>
        <mxCell id="8YfRmtV6cL_evHmdfVGp-88" value="H2DExtractController" style="whiteSpace=wrap;html=1;rounded=1;arcSize=50;align=center;verticalAlign=middle;strokeWidth=1;autosize=1;spacing=4;treeFolding=1;treeMoving=1;newEdgeStyle={&quot;edgeStyle&quot;:&quot;entityRelationEdgeStyle&quot;,&quot;startArrow&quot;:&quot;none&quot;,&quot;endArrow&quot;:&quot;none&quot;,&quot;segment&quot;:10,&quot;curved&quot;:1,&quot;sourcePerimeterSpacing&quot;:0,&quot;targetPerimeterSpacing&quot;:0};fillColor=#ffff88;strokeColor=#36393d;" parent="milDW27EMtLCyHozFYjx-6" vertex="1" collapsed="1">
          <mxGeometry x="723" y="318" width="154" height="57" as="geometry" />
        </mxCell>
        <mxCell id="8YfRmtV6cL_evHmdfVGp-101" style="edgeStyle=entityRelationEdgeStyle;rounded=0;orthogonalLoop=1;jettySize=auto;html=1;startArrow=none;endArrow=none;segment=10;curved=1;sourcePerimeterSpacing=0;targetPerimeterSpacing=0;entryX=0;entryY=0.5;entryDx=0;entryDy=0;" parent="milDW27EMtLCyHozFYjx-6" source="8YfRmtV6cL_evHmdfVGp-90" target="8YfRmtV6cL_evHmdfVGp-88" edge="1">
          <mxGeometry relative="1" as="geometry">
            <mxPoint x="700" y="304" as="targetPoint" />
          </mxGeometry>
        </mxCell>
        <mxCell id="8YfRmtV6cL_evHmdfVGp-90" value="CabinertExtractPressur(PT301)" style="whiteSpace=wrap;html=1;rounded=1;arcSize=50;align=center;verticalAlign=middle;strokeWidth=1;autosize=1;spacing=4;treeFolding=1;treeMoving=1;newEdgeStyle={&quot;edgeStyle&quot;:&quot;entityRelationEdgeStyle&quot;,&quot;startArrow&quot;:&quot;none&quot;,&quot;endArrow&quot;:&quot;none&quot;,&quot;segment&quot;:10,&quot;curved&quot;:1,&quot;sourcePerimeterSpacing&quot;:0,&quot;targetPerimeterSpacing&quot;:0};fillColor=#1ba1e2;strokeColor=#006EAF;fontColor=#ffffff;" parent="milDW27EMtLCyHozFYjx-6" vertex="1" collapsed="1">
          <mxGeometry x="404" y="176" width="180" height="35" as="geometry" />
        </mxCell>
        <mxCell id="8YfRmtV6cL_evHmdfVGp-91" value="CabinetExtarctPressue(PT302)" style="whiteSpace=wrap;html=1;rounded=1;arcSize=50;align=center;verticalAlign=middle;strokeWidth=1;autosize=1;spacing=4;treeFolding=1;treeMoving=1;newEdgeStyle={&quot;edgeStyle&quot;:&quot;entityRelationEdgeStyle&quot;,&quot;startArrow&quot;:&quot;none&quot;,&quot;endArrow&quot;:&quot;none&quot;,&quot;segment&quot;:10,&quot;curved&quot;:1,&quot;sourcePerimeterSpacing&quot;:0,&quot;targetPerimeterSpacing&quot;:0};fillColor=#1ba1e2;fontColor=#ffffff;strokeColor=#006EAF;" parent="milDW27EMtLCyHozFYjx-6" vertex="1" collapsed="1">
          <mxGeometry x="1650" y="358" width="180" height="35" as="geometry" />
        </mxCell>
        <mxCell id="8YfRmtV6cL_evHmdfVGp-103" style="edgeStyle=entityRelationEdgeStyle;rounded=0;orthogonalLoop=1;jettySize=auto;html=1;startArrow=none;endArrow=none;segment=10;curved=1;sourcePerimeterSpacing=0;targetPerimeterSpacing=0;entryX=0;entryY=0.5;entryDx=0;entryDy=0;" parent="milDW27EMtLCyHozFYjx-6" source="8YfRmtV6cL_evHmdfVGp-92" target="8YfRmtV6cL_evHmdfVGp-88" edge="1">
          <mxGeometry relative="1" as="geometry">
            <mxPoint x="696" y="340" as="targetPoint" />
          </mxGeometry>
        </mxCell>
        <mxCell id="8YfRmtV6cL_evHmdfVGp-92" value="DI(301)" style="whiteSpace=wrap;html=1;rounded=1;arcSize=50;align=center;verticalAlign=middle;strokeWidth=1;autosize=1;spacing=4;treeFolding=1;treeMoving=1;newEdgeStyle={&quot;edgeStyle&quot;:&quot;entityRelationEdgeStyle&quot;,&quot;startArrow&quot;:&quot;none&quot;,&quot;endArrow&quot;:&quot;none&quot;,&quot;segment&quot;:10,&quot;curved&quot;:1,&quot;sourcePerimeterSpacing&quot;:0,&quot;targetPerimeterSpacing&quot;:0};fillColor=#cdeb8b;strokeColor=#36393d;" parent="milDW27EMtLCyHozFYjx-6" vertex="1" collapsed="1">
          <mxGeometry x="407" y="222" width="180" height="35" as="geometry" />
        </mxCell>
        <mxCell id="8YfRmtV6cL_evHmdfVGp-104" style="edgeStyle=entityRelationEdgeStyle;rounded=0;orthogonalLoop=1;jettySize=auto;html=1;startArrow=none;endArrow=none;segment=10;curved=1;sourcePerimeterSpacing=0;targetPerimeterSpacing=0;entryX=0;entryY=0.5;entryDx=0;entryDy=0;" parent="milDW27EMtLCyHozFYjx-6" source="8YfRmtV6cL_evHmdfVGp-93" target="8YfRmtV6cL_evHmdfVGp-88" edge="1">
          <mxGeometry relative="1" as="geometry">
            <mxPoint x="681" y="342" as="targetPoint" />
          </mxGeometry>
        </mxCell>
        <mxCell id="8YfRmtV6cL_evHmdfVGp-93" value="DI(302)" style="whiteSpace=wrap;html=1;rounded=1;arcSize=50;align=center;verticalAlign=middle;strokeWidth=1;autosize=1;spacing=4;treeFolding=1;treeMoving=1;newEdgeStyle={&quot;edgeStyle&quot;:&quot;entityRelationEdgeStyle&quot;,&quot;startArrow&quot;:&quot;none&quot;,&quot;endArrow&quot;:&quot;none&quot;,&quot;segment&quot;:10,&quot;curved&quot;:1,&quot;sourcePerimeterSpacing&quot;:0,&quot;targetPerimeterSpacing&quot;:0};fillColor=#cdeb8b;strokeColor=#36393d;" parent="milDW27EMtLCyHozFYjx-6" vertex="1" collapsed="1">
          <mxGeometry x="407" y="268" width="180" height="35" as="geometry" />
        </mxCell>
        <mxCell id="8YfRmtV6cL_evHmdfVGp-105" style="edgeStyle=entityRelationEdgeStyle;rounded=0;orthogonalLoop=1;jettySize=auto;html=1;startArrow=none;endArrow=none;segment=10;curved=1;sourcePerimeterSpacing=0;targetPerimeterSpacing=0;" parent="milDW27EMtLCyHozFYjx-6" source="8YfRmtV6cL_evHmdfVGp-94" edge="1">
          <mxGeometry relative="1" as="geometry">
            <mxPoint x="724" y="347" as="targetPoint" />
          </mxGeometry>
        </mxCell>
        <mxCell id="8YfRmtV6cL_evHmdfVGp-94" value="HydrogenSensor(GD306)" style="whiteSpace=wrap;html=1;rounded=1;arcSize=50;align=center;verticalAlign=middle;strokeWidth=1;autosize=1;spacing=4;treeFolding=1;treeMoving=1;newEdgeStyle={&quot;edgeStyle&quot;:&quot;entityRelationEdgeStyle&quot;,&quot;startArrow&quot;:&quot;none&quot;,&quot;endArrow&quot;:&quot;none&quot;,&quot;segment&quot;:10,&quot;curved&quot;:1,&quot;sourcePerimeterSpacing&quot;:0,&quot;targetPerimeterSpacing&quot;:0};fillColor=#1ba1e2;fontColor=#ffffff;strokeColor=#006EAF;" parent="milDW27EMtLCyHozFYjx-6" vertex="1" collapsed="1">
          <mxGeometry x="410" y="318" width="176" height="32" as="geometry" />
        </mxCell>
        <mxCell id="8YfRmtV6cL_evHmdfVGp-106" style="edgeStyle=entityRelationEdgeStyle;rounded=0;orthogonalLoop=1;jettySize=auto;html=1;startArrow=none;endArrow=none;segment=10;curved=1;sourcePerimeterSpacing=0;targetPerimeterSpacing=0;entryX=0;entryY=0.5;entryDx=0;entryDy=0;" parent="milDW27EMtLCyHozFYjx-6" source="8YfRmtV6cL_evHmdfVGp-95" target="8YfRmtV6cL_evHmdfVGp-88" edge="1">
          <mxGeometry relative="1" as="geometry">
            <mxPoint x="696" y="360" as="targetPoint" />
          </mxGeometry>
        </mxCell>
        <mxCell id="8YfRmtV6cL_evHmdfVGp-95" value="Alarm1(GD306)" style="whiteSpace=wrap;html=1;rounded=1;arcSize=50;align=center;verticalAlign=middle;strokeWidth=1;autosize=1;spacing=4;treeFolding=1;treeMoving=1;newEdgeStyle={&quot;edgeStyle&quot;:&quot;entityRelationEdgeStyle&quot;,&quot;startArrow&quot;:&quot;none&quot;,&quot;endArrow&quot;:&quot;none&quot;,&quot;segment&quot;:10,&quot;curved&quot;:1,&quot;sourcePerimeterSpacing&quot;:0,&quot;targetPerimeterSpacing&quot;:0};fillColor=#cdeb8b;strokeColor=#36393d;" parent="milDW27EMtLCyHozFYjx-6" vertex="1" collapsed="1">
          <mxGeometry x="409" y="362" width="180" height="35" as="geometry" />
        </mxCell>
        <mxCell id="8YfRmtV6cL_evHmdfVGp-107" style="edgeStyle=entityRelationEdgeStyle;rounded=0;orthogonalLoop=1;jettySize=auto;html=1;startArrow=none;endArrow=none;segment=10;curved=1;sourcePerimeterSpacing=0;targetPerimeterSpacing=0;entryX=0;entryY=0.5;entryDx=0;entryDy=0;" parent="milDW27EMtLCyHozFYjx-6" source="8YfRmtV6cL_evHmdfVGp-96" target="8YfRmtV6cL_evHmdfVGp-88" edge="1">
          <mxGeometry relative="1" as="geometry">
            <mxPoint x="702" y="388" as="targetPoint" />
          </mxGeometry>
        </mxCell>
        <mxCell id="8YfRmtV6cL_evHmdfVGp-96" value="Alarm2(GD306)" style="whiteSpace=wrap;html=1;rounded=1;arcSize=50;align=center;verticalAlign=middle;strokeWidth=1;autosize=1;spacing=4;treeFolding=1;treeMoving=1;newEdgeStyle={&quot;edgeStyle&quot;:&quot;entityRelationEdgeStyle&quot;,&quot;startArrow&quot;:&quot;none&quot;,&quot;endArrow&quot;:&quot;none&quot;,&quot;segment&quot;:10,&quot;curved&quot;:1,&quot;sourcePerimeterSpacing&quot;:0,&quot;targetPerimeterSpacing&quot;:0};fillColor=#cdeb8b;strokeColor=#36393d;" parent="milDW27EMtLCyHozFYjx-6" vertex="1" collapsed="1">
          <mxGeometry x="408" y="410.5" width="180" height="35" as="geometry" />
        </mxCell>
        <mxCell id="8YfRmtV6cL_evHmdfVGp-108" style="edgeStyle=entityRelationEdgeStyle;rounded=0;orthogonalLoop=1;jettySize=auto;html=1;startArrow=none;endArrow=none;segment=10;curved=1;sourcePerimeterSpacing=0;targetPerimeterSpacing=0;" parent="milDW27EMtLCyHozFYjx-6" source="8YfRmtV6cL_evHmdfVGp-97" edge="1">
          <mxGeometry relative="1" as="geometry">
            <mxPoint x="722" y="348" as="targetPoint" />
          </mxGeometry>
        </mxCell>
        <mxCell id="8YfRmtV6cL_evHmdfVGp-97" value="Fault(GD306)." style="whiteSpace=wrap;html=1;rounded=1;arcSize=50;align=center;verticalAlign=middle;strokeWidth=1;autosize=1;spacing=4;treeFolding=1;treeMoving=1;newEdgeStyle={&quot;edgeStyle&quot;:&quot;entityRelationEdgeStyle&quot;,&quot;startArrow&quot;:&quot;none&quot;,&quot;endArrow&quot;:&quot;none&quot;,&quot;segment&quot;:10,&quot;curved&quot;:1,&quot;sourcePerimeterSpacing&quot;:0,&quot;targetPerimeterSpacing&quot;:0};fillColor=#cdeb8b;strokeColor=#36393d;" parent="milDW27EMtLCyHozFYjx-6" vertex="1" collapsed="1">
          <mxGeometry x="406" y="460" width="180" height="35" as="geometry" />
        </mxCell>
        <mxCell id="8YfRmtV6cL_evHmdfVGp-98" style="edgeStyle=entityRelationEdgeStyle;rounded=0;orthogonalLoop=1;jettySize=auto;html=1;startArrow=none;endArrow=none;segment=10;curved=1;sourcePerimeterSpacing=0;targetPerimeterSpacing=0;exitX=0.5;exitY=1;exitDx=0;exitDy=0;entryX=0.368;entryY=1.094;entryDx=0;entryDy=0;entryPerimeter=0;" parent="milDW27EMtLCyHozFYjx-6" source="8YfRmtV6cL_evHmdfVGp-94" target="8YfRmtV6cL_evHmdfVGp-94" edge="1">
          <mxGeometry relative="1" as="geometry" />
        </mxCell>
        <mxCell id="R2pfpIRXYTukhotHlzGh-1" style="edgeStyle=entityRelationEdgeStyle;rounded=0;orthogonalLoop=1;jettySize=auto;html=1;startArrow=none;endArrow=none;segment=10;curved=1;sourcePerimeterSpacing=0;targetPerimeterSpacing=0;entryX=0.5;entryY=0;entryDx=0;entryDy=0;exitX=0.5;exitY=1;exitDx=0;exitDy=0;" parent="milDW27EMtLCyHozFYjx-6" source="8YfRmtV6cL_evHmdfVGp-99" target="milDW27EMtLCyHozFYjx-11" edge="1">
          <mxGeometry relative="1" as="geometry" />
        </mxCell>
        <mxCell id="8YfRmtV6cL_evHmdfVGp-99" value="EmergencyButton(E399)." style="whiteSpace=wrap;html=1;rounded=1;arcSize=50;align=center;verticalAlign=middle;strokeWidth=1;autosize=1;spacing=4;treeFolding=1;treeMoving=1;newEdgeStyle={&quot;edgeStyle&quot;:&quot;entityRelationEdgeStyle&quot;,&quot;startArrow&quot;:&quot;none&quot;,&quot;endArrow&quot;:&quot;none&quot;,&quot;segment&quot;:10,&quot;curved&quot;:1,&quot;sourcePerimeterSpacing&quot;:0,&quot;targetPerimeterSpacing&quot;:0};fillColor=#cdeb8b;strokeColor=#36393d;" parent="milDW27EMtLCyHozFYjx-6" vertex="1" collapsed="1">
          <mxGeometry x="1110" y="290" width="176" height="32" as="geometry" />
        </mxCell>
        <mxCell id="8YfRmtV6cL_evHmdfVGp-118" style="edgeStyle=entityRelationEdgeStyle;rounded=0;orthogonalLoop=1;jettySize=auto;html=1;startArrow=none;endArrow=none;segment=10;curved=1;sourcePerimeterSpacing=0;targetPerimeterSpacing=0;entryX=0;entryY=0.5;entryDx=0;entryDy=0;" parent="milDW27EMtLCyHozFYjx-6" source="8YfRmtV6cL_evHmdfVGp-117" target="milDW27EMtLCyHozFYjx-11" edge="1">
          <mxGeometry relative="1" as="geometry" />
        </mxCell>
        <mxCell id="R2pfpIRXYTukhotHlzGh-33" style="edgeStyle=entityRelationEdgeStyle;rounded=0;orthogonalLoop=1;jettySize=auto;html=1;startArrow=none;endArrow=none;segment=10;curved=1;sourcePerimeterSpacing=0;targetPerimeterSpacing=0;entryX=0.5;entryY=0;entryDx=0;entryDy=0;exitX=0.5;exitY=1;exitDx=0;exitDy=0;" parent="milDW27EMtLCyHozFYjx-6" source="8YfRmtV6cL_evHmdfVGp-117" target="8YfRmtV6cL_evHmdfVGp-127" edge="1">
          <mxGeometry relative="1" as="geometry" />
        </mxCell>
        <mxCell id="8YfRmtV6cL_evHmdfVGp-117" value="FanSubSystemController" style="whiteSpace=wrap;html=1;rounded=1;arcSize=50;align=center;verticalAlign=middle;strokeWidth=1;autosize=1;spacing=4;treeFolding=1;treeMoving=1;newEdgeStyle={&quot;edgeStyle&quot;:&quot;entityRelationEdgeStyle&quot;,&quot;startArrow&quot;:&quot;none&quot;,&quot;endArrow&quot;:&quot;none&quot;,&quot;segment&quot;:10,&quot;curved&quot;:1,&quot;sourcePerimeterSpacing&quot;:0,&quot;targetPerimeterSpacing&quot;:0};fillColor=#ffff88;strokeColor=#36393d;" parent="milDW27EMtLCyHozFYjx-6" vertex="1" collapsed="1">
          <mxGeometry x="670" y="562" width="204" height="76" as="geometry" />
        </mxCell>
        <mxCell id="8YfRmtV6cL_evHmdfVGp-120" style="edgeStyle=entityRelationEdgeStyle;rounded=0;orthogonalLoop=1;jettySize=auto;html=1;startArrow=none;endArrow=none;segment=10;curved=1;sourcePerimeterSpacing=0;targetPerimeterSpacing=0;entryX=0.5;entryY=1;entryDx=0;entryDy=0;" parent="milDW27EMtLCyHozFYjx-6" source="8YfRmtV6cL_evHmdfVGp-119" target="8YfRmtV6cL_evHmdfVGp-117" edge="1">
          <mxGeometry relative="1" as="geometry">
            <mxPoint x="762" y="636" as="targetPoint" />
          </mxGeometry>
        </mxCell>
        <mxCell id="8YfRmtV6cL_evHmdfVGp-218" style="edgeStyle=entityRelationEdgeStyle;rounded=0;orthogonalLoop=1;jettySize=auto;html=1;startArrow=none;endArrow=none;segment=10;curved=1;sourcePerimeterSpacing=0;targetPerimeterSpacing=0;entryX=1;entryY=0.5;entryDx=0;entryDy=0;exitX=0;exitY=0.5;exitDx=0;exitDy=0;" parent="milDW27EMtLCyHozFYjx-6" source="8YfRmtV6cL_evHmdfVGp-117" target="8YfRmtV6cL_evHmdfVGp-202" edge="1">
          <mxGeometry relative="1" as="geometry" />
        </mxCell>
        <mxCell id="8YfRmtV6cL_evHmdfVGp-219" style="edgeStyle=entityRelationEdgeStyle;rounded=0;orthogonalLoop=1;jettySize=auto;html=1;startArrow=none;endArrow=none;segment=10;curved=1;sourcePerimeterSpacing=0;targetPerimeterSpacing=0;" parent="milDW27EMtLCyHozFYjx-6" source="8YfRmtV6cL_evHmdfVGp-119" target="8YfRmtV6cL_evHmdfVGp-203" edge="1">
          <mxGeometry relative="1" as="geometry" />
        </mxCell>
        <mxCell id="8YfRmtV6cL_evHmdfVGp-221" style="edgeStyle=entityRelationEdgeStyle;rounded=0;orthogonalLoop=1;jettySize=auto;html=1;startArrow=none;endArrow=none;segment=10;curved=1;sourcePerimeterSpacing=0;targetPerimeterSpacing=0;entryX=1;entryY=0.5;entryDx=0;entryDy=0;" parent="milDW27EMtLCyHozFYjx-6" source="8YfRmtV6cL_evHmdfVGp-119" target="8YfRmtV6cL_evHmdfVGp-204" edge="1">
          <mxGeometry relative="1" as="geometry" />
        </mxCell>
        <mxCell id="8YfRmtV6cL_evHmdfVGp-222" style="edgeStyle=entityRelationEdgeStyle;rounded=0;orthogonalLoop=1;jettySize=auto;html=1;startArrow=none;endArrow=none;segment=10;curved=1;sourcePerimeterSpacing=0;targetPerimeterSpacing=0;entryX=1;entryY=0.75;entryDx=0;entryDy=0;" parent="milDW27EMtLCyHozFYjx-6" source="8YfRmtV6cL_evHmdfVGp-119" target="8YfRmtV6cL_evHmdfVGp-205" edge="1">
          <mxGeometry relative="1" as="geometry" />
        </mxCell>
        <mxCell id="8YfRmtV6cL_evHmdfVGp-223" style="edgeStyle=entityRelationEdgeStyle;rounded=0;orthogonalLoop=1;jettySize=auto;html=1;startArrow=none;endArrow=none;segment=10;curved=1;sourcePerimeterSpacing=0;targetPerimeterSpacing=0;" parent="milDW27EMtLCyHozFYjx-6" source="8YfRmtV6cL_evHmdfVGp-119" target="8YfRmtV6cL_evHmdfVGp-206" edge="1">
          <mxGeometry relative="1" as="geometry" />
        </mxCell>
        <mxCell id="8YfRmtV6cL_evHmdfVGp-224" style="edgeStyle=entityRelationEdgeStyle;rounded=0;orthogonalLoop=1;jettySize=auto;html=1;startArrow=none;endArrow=none;segment=10;curved=1;sourcePerimeterSpacing=0;targetPerimeterSpacing=0;entryX=1;entryY=0.25;entryDx=0;entryDy=0;" parent="milDW27EMtLCyHozFYjx-6" source="8YfRmtV6cL_evHmdfVGp-119" target="8YfRmtV6cL_evHmdfVGp-207" edge="1">
          <mxGeometry relative="1" as="geometry" />
        </mxCell>
        <mxCell id="8YfRmtV6cL_evHmdfVGp-225" style="edgeStyle=entityRelationEdgeStyle;rounded=0;orthogonalLoop=1;jettySize=auto;html=1;startArrow=none;endArrow=none;segment=10;curved=1;sourcePerimeterSpacing=0;targetPerimeterSpacing=0;entryX=1;entryY=0.5;entryDx=0;entryDy=0;" parent="milDW27EMtLCyHozFYjx-6" source="8YfRmtV6cL_evHmdfVGp-119" target="8YfRmtV6cL_evHmdfVGp-208" edge="1">
          <mxGeometry relative="1" as="geometry" />
        </mxCell>
        <mxCell id="8YfRmtV6cL_evHmdfVGp-226" style="edgeStyle=entityRelationEdgeStyle;rounded=0;orthogonalLoop=1;jettySize=auto;html=1;startArrow=none;endArrow=none;segment=10;curved=1;sourcePerimeterSpacing=0;targetPerimeterSpacing=0;entryX=1;entryY=0.75;entryDx=0;entryDy=0;" parent="milDW27EMtLCyHozFYjx-6" source="8YfRmtV6cL_evHmdfVGp-119" target="8YfRmtV6cL_evHmdfVGp-209" edge="1">
          <mxGeometry relative="1" as="geometry" />
        </mxCell>
        <mxCell id="8YfRmtV6cL_evHmdfVGp-227" style="edgeStyle=entityRelationEdgeStyle;rounded=0;orthogonalLoop=1;jettySize=auto;html=1;startArrow=none;endArrow=none;segment=10;curved=1;sourcePerimeterSpacing=0;targetPerimeterSpacing=0;entryX=1;entryY=0.75;entryDx=0;entryDy=0;" parent="milDW27EMtLCyHozFYjx-6" source="8YfRmtV6cL_evHmdfVGp-119" target="8YfRmtV6cL_evHmdfVGp-210" edge="1">
          <mxGeometry relative="1" as="geometry" />
        </mxCell>
        <mxCell id="8YfRmtV6cL_evHmdfVGp-228" style="edgeStyle=entityRelationEdgeStyle;rounded=0;orthogonalLoop=1;jettySize=auto;html=1;startArrow=none;endArrow=none;segment=10;curved=1;sourcePerimeterSpacing=0;targetPerimeterSpacing=0;" parent="milDW27EMtLCyHozFYjx-6" source="8YfRmtV6cL_evHmdfVGp-119" target="8YfRmtV6cL_evHmdfVGp-212" edge="1">
          <mxGeometry relative="1" as="geometry" />
        </mxCell>
        <mxCell id="8YfRmtV6cL_evHmdfVGp-229" style="edgeStyle=entityRelationEdgeStyle;rounded=0;orthogonalLoop=1;jettySize=auto;html=1;startArrow=none;endArrow=none;segment=10;curved=1;sourcePerimeterSpacing=0;targetPerimeterSpacing=0;entryX=1;entryY=0.25;entryDx=0;entryDy=0;" parent="milDW27EMtLCyHozFYjx-6" source="8YfRmtV6cL_evHmdfVGp-119" target="8YfRmtV6cL_evHmdfVGp-213" edge="1">
          <mxGeometry relative="1" as="geometry" />
        </mxCell>
        <mxCell id="8YfRmtV6cL_evHmdfVGp-230" style="edgeStyle=entityRelationEdgeStyle;rounded=0;orthogonalLoop=1;jettySize=auto;html=1;startArrow=none;endArrow=none;segment=10;curved=1;sourcePerimeterSpacing=0;targetPerimeterSpacing=0;entryX=1;entryY=0.75;entryDx=0;entryDy=0;" parent="milDW27EMtLCyHozFYjx-6" source="8YfRmtV6cL_evHmdfVGp-119" target="8YfRmtV6cL_evHmdfVGp-214" edge="1">
          <mxGeometry relative="1" as="geometry" />
        </mxCell>
        <mxCell id="8YfRmtV6cL_evHmdfVGp-231" style="edgeStyle=entityRelationEdgeStyle;rounded=0;orthogonalLoop=1;jettySize=auto;html=1;startArrow=none;endArrow=none;segment=10;curved=1;sourcePerimeterSpacing=0;targetPerimeterSpacing=0;" parent="milDW27EMtLCyHozFYjx-6" source="8YfRmtV6cL_evHmdfVGp-119" target="8YfRmtV6cL_evHmdfVGp-215" edge="1">
          <mxGeometry relative="1" as="geometry" />
        </mxCell>
        <mxCell id="8YfRmtV6cL_evHmdfVGp-232" style="edgeStyle=entityRelationEdgeStyle;rounded=0;orthogonalLoop=1;jettySize=auto;html=1;startArrow=none;endArrow=none;segment=10;curved=1;sourcePerimeterSpacing=0;targetPerimeterSpacing=0;" parent="milDW27EMtLCyHozFYjx-6" source="8YfRmtV6cL_evHmdfVGp-119" target="8YfRmtV6cL_evHmdfVGp-216" edge="1">
          <mxGeometry relative="1" as="geometry" />
        </mxCell>
        <mxCell id="8YfRmtV6cL_evHmdfVGp-119" value="SecondaryFanController" style="whiteSpace=wrap;html=1;rounded=1;arcSize=50;align=center;verticalAlign=middle;strokeWidth=1;autosize=1;spacing=4;treeFolding=1;treeMoving=1;newEdgeStyle={&quot;edgeStyle&quot;:&quot;entityRelationEdgeStyle&quot;,&quot;startArrow&quot;:&quot;none&quot;,&quot;endArrow&quot;:&quot;none&quot;,&quot;segment&quot;:10,&quot;curved&quot;:1,&quot;sourcePerimeterSpacing&quot;:0,&quot;targetPerimeterSpacing&quot;:0};fillColor=#ffff88;strokeColor=#36393d;" parent="milDW27EMtLCyHozFYjx-6" vertex="1" collapsed="1">
          <mxGeometry x="454" y="748" width="206" height="76" as="geometry" />
        </mxCell>
        <mxCell id="8YfRmtV6cL_evHmdfVGp-158" style="edgeStyle=entityRelationEdgeStyle;rounded=0;orthogonalLoop=1;jettySize=auto;html=1;startArrow=none;endArrow=none;segment=10;curved=1;sourcePerimeterSpacing=0;targetPerimeterSpacing=0;" parent="milDW27EMtLCyHozFYjx-6" source="8YfRmtV6cL_evHmdfVGp-127" target="8YfRmtV6cL_evHmdfVGp-130" edge="1">
          <mxGeometry relative="1" as="geometry" />
        </mxCell>
        <mxCell id="8YfRmtV6cL_evHmdfVGp-159" style="edgeStyle=entityRelationEdgeStyle;rounded=0;orthogonalLoop=1;jettySize=auto;html=1;startArrow=none;endArrow=none;segment=10;curved=1;sourcePerimeterSpacing=0;targetPerimeterSpacing=0;entryX=1;entryY=0.75;entryDx=0;entryDy=0;" parent="milDW27EMtLCyHozFYjx-6" source="8YfRmtV6cL_evHmdfVGp-127" target="8YfRmtV6cL_evHmdfVGp-131" edge="1">
          <mxGeometry relative="1" as="geometry" />
        </mxCell>
        <mxCell id="8YfRmtV6cL_evHmdfVGp-160" style="edgeStyle=entityRelationEdgeStyle;rounded=0;orthogonalLoop=1;jettySize=auto;html=1;startArrow=none;endArrow=none;segment=10;curved=1;sourcePerimeterSpacing=0;targetPerimeterSpacing=0;entryX=1;entryY=0.75;entryDx=0;entryDy=0;" parent="milDW27EMtLCyHozFYjx-6" source="8YfRmtV6cL_evHmdfVGp-127" target="8YfRmtV6cL_evHmdfVGp-132" edge="1">
          <mxGeometry relative="1" as="geometry" />
        </mxCell>
        <mxCell id="8YfRmtV6cL_evHmdfVGp-161" style="edgeStyle=entityRelationEdgeStyle;rounded=0;orthogonalLoop=1;jettySize=auto;html=1;startArrow=none;endArrow=none;segment=10;curved=1;sourcePerimeterSpacing=0;targetPerimeterSpacing=0;entryX=1;entryY=0.5;entryDx=0;entryDy=0;" parent="milDW27EMtLCyHozFYjx-6" source="8YfRmtV6cL_evHmdfVGp-127" target="8YfRmtV6cL_evHmdfVGp-133" edge="1">
          <mxGeometry relative="1" as="geometry" />
        </mxCell>
        <mxCell id="8YfRmtV6cL_evHmdfVGp-162" style="edgeStyle=entityRelationEdgeStyle;rounded=0;orthogonalLoop=1;jettySize=auto;html=1;startArrow=none;endArrow=none;segment=10;curved=1;sourcePerimeterSpacing=0;targetPerimeterSpacing=0;" parent="milDW27EMtLCyHozFYjx-6" source="8YfRmtV6cL_evHmdfVGp-127" target="8YfRmtV6cL_evHmdfVGp-134" edge="1">
          <mxGeometry relative="1" as="geometry" />
        </mxCell>
        <mxCell id="8YfRmtV6cL_evHmdfVGp-163" style="edgeStyle=entityRelationEdgeStyle;rounded=0;orthogonalLoop=1;jettySize=auto;html=1;startArrow=none;endArrow=none;segment=10;curved=1;sourcePerimeterSpacing=0;targetPerimeterSpacing=0;entryX=0.989;entryY=0.719;entryDx=0;entryDy=0;entryPerimeter=0;" parent="milDW27EMtLCyHozFYjx-6" source="8YfRmtV6cL_evHmdfVGp-127" target="8YfRmtV6cL_evHmdfVGp-135" edge="1">
          <mxGeometry relative="1" as="geometry" />
        </mxCell>
        <mxCell id="8YfRmtV6cL_evHmdfVGp-164" style="edgeStyle=entityRelationEdgeStyle;rounded=0;orthogonalLoop=1;jettySize=auto;html=1;startArrow=none;endArrow=none;segment=10;curved=1;sourcePerimeterSpacing=0;targetPerimeterSpacing=0;" parent="milDW27EMtLCyHozFYjx-6" source="8YfRmtV6cL_evHmdfVGp-127" target="8YfRmtV6cL_evHmdfVGp-136" edge="1">
          <mxGeometry relative="1" as="geometry" />
        </mxCell>
        <mxCell id="8YfRmtV6cL_evHmdfVGp-165" style="edgeStyle=entityRelationEdgeStyle;rounded=0;orthogonalLoop=1;jettySize=auto;html=1;startArrow=none;endArrow=none;segment=10;curved=1;sourcePerimeterSpacing=0;targetPerimeterSpacing=0;" parent="milDW27EMtLCyHozFYjx-6" source="8YfRmtV6cL_evHmdfVGp-127" target="8YfRmtV6cL_evHmdfVGp-137" edge="1">
          <mxGeometry relative="1" as="geometry" />
        </mxCell>
        <mxCell id="8YfRmtV6cL_evHmdfVGp-166" style="edgeStyle=entityRelationEdgeStyle;rounded=0;orthogonalLoop=1;jettySize=auto;html=1;startArrow=none;endArrow=none;segment=10;curved=1;sourcePerimeterSpacing=0;targetPerimeterSpacing=0;entryX=1;entryY=0.5;entryDx=0;entryDy=0;" parent="milDW27EMtLCyHozFYjx-6" source="8YfRmtV6cL_evHmdfVGp-127" target="8YfRmtV6cL_evHmdfVGp-139" edge="1">
          <mxGeometry relative="1" as="geometry" />
        </mxCell>
        <mxCell id="8YfRmtV6cL_evHmdfVGp-167" style="edgeStyle=entityRelationEdgeStyle;rounded=0;orthogonalLoop=1;jettySize=auto;html=1;startArrow=none;endArrow=none;segment=10;curved=1;sourcePerimeterSpacing=0;targetPerimeterSpacing=0;entryX=1;entryY=0.5;entryDx=0;entryDy=0;" parent="milDW27EMtLCyHozFYjx-6" source="8YfRmtV6cL_evHmdfVGp-127" target="8YfRmtV6cL_evHmdfVGp-140" edge="1">
          <mxGeometry relative="1" as="geometry" />
        </mxCell>
        <mxCell id="8YfRmtV6cL_evHmdfVGp-168" style="edgeStyle=entityRelationEdgeStyle;rounded=0;orthogonalLoop=1;jettySize=auto;html=1;startArrow=none;endArrow=none;segment=10;curved=1;sourcePerimeterSpacing=0;targetPerimeterSpacing=0;entryX=1;entryY=0.75;entryDx=0;entryDy=0;" parent="milDW27EMtLCyHozFYjx-6" source="8YfRmtV6cL_evHmdfVGp-127" target="8YfRmtV6cL_evHmdfVGp-141" edge="1">
          <mxGeometry relative="1" as="geometry" />
        </mxCell>
        <mxCell id="8YfRmtV6cL_evHmdfVGp-169" style="edgeStyle=entityRelationEdgeStyle;rounded=0;orthogonalLoop=1;jettySize=auto;html=1;startArrow=none;endArrow=none;segment=10;curved=1;sourcePerimeterSpacing=0;targetPerimeterSpacing=0;" parent="milDW27EMtLCyHozFYjx-6" source="8YfRmtV6cL_evHmdfVGp-127" target="8YfRmtV6cL_evHmdfVGp-142" edge="1">
          <mxGeometry relative="1" as="geometry" />
        </mxCell>
        <mxCell id="8YfRmtV6cL_evHmdfVGp-170" style="edgeStyle=entityRelationEdgeStyle;rounded=0;orthogonalLoop=1;jettySize=auto;html=1;startArrow=none;endArrow=none;segment=10;curved=1;sourcePerimeterSpacing=0;targetPerimeterSpacing=0;entryX=1;entryY=0.75;entryDx=0;entryDy=0;" parent="milDW27EMtLCyHozFYjx-6" source="8YfRmtV6cL_evHmdfVGp-127" target="8YfRmtV6cL_evHmdfVGp-143" edge="1">
          <mxGeometry relative="1" as="geometry" />
        </mxCell>
        <mxCell id="8YfRmtV6cL_evHmdfVGp-127" value="PrimaryFanController" style="whiteSpace=wrap;html=1;rounded=1;arcSize=50;align=center;verticalAlign=middle;strokeWidth=1;autosize=1;spacing=4;treeFolding=1;treeMoving=1;newEdgeStyle={&quot;edgeStyle&quot;:&quot;entityRelationEdgeStyle&quot;,&quot;startArrow&quot;:&quot;none&quot;,&quot;endArrow&quot;:&quot;none&quot;,&quot;segment&quot;:10,&quot;curved&quot;:1,&quot;sourcePerimeterSpacing&quot;:0,&quot;targetPerimeterSpacing&quot;:0};fillColor=#ffff88;strokeColor=#36393d;" parent="milDW27EMtLCyHozFYjx-6" vertex="1">
          <mxGeometry x="880" y="752" width="206" height="76" as="geometry" />
        </mxCell>
        <mxCell id="8YfRmtV6cL_evHmdfVGp-238" style="edgeStyle=entityRelationEdgeStyle;rounded=0;orthogonalLoop=1;jettySize=auto;html=1;startArrow=none;endArrow=none;segment=10;curved=1;sourcePerimeterSpacing=0;targetPerimeterSpacing=0;" parent="milDW27EMtLCyHozFYjx-6" source="8YfRmtV6cL_evHmdfVGp-129" target="8YfRmtV6cL_evHmdfVGp-236" edge="1">
          <mxGeometry relative="1" as="geometry" />
        </mxCell>
        <mxCell id="8YfRmtV6cL_evHmdfVGp-240" style="edgeStyle=entityRelationEdgeStyle;rounded=0;orthogonalLoop=1;jettySize=auto;html=1;startArrow=none;endArrow=none;segment=10;curved=1;sourcePerimeterSpacing=0;targetPerimeterSpacing=0;entryX=1;entryY=0.5;entryDx=0;entryDy=0;" parent="milDW27EMtLCyHozFYjx-6" source="8YfRmtV6cL_evHmdfVGp-129" target="8YfRmtV6cL_evHmdfVGp-239" edge="1">
          <mxGeometry relative="1" as="geometry" />
        </mxCell>
        <mxCell id="LBvXHMEIAEi0XzsUhYkD-1" style="edgeStyle=entityRelationEdgeStyle;rounded=0;orthogonalLoop=1;jettySize=auto;html=1;startArrow=none;endArrow=none;segment=10;curved=1;sourcePerimeterSpacing=0;targetPerimeterSpacing=0;entryX=0;entryY=0.5;entryDx=0;entryDy=0;" parent="milDW27EMtLCyHozFYjx-6" source="8YfRmtV6cL_evHmdfVGp-129" target="8YfRmtV6cL_evHmdfVGp-117" edge="1">
          <mxGeometry relative="1" as="geometry" />
        </mxCell>
        <mxCell id="8YfRmtV6cL_evHmdfVGp-129" value="PrimaryOutletDamperValve(FV381)" style="whiteSpace=wrap;html=1;rounded=1;arcSize=50;align=center;verticalAlign=middle;strokeWidth=1;autosize=1;spacing=4;treeFolding=1;treeMoving=1;newEdgeStyle={&quot;edgeStyle&quot;:&quot;entityRelationEdgeStyle&quot;,&quot;startArrow&quot;:&quot;none&quot;,&quot;endArrow&quot;:&quot;none&quot;,&quot;segment&quot;:10,&quot;curved&quot;:1,&quot;sourcePerimeterSpacing&quot;:0,&quot;targetPerimeterSpacing&quot;:0};fillColor=#008a00;fontColor=#ffffff;strokeColor=#005700;" parent="milDW27EMtLCyHozFYjx-6" vertex="1" collapsed="1">
          <mxGeometry x="300" y="616" width="230" height="32" as="geometry" />
        </mxCell>
        <mxCell id="8YfRmtV6cL_evHmdfVGp-130" value="FanWindingTemp1(GB301-T1)" style="whiteSpace=wrap;html=1;rounded=1;arcSize=50;align=center;verticalAlign=middle;strokeWidth=1;autosize=1;spacing=4;treeFolding=1;treeMoving=1;newEdgeStyle={&quot;edgeStyle&quot;:&quot;entityRelationEdgeStyle&quot;,&quot;startArrow&quot;:&quot;none&quot;,&quot;endArrow&quot;:&quot;none&quot;,&quot;segment&quot;:10,&quot;curved&quot;:1,&quot;sourcePerimeterSpacing&quot;:0,&quot;targetPerimeterSpacing&quot;:0};fillColor=#1ba1e2;fontColor=#ffffff;strokeColor=#006EAF;" parent="milDW27EMtLCyHozFYjx-6" vertex="1" collapsed="1">
          <mxGeometry x="632" y="1026" width="204" height="32" as="geometry" />
        </mxCell>
        <mxCell id="8YfRmtV6cL_evHmdfVGp-131" value="FanWindingTemp2(GB301-T1)" style="whiteSpace=wrap;html=1;rounded=1;arcSize=50;align=center;verticalAlign=middle;strokeWidth=1;autosize=1;spacing=4;treeFolding=1;treeMoving=1;newEdgeStyle={&quot;edgeStyle&quot;:&quot;entityRelationEdgeStyle&quot;,&quot;startArrow&quot;:&quot;none&quot;,&quot;endArrow&quot;:&quot;none&quot;,&quot;segment&quot;:10,&quot;curved&quot;:1,&quot;sourcePerimeterSpacing&quot;:0,&quot;targetPerimeterSpacing&quot;:0};fillColor=#1ba1e2;fontColor=#ffffff;strokeColor=#006EAF;" parent="milDW27EMtLCyHozFYjx-6" vertex="1" collapsed="1">
          <mxGeometry x="634" y="1074" width="204" height="32" as="geometry" />
        </mxCell>
        <mxCell id="8YfRmtV6cL_evHmdfVGp-132" value="BearingTemp1(GB301-TM1)" style="whiteSpace=wrap;html=1;rounded=1;arcSize=50;align=center;verticalAlign=middle;strokeWidth=1;autosize=1;spacing=4;treeFolding=1;treeMoving=1;newEdgeStyle={&quot;edgeStyle&quot;:&quot;entityRelationEdgeStyle&quot;,&quot;startArrow&quot;:&quot;none&quot;,&quot;endArrow&quot;:&quot;none&quot;,&quot;segment&quot;:10,&quot;curved&quot;:1,&quot;sourcePerimeterSpacing&quot;:0,&quot;targetPerimeterSpacing&quot;:0};fillColor=#1ba1e2;fontColor=#ffffff;strokeColor=#006EAF;" parent="milDW27EMtLCyHozFYjx-6" vertex="1" collapsed="1">
          <mxGeometry x="642" y="1120" width="192" height="32" as="geometry" />
        </mxCell>
        <mxCell id="8YfRmtV6cL_evHmdfVGp-133" value="BearingTemp2(GB301-TM2)" style="whiteSpace=wrap;html=1;rounded=1;arcSize=50;align=center;verticalAlign=middle;strokeWidth=1;autosize=1;spacing=4;treeFolding=1;treeMoving=1;newEdgeStyle={&quot;edgeStyle&quot;:&quot;entityRelationEdgeStyle&quot;,&quot;startArrow&quot;:&quot;none&quot;,&quot;endArrow&quot;:&quot;none&quot;,&quot;segment&quot;:10,&quot;curved&quot;:1,&quot;sourcePerimeterSpacing&quot;:0,&quot;targetPerimeterSpacing&quot;:0};fillColor=#1ba1e2;fontColor=#ffffff;strokeColor=#006EAF;" parent="milDW27EMtLCyHozFYjx-6" vertex="1" collapsed="1">
          <mxGeometry x="640" y="1168" width="192" height="32" as="geometry" />
        </mxCell>
        <mxCell id="8YfRmtV6cL_evHmdfVGp-134" value="FanAccelerator(GB301-V)" style="whiteSpace=wrap;html=1;rounded=1;arcSize=50;align=center;verticalAlign=middle;strokeWidth=1;autosize=1;spacing=4;treeFolding=1;treeMoving=1;newEdgeStyle={&quot;edgeStyle&quot;:&quot;entityRelationEdgeStyle&quot;,&quot;startArrow&quot;:&quot;none&quot;,&quot;endArrow&quot;:&quot;none&quot;,&quot;segment&quot;:10,&quot;curved&quot;:1,&quot;sourcePerimeterSpacing&quot;:0,&quot;targetPerimeterSpacing&quot;:0};fillColor=#1ba1e2;fontColor=#ffffff;strokeColor=#006EAF;" parent="milDW27EMtLCyHozFYjx-6" vertex="1" collapsed="1">
          <mxGeometry x="648" y="1212" width="180" height="32" as="geometry" />
        </mxCell>
        <mxCell id="8YfRmtV6cL_evHmdfVGp-135" value="FanReady(GB301-RE)" style="whiteSpace=wrap;html=1;rounded=1;arcSize=50;align=center;verticalAlign=middle;strokeWidth=1;autosize=1;spacing=4;treeFolding=1;treeMoving=1;newEdgeStyle={&quot;edgeStyle&quot;:&quot;entityRelationEdgeStyle&quot;,&quot;startArrow&quot;:&quot;none&quot;,&quot;endArrow&quot;:&quot;none&quot;,&quot;segment&quot;:10,&quot;curved&quot;:1,&quot;sourcePerimeterSpacing&quot;:0,&quot;targetPerimeterSpacing&quot;:0};fillColor=#cdeb8b;strokeColor=#36393d;" parent="milDW27EMtLCyHozFYjx-6" vertex="1" collapsed="1">
          <mxGeometry x="646" y="1259" width="180" height="35" as="geometry" />
        </mxCell>
        <mxCell id="8YfRmtV6cL_evHmdfVGp-136" value="FanRunning(GB301-RU)" style="whiteSpace=wrap;html=1;rounded=1;arcSize=50;align=center;verticalAlign=middle;strokeWidth=1;autosize=1;spacing=4;treeFolding=1;treeMoving=1;newEdgeStyle={&quot;edgeStyle&quot;:&quot;entityRelationEdgeStyle&quot;,&quot;startArrow&quot;:&quot;none&quot;,&quot;endArrow&quot;:&quot;none&quot;,&quot;segment&quot;:10,&quot;curved&quot;:1,&quot;sourcePerimeterSpacing&quot;:0,&quot;targetPerimeterSpacing&quot;:0};fillColor=#cdeb8b;strokeColor=#36393d;" parent="milDW27EMtLCyHozFYjx-6" vertex="1" collapsed="1">
          <mxGeometry x="654" y="1310" width="172" height="32" as="geometry" />
        </mxCell>
        <mxCell id="8YfRmtV6cL_evHmdfVGp-137" value="FanFault(GB301-F)." style="whiteSpace=wrap;html=1;rounded=1;arcSize=50;align=center;verticalAlign=middle;strokeWidth=1;autosize=1;spacing=4;treeFolding=1;treeMoving=1;newEdgeStyle={&quot;edgeStyle&quot;:&quot;entityRelationEdgeStyle&quot;,&quot;startArrow&quot;:&quot;none&quot;,&quot;endArrow&quot;:&quot;none&quot;,&quot;segment&quot;:10,&quot;curved&quot;:1,&quot;sourcePerimeterSpacing&quot;:0,&quot;targetPerimeterSpacing&quot;:0};fillColor=#cdeb8b;strokeColor=#36393d;" parent="milDW27EMtLCyHozFYjx-6" vertex="1" collapsed="1">
          <mxGeometry x="650" y="1355" width="180" height="35" as="geometry" />
        </mxCell>
        <mxCell id="8YfRmtV6cL_evHmdfVGp-139" value="FanStart(GB301-STO)." style="whiteSpace=wrap;html=1;rounded=1;arcSize=50;align=center;verticalAlign=middle;strokeWidth=1;autosize=1;spacing=4;treeFolding=1;treeMoving=1;newEdgeStyle={&quot;edgeStyle&quot;:&quot;entityRelationEdgeStyle&quot;,&quot;startArrow&quot;:&quot;none&quot;,&quot;endArrow&quot;:&quot;none&quot;,&quot;segment&quot;:10,&quot;curved&quot;:1,&quot;sourcePerimeterSpacing&quot;:0,&quot;targetPerimeterSpacing&quot;:0};fillColor=#008a00;fontColor=#ffffff;strokeColor=#005700;" parent="milDW27EMtLCyHozFYjx-6" vertex="1" collapsed="1">
          <mxGeometry x="648" y="1407" width="180" height="35" as="geometry" />
        </mxCell>
        <mxCell id="8YfRmtV6cL_evHmdfVGp-140" value="FanSpeedReference(GB301-SPO)" style="whiteSpace=wrap;html=1;rounded=1;arcSize=50;align=center;verticalAlign=middle;strokeWidth=1;autosize=1;spacing=4;treeFolding=1;treeMoving=1;newEdgeStyle={&quot;edgeStyle&quot;:&quot;entityRelationEdgeStyle&quot;,&quot;startArrow&quot;:&quot;none&quot;,&quot;endArrow&quot;:&quot;none&quot;,&quot;segment&quot;:10,&quot;curved&quot;:1,&quot;sourcePerimeterSpacing&quot;:0,&quot;targetPerimeterSpacing&quot;:0};fillColor=#f0a30a;fontColor=#000000;strokeColor=#BD7000;" parent="milDW27EMtLCyHozFYjx-6" vertex="1" collapsed="1">
          <mxGeometry x="604" y="1453" width="226" height="32" as="geometry" />
        </mxCell>
        <mxCell id="8YfRmtV6cL_evHmdfVGp-141" value="FanSpeed(GB301-SPI)" style="whiteSpace=wrap;html=1;rounded=1;arcSize=50;align=center;verticalAlign=middle;strokeWidth=1;autosize=1;spacing=4;treeFolding=1;treeMoving=1;newEdgeStyle={&quot;edgeStyle&quot;:&quot;entityRelationEdgeStyle&quot;,&quot;startArrow&quot;:&quot;none&quot;,&quot;endArrow&quot;:&quot;none&quot;,&quot;segment&quot;:10,&quot;curved&quot;:1,&quot;sourcePerimeterSpacing&quot;:0,&quot;targetPerimeterSpacing&quot;:0};fillColor=#f0a30a;fontColor=#000000;strokeColor=#BD7000;" parent="milDW27EMtLCyHozFYjx-6" vertex="1" collapsed="1">
          <mxGeometry x="664" y="1505" width="164" height="32" as="geometry" />
        </mxCell>
        <mxCell id="8YfRmtV6cL_evHmdfVGp-142" value="FanMotorCurrent(GB301-MC)" style="whiteSpace=wrap;html=1;rounded=1;arcSize=50;align=center;verticalAlign=middle;strokeWidth=1;autosize=1;spacing=4;treeFolding=1;treeMoving=1;newEdgeStyle={&quot;edgeStyle&quot;:&quot;entityRelationEdgeStyle&quot;,&quot;startArrow&quot;:&quot;none&quot;,&quot;endArrow&quot;:&quot;none&quot;,&quot;segment&quot;:10,&quot;curved&quot;:1,&quot;sourcePerimeterSpacing&quot;:0,&quot;targetPerimeterSpacing&quot;:0};fillColor=#f0a30a;fontColor=#000000;strokeColor=#BD7000;" parent="milDW27EMtLCyHozFYjx-6" vertex="1" collapsed="1">
          <mxGeometry x="644" y="1557" width="200" height="32" as="geometry" />
        </mxCell>
        <mxCell id="8YfRmtV6cL_evHmdfVGp-143" value="FanMotorShaftPower(GB301-MSP)" style="whiteSpace=wrap;html=1;rounded=1;arcSize=50;align=center;verticalAlign=middle;strokeWidth=1;autosize=1;spacing=4;treeFolding=1;treeMoving=1;newEdgeStyle={&quot;edgeStyle&quot;:&quot;entityRelationEdgeStyle&quot;,&quot;startArrow&quot;:&quot;none&quot;,&quot;endArrow&quot;:&quot;none&quot;,&quot;segment&quot;:10,&quot;curved&quot;:1,&quot;sourcePerimeterSpacing&quot;:0,&quot;targetPerimeterSpacing&quot;:0};fillColor=#f0a30a;fontColor=#000000;strokeColor=#BD7000;" parent="milDW27EMtLCyHozFYjx-6" vertex="1" collapsed="1">
          <mxGeometry x="631" y="1605" width="230" height="32" as="geometry" />
        </mxCell>
        <mxCell id="8YfRmtV6cL_evHmdfVGp-247" style="edgeStyle=entityRelationEdgeStyle;rounded=0;orthogonalLoop=1;jettySize=auto;html=1;startArrow=none;endArrow=none;segment=10;curved=1;sourcePerimeterSpacing=0;targetPerimeterSpacing=0;" parent="milDW27EMtLCyHozFYjx-6" source="8YfRmtV6cL_evHmdfVGp-202" target="8YfRmtV6cL_evHmdfVGp-246" edge="1">
          <mxGeometry relative="1" as="geometry" />
        </mxCell>
        <mxCell id="8YfRmtV6cL_evHmdfVGp-250" style="edgeStyle=entityRelationEdgeStyle;rounded=0;orthogonalLoop=1;jettySize=auto;html=1;startArrow=none;endArrow=none;segment=10;curved=1;sourcePerimeterSpacing=0;targetPerimeterSpacing=0;entryX=1;entryY=0.75;entryDx=0;entryDy=0;exitX=0;exitY=0.5;exitDx=0;exitDy=0;" parent="milDW27EMtLCyHozFYjx-6" source="8YfRmtV6cL_evHmdfVGp-202" target="8YfRmtV6cL_evHmdfVGp-249" edge="1">
          <mxGeometry relative="1" as="geometry" />
        </mxCell>
        <mxCell id="8YfRmtV6cL_evHmdfVGp-202" value="SecondaryOutletDamperValve(FV379)" style="whiteSpace=wrap;html=1;rounded=1;arcSize=50;align=center;verticalAlign=middle;strokeWidth=1;autosize=1;spacing=4;treeFolding=1;treeMoving=1;newEdgeStyle={&quot;edgeStyle&quot;:&quot;entityRelationEdgeStyle&quot;,&quot;startArrow&quot;:&quot;none&quot;,&quot;endArrow&quot;:&quot;none&quot;,&quot;segment&quot;:10,&quot;curved&quot;:1,&quot;sourcePerimeterSpacing&quot;:0,&quot;targetPerimeterSpacing&quot;:0};fillColor=#008a00;fontColor=#ffffff;strokeColor=#005700;" parent="milDW27EMtLCyHozFYjx-6" vertex="1" collapsed="1">
          <mxGeometry x="292" y="562" width="246" height="32" as="geometry" />
        </mxCell>
        <mxCell id="8YfRmtV6cL_evHmdfVGp-203" value="FanWindingTemp1(GB302-T1)" style="whiteSpace=wrap;html=1;rounded=1;arcSize=50;align=center;verticalAlign=middle;strokeWidth=1;autosize=1;spacing=4;treeFolding=1;treeMoving=1;newEdgeStyle={&quot;edgeStyle&quot;:&quot;entityRelationEdgeStyle&quot;,&quot;startArrow&quot;:&quot;none&quot;,&quot;endArrow&quot;:&quot;none&quot;,&quot;segment&quot;:10,&quot;curved&quot;:1,&quot;sourcePerimeterSpacing&quot;:0,&quot;targetPerimeterSpacing&quot;:0};fillColor=#1ba1e2;fontColor=#ffffff;strokeColor=#006EAF;" parent="milDW27EMtLCyHozFYjx-6" vertex="1" collapsed="1">
          <mxGeometry x="162" y="925" width="204" height="32" as="geometry" />
        </mxCell>
        <mxCell id="8YfRmtV6cL_evHmdfVGp-204" value="FanWindingTemp2(GB302-T1)" style="whiteSpace=wrap;html=1;rounded=1;arcSize=50;align=center;verticalAlign=middle;strokeWidth=1;autosize=1;spacing=4;treeFolding=1;treeMoving=1;newEdgeStyle={&quot;edgeStyle&quot;:&quot;entityRelationEdgeStyle&quot;,&quot;startArrow&quot;:&quot;none&quot;,&quot;endArrow&quot;:&quot;none&quot;,&quot;segment&quot;:10,&quot;curved&quot;:1,&quot;sourcePerimeterSpacing&quot;:0,&quot;targetPerimeterSpacing&quot;:0};fillColor=#1ba1e2;fontColor=#ffffff;strokeColor=#006EAF;" parent="milDW27EMtLCyHozFYjx-6" vertex="1" collapsed="1">
          <mxGeometry x="164" y="973" width="204" height="32" as="geometry" />
        </mxCell>
        <mxCell id="8YfRmtV6cL_evHmdfVGp-205" value="BearingTemp1(GB302-TM1)" style="whiteSpace=wrap;html=1;rounded=1;arcSize=50;align=center;verticalAlign=middle;strokeWidth=1;autosize=1;spacing=4;treeFolding=1;treeMoving=1;newEdgeStyle={&quot;edgeStyle&quot;:&quot;entityRelationEdgeStyle&quot;,&quot;startArrow&quot;:&quot;none&quot;,&quot;endArrow&quot;:&quot;none&quot;,&quot;segment&quot;:10,&quot;curved&quot;:1,&quot;sourcePerimeterSpacing&quot;:0,&quot;targetPerimeterSpacing&quot;:0};fillColor=#1ba1e2;fontColor=#ffffff;strokeColor=#006EAF;" parent="milDW27EMtLCyHozFYjx-6" vertex="1" collapsed="1">
          <mxGeometry x="172" y="1019" width="192" height="32" as="geometry" />
        </mxCell>
        <mxCell id="8YfRmtV6cL_evHmdfVGp-206" value="BearingTemp2(GB302-TM2)" style="whiteSpace=wrap;html=1;rounded=1;arcSize=50;align=center;verticalAlign=middle;strokeWidth=1;autosize=1;spacing=4;treeFolding=1;treeMoving=1;newEdgeStyle={&quot;edgeStyle&quot;:&quot;entityRelationEdgeStyle&quot;,&quot;startArrow&quot;:&quot;none&quot;,&quot;endArrow&quot;:&quot;none&quot;,&quot;segment&quot;:10,&quot;curved&quot;:1,&quot;sourcePerimeterSpacing&quot;:0,&quot;targetPerimeterSpacing&quot;:0};fillColor=#1ba1e2;fontColor=#ffffff;strokeColor=#006EAF;" parent="milDW27EMtLCyHozFYjx-6" vertex="1" collapsed="1">
          <mxGeometry x="170" y="1067" width="192" height="32" as="geometry" />
        </mxCell>
        <mxCell id="8YfRmtV6cL_evHmdfVGp-207" value="FanAccelerator(GB302-V)" style="whiteSpace=wrap;html=1;rounded=1;arcSize=50;align=center;verticalAlign=middle;strokeWidth=1;autosize=1;spacing=4;treeFolding=1;treeMoving=1;newEdgeStyle={&quot;edgeStyle&quot;:&quot;entityRelationEdgeStyle&quot;,&quot;startArrow&quot;:&quot;none&quot;,&quot;endArrow&quot;:&quot;none&quot;,&quot;segment&quot;:10,&quot;curved&quot;:1,&quot;sourcePerimeterSpacing&quot;:0,&quot;targetPerimeterSpacing&quot;:0};fillColor=#1ba1e2;fontColor=#ffffff;strokeColor=#006EAF;" parent="milDW27EMtLCyHozFYjx-6" vertex="1" collapsed="1">
          <mxGeometry x="178" y="1111" width="180" height="32" as="geometry" />
        </mxCell>
        <mxCell id="8YfRmtV6cL_evHmdfVGp-208" value="FanReady(GB302-RE)" style="whiteSpace=wrap;html=1;rounded=1;arcSize=50;align=center;verticalAlign=middle;strokeWidth=1;autosize=1;spacing=4;treeFolding=1;treeMoving=1;newEdgeStyle={&quot;edgeStyle&quot;:&quot;entityRelationEdgeStyle&quot;,&quot;startArrow&quot;:&quot;none&quot;,&quot;endArrow&quot;:&quot;none&quot;,&quot;segment&quot;:10,&quot;curved&quot;:1,&quot;sourcePerimeterSpacing&quot;:0,&quot;targetPerimeterSpacing&quot;:0};fillColor=#cdeb8b;strokeColor=#36393d;" parent="milDW27EMtLCyHozFYjx-6" vertex="1" collapsed="1">
          <mxGeometry x="185" y="1160" width="162" height="32" as="geometry" />
        </mxCell>
        <mxCell id="8YfRmtV6cL_evHmdfVGp-209" value="FanRunning(GB302-RU)" style="whiteSpace=wrap;html=1;rounded=1;arcSize=50;align=center;verticalAlign=middle;strokeWidth=1;autosize=1;spacing=4;treeFolding=1;treeMoving=1;newEdgeStyle={&quot;edgeStyle&quot;:&quot;entityRelationEdgeStyle&quot;,&quot;startArrow&quot;:&quot;none&quot;,&quot;endArrow&quot;:&quot;none&quot;,&quot;segment&quot;:10,&quot;curved&quot;:1,&quot;sourcePerimeterSpacing&quot;:0,&quot;targetPerimeterSpacing&quot;:0};fillColor=#cdeb8b;strokeColor=#36393d;" parent="milDW27EMtLCyHozFYjx-6" vertex="1" collapsed="1">
          <mxGeometry x="184" y="1209" width="172" height="32" as="geometry" />
        </mxCell>
        <mxCell id="8YfRmtV6cL_evHmdfVGp-210" value="FanFault(GB302-F)." style="whiteSpace=wrap;html=1;rounded=1;arcSize=50;align=center;verticalAlign=middle;strokeWidth=1;autosize=1;spacing=4;treeFolding=1;treeMoving=1;newEdgeStyle={&quot;edgeStyle&quot;:&quot;entityRelationEdgeStyle&quot;,&quot;startArrow&quot;:&quot;none&quot;,&quot;endArrow&quot;:&quot;none&quot;,&quot;segment&quot;:10,&quot;curved&quot;:1,&quot;sourcePerimeterSpacing&quot;:0,&quot;targetPerimeterSpacing&quot;:0};fillColor=#cdeb8b;strokeColor=#36393d;" parent="milDW27EMtLCyHozFYjx-6" vertex="1" collapsed="1">
          <mxGeometry x="196" y="1256" width="148" height="32" as="geometry" />
        </mxCell>
        <mxCell id="8YfRmtV6cL_evHmdfVGp-211" style="edgeStyle=entityRelationEdgeStyle;rounded=0;orthogonalLoop=1;jettySize=auto;html=1;startArrow=none;endArrow=none;segment=10;curved=1;sourcePerimeterSpacing=0;targetPerimeterSpacing=0;exitX=0.5;exitY=1;exitDx=0;exitDy=0;entryX=0.368;entryY=1.094;entryDx=0;entryDy=0;entryPerimeter=0;" parent="milDW27EMtLCyHozFYjx-6" source="8YfRmtV6cL_evHmdfVGp-207" target="8YfRmtV6cL_evHmdfVGp-207" edge="1">
          <mxGeometry relative="1" as="geometry" />
        </mxCell>
        <mxCell id="8YfRmtV6cL_evHmdfVGp-212" value="FanStart(GB302-STO)." style="whiteSpace=wrap;html=1;rounded=1;arcSize=50;align=center;verticalAlign=middle;strokeWidth=1;autosize=1;spacing=4;treeFolding=1;treeMoving=1;newEdgeStyle={&quot;edgeStyle&quot;:&quot;entityRelationEdgeStyle&quot;,&quot;startArrow&quot;:&quot;none&quot;,&quot;endArrow&quot;:&quot;none&quot;,&quot;segment&quot;:10,&quot;curved&quot;:1,&quot;sourcePerimeterSpacing&quot;:0,&quot;targetPerimeterSpacing&quot;:0};fillColor=#008a00;fontColor=#ffffff;strokeColor=#005700;" parent="milDW27EMtLCyHozFYjx-6" vertex="1" collapsed="1">
          <mxGeometry x="186" y="1308" width="164" height="32" as="geometry" />
        </mxCell>
        <mxCell id="8YfRmtV6cL_evHmdfVGp-213" value="FanSpeedReference(GB302-SPO)" style="whiteSpace=wrap;html=1;rounded=1;arcSize=50;align=center;verticalAlign=middle;strokeWidth=1;autosize=1;spacing=4;treeFolding=1;treeMoving=1;newEdgeStyle={&quot;edgeStyle&quot;:&quot;entityRelationEdgeStyle&quot;,&quot;startArrow&quot;:&quot;none&quot;,&quot;endArrow&quot;:&quot;none&quot;,&quot;segment&quot;:10,&quot;curved&quot;:1,&quot;sourcePerimeterSpacing&quot;:0,&quot;targetPerimeterSpacing&quot;:0};fillColor=#ffcd28;gradientColor=#ffa500;strokeColor=#d79b00;" parent="milDW27EMtLCyHozFYjx-6" vertex="1" collapsed="1">
          <mxGeometry x="134" y="1352" width="226" height="32" as="geometry" />
        </mxCell>
        <mxCell id="8YfRmtV6cL_evHmdfVGp-214" value="FanSpeed(GB302-SPI)" style="whiteSpace=wrap;html=1;rounded=1;arcSize=50;align=center;verticalAlign=middle;strokeWidth=1;autosize=1;spacing=4;treeFolding=1;treeMoving=1;newEdgeStyle={&quot;edgeStyle&quot;:&quot;entityRelationEdgeStyle&quot;,&quot;startArrow&quot;:&quot;none&quot;,&quot;endArrow&quot;:&quot;none&quot;,&quot;segment&quot;:10,&quot;curved&quot;:1,&quot;sourcePerimeterSpacing&quot;:0,&quot;targetPerimeterSpacing&quot;:0};fillColor=#ffcd28;gradientColor=#ffa500;strokeColor=#d79b00;" parent="milDW27EMtLCyHozFYjx-6" vertex="1" collapsed="1">
          <mxGeometry x="194" y="1404" width="164" height="32" as="geometry" />
        </mxCell>
        <mxCell id="8YfRmtV6cL_evHmdfVGp-215" value="FanMotorCurrent(GB302-MC)" style="whiteSpace=wrap;html=1;rounded=1;arcSize=50;align=center;verticalAlign=middle;strokeWidth=1;autosize=1;spacing=4;treeFolding=1;treeMoving=1;newEdgeStyle={&quot;edgeStyle&quot;:&quot;entityRelationEdgeStyle&quot;,&quot;startArrow&quot;:&quot;none&quot;,&quot;endArrow&quot;:&quot;none&quot;,&quot;segment&quot;:10,&quot;curved&quot;:1,&quot;sourcePerimeterSpacing&quot;:0,&quot;targetPerimeterSpacing&quot;:0};fillColor=#ffcd28;gradientColor=#ffa500;strokeColor=#d79b00;" parent="milDW27EMtLCyHozFYjx-6" vertex="1" collapsed="1">
          <mxGeometry x="174" y="1456" width="200" height="32" as="geometry" />
        </mxCell>
        <mxCell id="8YfRmtV6cL_evHmdfVGp-216" value="FanMotorShaftPower(GB302-MSP)" style="whiteSpace=wrap;html=1;rounded=1;arcSize=50;align=center;verticalAlign=middle;strokeWidth=1;autosize=1;spacing=4;treeFolding=1;treeMoving=1;newEdgeStyle={&quot;edgeStyle&quot;:&quot;entityRelationEdgeStyle&quot;,&quot;startArrow&quot;:&quot;none&quot;,&quot;endArrow&quot;:&quot;none&quot;,&quot;segment&quot;:10,&quot;curved&quot;:1,&quot;sourcePerimeterSpacing&quot;:0,&quot;targetPerimeterSpacing&quot;:0};fillColor=#ffcd28;gradientColor=#ffa500;strokeColor=#d79b00;" parent="milDW27EMtLCyHozFYjx-6" vertex="1" collapsed="1">
          <mxGeometry x="161" y="1504" width="230" height="32" as="geometry" />
        </mxCell>
        <mxCell id="8YfRmtV6cL_evHmdfVGp-236" value="PrimOutletDamperValOpen" style="whiteSpace=wrap;html=1;rounded=1;arcSize=50;align=center;verticalAlign=middle;strokeWidth=1;autosize=1;spacing=4;treeFolding=1;treeMoving=1;newEdgeStyle={&quot;edgeStyle&quot;:&quot;entityRelationEdgeStyle&quot;,&quot;startArrow&quot;:&quot;none&quot;,&quot;endArrow&quot;:&quot;none&quot;,&quot;segment&quot;:10,&quot;curved&quot;:1,&quot;sourcePerimeterSpacing&quot;:0,&quot;targetPerimeterSpacing&quot;:0};fillColor=#cdeb8b;strokeColor=#36393d;" parent="milDW27EMtLCyHozFYjx-6" vertex="1" collapsed="1">
          <mxGeometry x="24" y="690" width="186" height="32" as="geometry" />
        </mxCell>
        <mxCell id="8YfRmtV6cL_evHmdfVGp-239" value="PrimOutletDamperValClose" style="whiteSpace=wrap;html=1;rounded=1;arcSize=50;align=center;verticalAlign=middle;strokeWidth=1;autosize=1;spacing=4;treeFolding=1;treeMoving=1;newEdgeStyle={&quot;edgeStyle&quot;:&quot;entityRelationEdgeStyle&quot;,&quot;startArrow&quot;:&quot;none&quot;,&quot;endArrow&quot;:&quot;none&quot;,&quot;segment&quot;:10,&quot;curved&quot;:1,&quot;sourcePerimeterSpacing&quot;:0,&quot;targetPerimeterSpacing&quot;:0};fillColor=#cdeb8b;strokeColor=#36393d;" parent="milDW27EMtLCyHozFYjx-6" vertex="1" collapsed="1">
          <mxGeometry x="22" y="734" width="188" height="32" as="geometry" />
        </mxCell>
        <mxCell id="8YfRmtV6cL_evHmdfVGp-246" value="SecondaryOutletDamperValveOpen" style="whiteSpace=wrap;html=1;rounded=1;arcSize=50;align=center;verticalAlign=middle;strokeWidth=1;autosize=1;spacing=4;treeFolding=1;treeMoving=1;newEdgeStyle={&quot;edgeStyle&quot;:&quot;entityRelationEdgeStyle&quot;,&quot;startArrow&quot;:&quot;none&quot;,&quot;endArrow&quot;:&quot;none&quot;,&quot;segment&quot;:10,&quot;curved&quot;:1,&quot;sourcePerimeterSpacing&quot;:0,&quot;targetPerimeterSpacing&quot;:0};fillColor=#cdeb8b;strokeColor=#36393d;" parent="milDW27EMtLCyHozFYjx-6" vertex="1" collapsed="1">
          <mxGeometry x="4" y="588" width="232" height="32" as="geometry" />
        </mxCell>
        <mxCell id="8YfRmtV6cL_evHmdfVGp-249" value="SecondaryoutletDamperValveClose" style="whiteSpace=wrap;html=1;rounded=1;arcSize=50;align=center;verticalAlign=middle;strokeWidth=1;autosize=1;spacing=4;treeFolding=1;treeMoving=1;newEdgeStyle={&quot;edgeStyle&quot;:&quot;entityRelationEdgeStyle&quot;,&quot;startArrow&quot;:&quot;none&quot;,&quot;endArrow&quot;:&quot;none&quot;,&quot;segment&quot;:10,&quot;curved&quot;:1,&quot;sourcePerimeterSpacing&quot;:0,&quot;targetPerimeterSpacing&quot;:0};fillColor=#cdeb8b;strokeColor=#36393d;" parent="milDW27EMtLCyHozFYjx-6" vertex="1" collapsed="1">
          <mxGeometry x="10" y="624" width="230" height="32" as="geometry" />
        </mxCell>
        <mxCell id="8YfRmtV6cL_evHmdfVGp-251" value="Legend" style="swimlane;whiteSpace=wrap;html=1;" parent="milDW27EMtLCyHozFYjx-6" vertex="1">
          <mxGeometry x="1904" y="906" width="264" height="198" as="geometry" />
        </mxCell>
        <mxCell id="8YfRmtV6cL_evHmdfVGp-252" value="Instance" style="rounded=1;whiteSpace=wrap;html=1;fillColor=#ffff88;strokeColor=#36393d;" parent="8YfRmtV6cL_evHmdfVGp-251" vertex="1">
          <mxGeometry x="20" y="48" width="120" height="14" as="geometry" />
        </mxCell>
        <mxCell id="8YfRmtV6cL_evHmdfVGp-253" value="Digital Input" style="rounded=1;whiteSpace=wrap;html=1;fillColor=#cdeb8b;strokeColor=#36393d;" parent="8YfRmtV6cL_evHmdfVGp-251" vertex="1">
          <mxGeometry x="20" y="70" width="120" height="14" as="geometry" />
        </mxCell>
        <mxCell id="8YfRmtV6cL_evHmdfVGp-254" value="Digital Output" style="rounded=1;whiteSpace=wrap;html=1;fillColor=#008a00;fontColor=#ffffff;strokeColor=#005700;" parent="8YfRmtV6cL_evHmdfVGp-251" vertex="1">
          <mxGeometry x="20" y="92" width="120" height="14" as="geometry" />
        </mxCell>
        <mxCell id="8YfRmtV6cL_evHmdfVGp-255" value="Analouge Input" style="rounded=1;whiteSpace=wrap;html=1;fillColor=#1ba1e2;fontColor=#ffffff;strokeColor=#006EAF;" parent="8YfRmtV6cL_evHmdfVGp-251" vertex="1">
          <mxGeometry x="20" y="114" width="120" height="14" as="geometry" />
        </mxCell>
        <mxCell id="8YfRmtV6cL_evHmdfVGp-256" value="Modbus" style="rounded=1;whiteSpace=wrap;html=1;fillColor=#ffcd28;gradientColor=#ffa500;strokeColor=#d79b00;" parent="8YfRmtV6cL_evHmdfVGp-251" vertex="1">
          <mxGeometry x="20" y="140" width="120" height="14" as="geometry" />
        </mxCell>
        <mxCell id="8YfRmtV6cL_evHmdfVGp-257" value="Alarm/Warning" style="rounded=1;whiteSpace=wrap;html=1;fillColor=#ffcccc;strokeColor=#36393d;" parent="8YfRmtV6cL_evHmdfVGp-251" vertex="1">
          <mxGeometry x="20" y="166" width="120" height="14" as="geometry" />
        </mxCell>
        <mxCell id="R2pfpIRXYTukhotHlzGh-2" style="edgeStyle=entityRelationEdgeStyle;rounded=0;orthogonalLoop=1;jettySize=auto;html=1;startArrow=none;endArrow=none;segment=10;curved=1;sourcePerimeterSpacing=0;targetPerimeterSpacing=0;entryX=1;entryY=0.5;entryDx=0;entryDy=0;" parent="milDW27EMtLCyHozFYjx-6" source="8YfRmtV6cL_evHmdfVGp-88" target="8YfRmtV6cL_evHmdfVGp-88" edge="1">
          <mxGeometry relative="1" as="geometry">
            <mxPoint x="699" y="341" as="targetPoint" />
          </mxGeometry>
        </mxCell>
        <mxCell id="R2pfpIRXYTukhotHlzGh-7" style="edgeStyle=entityRelationEdgeStyle;rounded=0;orthogonalLoop=1;jettySize=auto;html=1;startArrow=none;endArrow=none;segment=10;curved=1;sourcePerimeterSpacing=0;targetPerimeterSpacing=0;exitX=0.5;exitY=0;exitDx=0;exitDy=0;" parent="milDW27EMtLCyHozFYjx-6" source="R2pfpIRXYTukhotHlzGh-3" target="R2pfpIRXYTukhotHlzGh-6" edge="1">
          <mxGeometry relative="1" as="geometry">
            <mxPoint x="915" y="191.5" as="targetPoint" />
          </mxGeometry>
        </mxCell>
        <mxCell id="R2pfpIRXYTukhotHlzGh-9" style="edgeStyle=entityRelationEdgeStyle;rounded=0;orthogonalLoop=1;jettySize=auto;html=1;startArrow=none;endArrow=none;segment=10;curved=1;sourcePerimeterSpacing=0;targetPerimeterSpacing=0;entryX=0;entryY=0;entryDx=0;entryDy=0;" parent="milDW27EMtLCyHozFYjx-6" source="R2pfpIRXYTukhotHlzGh-3" target="milDW27EMtLCyHozFYjx-11" edge="1">
          <mxGeometry relative="1" as="geometry" />
        </mxCell>
        <mxCell id="R2pfpIRXYTukhotHlzGh-13" style="edgeStyle=entityRelationEdgeStyle;rounded=0;orthogonalLoop=1;jettySize=auto;html=1;startArrow=none;endArrow=none;segment=10;curved=1;sourcePerimeterSpacing=0;targetPerimeterSpacing=0;entryX=1;entryY=0.75;entryDx=0;entryDy=0;exitX=0.5;exitY=0;exitDx=0;exitDy=0;" parent="milDW27EMtLCyHozFYjx-6" source="R2pfpIRXYTukhotHlzGh-3" target="R2pfpIRXYTukhotHlzGh-10" edge="1">
          <mxGeometry relative="1" as="geometry" />
        </mxCell>
        <mxCell id="R2pfpIRXYTukhotHlzGh-3" value="InletAirSupply" style="whiteSpace=wrap;html=1;rounded=1;arcSize=50;align=center;verticalAlign=middle;strokeWidth=1;autosize=1;spacing=4;treeFolding=1;treeMoving=1;newEdgeStyle={&quot;edgeStyle&quot;:&quot;entityRelationEdgeStyle&quot;,&quot;startArrow&quot;:&quot;none&quot;,&quot;endArrow&quot;:&quot;none&quot;,&quot;segment&quot;:10,&quot;curved&quot;:1,&quot;sourcePerimeterSpacing&quot;:0,&quot;targetPerimeterSpacing&quot;:0};fillColor=#ffff88;strokeColor=#36393d;" parent="milDW27EMtLCyHozFYjx-6" vertex="1" collapsed="1">
          <mxGeometry x="874" y="206" width="182" height="56" as="geometry" />
        </mxCell>
        <mxCell id="R2pfpIRXYTukhotHlzGh-22" style="edgeStyle=entityRelationEdgeStyle;rounded=0;orthogonalLoop=1;jettySize=auto;html=1;startArrow=none;endArrow=none;segment=10;curved=1;sourcePerimeterSpacing=0;targetPerimeterSpacing=0;entryX=1;entryY=0.5;entryDx=0;entryDy=0;" parent="milDW27EMtLCyHozFYjx-6" source="R2pfpIRXYTukhotHlzGh-6" target="R2pfpIRXYTukhotHlzGh-21" edge="1">
          <mxGeometry relative="1" as="geometry" />
        </mxCell>
        <mxCell id="R2pfpIRXYTukhotHlzGh-6" value="InletValve(FV383)" style="whiteSpace=wrap;html=1;rounded=1;arcSize=50;align=center;verticalAlign=middle;strokeWidth=1;autosize=1;spacing=4;treeFolding=1;treeMoving=1;newEdgeStyle={&quot;edgeStyle&quot;:&quot;entityRelationEdgeStyle&quot;,&quot;startArrow&quot;:&quot;none&quot;,&quot;endArrow&quot;:&quot;none&quot;,&quot;segment&quot;:10,&quot;curved&quot;:1,&quot;sourcePerimeterSpacing&quot;:0,&quot;targetPerimeterSpacing&quot;:0};fillColor=#60a917;fontColor=#ffffff;strokeColor=#2D7600;" parent="milDW27EMtLCyHozFYjx-6" vertex="1" collapsed="1">
          <mxGeometry x="778" y="74" width="136" height="32" as="geometry" />
        </mxCell>
        <mxCell id="R2pfpIRXYTukhotHlzGh-30" style="edgeStyle=entityRelationEdgeStyle;rounded=0;orthogonalLoop=1;jettySize=auto;html=1;startArrow=none;endArrow=none;segment=10;curved=1;sourcePerimeterSpacing=0;targetPerimeterSpacing=0;exitX=1;exitY=0.75;exitDx=0;exitDy=0;" parent="milDW27EMtLCyHozFYjx-6" source="R2pfpIRXYTukhotHlzGh-8" target="8YfRmtV6cL_evHmdfVGp-91" edge="1">
          <mxGeometry relative="1" as="geometry" />
        </mxCell>
        <mxCell id="R2pfpIRXYTukhotHlzGh-8" value="DiffusreEnclousre" style="whiteSpace=wrap;html=1;rounded=1;arcSize=50;align=center;verticalAlign=middle;strokeWidth=1;autosize=1;spacing=4;treeFolding=1;treeMoving=1;newEdgeStyle={&quot;edgeStyle&quot;:&quot;entityRelationEdgeStyle&quot;,&quot;startArrow&quot;:&quot;none&quot;,&quot;endArrow&quot;:&quot;none&quot;,&quot;segment&quot;:10,&quot;curved&quot;:1,&quot;sourcePerimeterSpacing&quot;:0,&quot;targetPerimeterSpacing&quot;:0};fillColor=#ffff88;strokeColor=#36393d;" parent="milDW27EMtLCyHozFYjx-6" vertex="1" collapsed="1">
          <mxGeometry x="1416" y="302" width="176" height="56" as="geometry" />
        </mxCell>
        <mxCell id="R2pfpIRXYTukhotHlzGh-28" style="edgeStyle=entityRelationEdgeStyle;rounded=0;orthogonalLoop=1;jettySize=auto;html=1;startArrow=none;endArrow=none;segment=10;curved=1;sourcePerimeterSpacing=0;targetPerimeterSpacing=0;entryX=1;entryY=0.25;entryDx=0;entryDy=0;" parent="milDW27EMtLCyHozFYjx-6" source="R2pfpIRXYTukhotHlzGh-10" target="R2pfpIRXYTukhotHlzGh-23" edge="1">
          <mxGeometry relative="1" as="geometry" />
        </mxCell>
        <mxCell id="R2pfpIRXYTukhotHlzGh-29" style="edgeStyle=entityRelationEdgeStyle;rounded=0;orthogonalLoop=1;jettySize=auto;html=1;startArrow=none;endArrow=none;segment=10;curved=1;sourcePerimeterSpacing=0;targetPerimeterSpacing=0;entryX=1;entryY=0.25;entryDx=0;entryDy=0;" parent="milDW27EMtLCyHozFYjx-6" source="R2pfpIRXYTukhotHlzGh-10" target="R2pfpIRXYTukhotHlzGh-24" edge="1">
          <mxGeometry relative="1" as="geometry" />
        </mxCell>
        <mxCell id="R2pfpIRXYTukhotHlzGh-10" value="InletValve(FV382)" style="whiteSpace=wrap;html=1;rounded=1;arcSize=50;align=center;verticalAlign=middle;strokeWidth=1;autosize=1;spacing=4;treeFolding=1;treeMoving=1;newEdgeStyle={&quot;edgeStyle&quot;:&quot;entityRelationEdgeStyle&quot;,&quot;startArrow&quot;:&quot;none&quot;,&quot;endArrow&quot;:&quot;none&quot;,&quot;segment&quot;:10,&quot;curved&quot;:1,&quot;sourcePerimeterSpacing&quot;:0,&quot;targetPerimeterSpacing&quot;:0};fillColor=#60a917;fontColor=#ffffff;strokeColor=#2D7600;" parent="milDW27EMtLCyHozFYjx-6" vertex="1" collapsed="1">
          <mxGeometry x="778" y="116" width="136" height="32" as="geometry" />
        </mxCell>
        <mxCell id="R2pfpIRXYTukhotHlzGh-18" style="edgeStyle=entityRelationEdgeStyle;rounded=0;orthogonalLoop=1;jettySize=auto;html=1;startArrow=none;endArrow=none;segment=10;curved=1;sourcePerimeterSpacing=0;targetPerimeterSpacing=0;exitX=0;exitY=0.5;exitDx=0;exitDy=0;" parent="milDW27EMtLCyHozFYjx-6" source="R2pfpIRXYTukhotHlzGh-6" target="R2pfpIRXYTukhotHlzGh-19" edge="1">
          <mxGeometry relative="1" as="geometry">
            <mxPoint x="-37" y="1184" as="sourcePoint" />
            <mxPoint x="-87" y="1169.5" as="targetPoint" />
          </mxGeometry>
        </mxCell>
        <mxCell id="R2pfpIRXYTukhotHlzGh-19" value="InletValveOpen(FV383)" style="whiteSpace=wrap;html=1;rounded=1;arcSize=50;align=center;verticalAlign=middle;strokeWidth=1;autosize=1;spacing=4;treeFolding=1;treeMoving=1;newEdgeStyle={&quot;edgeStyle&quot;:&quot;entityRelationEdgeStyle&quot;,&quot;startArrow&quot;:&quot;none&quot;,&quot;endArrow&quot;:&quot;none&quot;,&quot;segment&quot;:10,&quot;curved&quot;:1,&quot;sourcePerimeterSpacing&quot;:0,&quot;targetPerimeterSpacing&quot;:0};fillColor=#cdeb8b;strokeColor=#36393d;" parent="milDW27EMtLCyHozFYjx-6" vertex="1" collapsed="1">
          <mxGeometry x="500" y="28" width="166" height="28" as="geometry" />
        </mxCell>
        <mxCell id="R2pfpIRXYTukhotHlzGh-21" value="InletValveClose(FV383)" style="whiteSpace=wrap;html=1;rounded=1;arcSize=50;align=center;verticalAlign=middle;strokeWidth=1;autosize=1;spacing=4;treeFolding=1;treeMoving=1;newEdgeStyle={&quot;edgeStyle&quot;:&quot;entityRelationEdgeStyle&quot;,&quot;startArrow&quot;:&quot;none&quot;,&quot;endArrow&quot;:&quot;none&quot;,&quot;segment&quot;:10,&quot;curved&quot;:1,&quot;sourcePerimeterSpacing&quot;:0,&quot;targetPerimeterSpacing&quot;:0};fillColor=#cdeb8b;strokeColor=#36393d;" parent="milDW27EMtLCyHozFYjx-6" vertex="1" collapsed="1">
          <mxGeometry x="498" y="59" width="166" height="32" as="geometry" />
        </mxCell>
        <mxCell id="R2pfpIRXYTukhotHlzGh-23" value="InletValveOpen(FV383)" style="whiteSpace=wrap;html=1;rounded=1;arcSize=50;align=center;verticalAlign=middle;strokeWidth=1;autosize=1;spacing=4;treeFolding=1;treeMoving=1;newEdgeStyle={&quot;edgeStyle&quot;:&quot;entityRelationEdgeStyle&quot;,&quot;startArrow&quot;:&quot;none&quot;,&quot;endArrow&quot;:&quot;none&quot;,&quot;segment&quot;:10,&quot;curved&quot;:1,&quot;sourcePerimeterSpacing&quot;:0,&quot;targetPerimeterSpacing&quot;:0};fillColor=#cdeb8b;strokeColor=#36393d;" parent="milDW27EMtLCyHozFYjx-6" vertex="1" collapsed="1">
          <mxGeometry x="501" y="94" width="166" height="28" as="geometry" />
        </mxCell>
        <mxCell id="R2pfpIRXYTukhotHlzGh-24" value="InletValveClose(FV383)" style="whiteSpace=wrap;html=1;rounded=1;arcSize=50;align=center;verticalAlign=middle;strokeWidth=1;autosize=1;spacing=4;treeFolding=1;treeMoving=1;newEdgeStyle={&quot;edgeStyle&quot;:&quot;entityRelationEdgeStyle&quot;,&quot;startArrow&quot;:&quot;none&quot;,&quot;endArrow&quot;:&quot;none&quot;,&quot;segment&quot;:10,&quot;curved&quot;:1,&quot;sourcePerimeterSpacing&quot;:0,&quot;targetPerimeterSpacing&quot;:0};fillColor=#cdeb8b;strokeColor=#36393d;" parent="milDW27EMtLCyHozFYjx-6" vertex="1" collapsed="1">
          <mxGeometry x="499" y="125" width="166" height="32" as="geometry" />
        </mxCell>
      </root>
    </mxGraphModel>
  </diagram>
  <diagram id="4NAKpxvgNQJE2-UT1lva" name="DiffusreEnclousre">
    <mxGraphModel dx="1834" dy="756" grid="1" gridSize="2" guides="1" tooltips="1" connect="1" arrows="1" fold="1" page="0" pageScale="1" pageWidth="827" pageHeight="1169" math="0" shadow="0">
      <root>
        <mxCell id="0" />
        <mxCell id="1" parent="0" />
        <mxCell id="op3heS3I_OR9kk4_aYjx-1" value="&lt;p style=&quot;margin:0px;margin-top:4px;text-align:center;&quot;&gt;&lt;i&gt;&amp;lt;&amp;lt;Interface&amp;gt;&amp;gt;&lt;/i&gt;&lt;br&gt;&lt;b&gt;IDiffusre&lt;/b&gt;&lt;/p&gt;&lt;hr size=&quot;1&quot;&gt;&lt;p style=&quot;margin:0px;margin-left:4px;&quot;&gt;+ CabinetExtractTemperature: Real&lt;br&gt;+ CabinetExtractPressure&amp;nbsp; &amp;nbsp; &amp;nbsp; : Real&lt;/p&gt;&lt;hr size=&quot;1&quot;&gt;&lt;p style=&quot;margin:0px;margin-left:4px;&quot;&gt;&lt;br&gt;&lt;/p&gt;" style="verticalAlign=top;align=left;overflow=fill;fontSize=12;fontFamily=Helvetica;html=1;whiteSpace=wrap;" parent="1" vertex="1">
          <mxGeometry x="-184" y="152" width="244" height="140" as="geometry" />
        </mxCell>
        <mxCell id="op3heS3I_OR9kk4_aYjx-2" value="&lt;p style=&quot;margin:0px;margin-top:4px;text-align:center;&quot;&gt;&lt;b&gt;CDiffusreController&lt;/b&gt;&lt;/p&gt;&lt;hr size=&quot;1&quot;&gt;&lt;p style=&quot;margin:0px;margin-left:4px;&quot;&gt;&lt;br&gt;&lt;/p&gt;&lt;hr size=&quot;1&quot;&gt;&lt;p style=&quot;margin:0px;margin-left:4px;&quot;&gt;+&lt;/p&gt;" style="verticalAlign=top;align=left;overflow=fill;fontSize=12;fontFamily=Helvetica;html=1;whiteSpace=wrap;" parent="1" vertex="1">
          <mxGeometry x="222" y="152" width="206" height="98" as="geometry" />
        </mxCell>
        <mxCell id="op3heS3I_OR9kk4_aYjx-3" value="" style="endArrow=block;dashed=1;endFill=0;endSize=12;html=1;rounded=0;" parent="1" edge="1">
          <mxGeometry width="160" relative="1" as="geometry">
            <mxPoint x="60" y="176" as="sourcePoint" />
            <mxPoint x="220" y="176" as="targetPoint" />
          </mxGeometry>
        </mxCell>
        <mxCell id="E3Pn54R361O_8yfuafKR-1" value="&lt;p style=&quot;margin:0px;margin-top:4px;text-align:center;&quot;&gt;CabinetExtractTempOkay(TC702)&lt;/p&gt;&lt;hr&gt;&lt;p&gt;&lt;/p&gt;&lt;p style=&quot;margin:0px;margin-left:8px;text-align:left;&quot;&gt;entry / ClearAlarm()&lt;br&gt;do /&amp;nbsp;&lt;br&gt;exit /&amp;nbsp;&lt;/p&gt;" style="shape=mxgraph.sysml.simpleState;html=1;overflow=fill;whiteSpace=wrap;align=center;fillColor=#fff2cc;strokeColor=#d6b656;" vertex="1" parent="1">
          <mxGeometry x="-192" y="364" width="200" height="100" as="geometry" />
        </mxCell>
        <mxCell id="E3Pn54R361O_8yfuafKR-2" value="TC702 &amp;gt;= 70deg&amp;nbsp;" style="edgeStyle=none;html=1;endArrow=open;endSize=12;strokeWidth=3;verticalAlign=bottom;rounded=0;entryX=0.2;entryY=0.1;entryDx=0;entryDy=0;entryPerimeter=0;" edge="1" parent="1">
          <mxGeometry width="160" relative="1" as="geometry">
            <mxPoint x="-149" y="464" as="sourcePoint" />
            <mxPoint x="-148" y="574" as="targetPoint" />
            <Array as="points">
              <mxPoint x="-149" y="484" />
              <mxPoint x="-148" y="534" />
            </Array>
          </mxGeometry>
        </mxCell>
        <mxCell id="E3Pn54R361O_8yfuafKR-3" value="&lt;p style=&quot;margin:0px;margin-top:4px;text-align:center;&quot;&gt;CabinetExtractTempHigh(TS102)&lt;/p&gt;&lt;hr&gt;&lt;p&gt;&lt;/p&gt;&lt;p style=&quot;margin:0px;margin-left:8px;text-align:left;&quot;&gt;entry / RaiseAlarm()&lt;br&gt;do /&amp;nbsp;&lt;br&gt;exit /&amp;nbsp;&lt;/p&gt;" style="shape=mxgraph.sysml.simpleState;html=1;overflow=fill;whiteSpace=wrap;align=center;fillColor=#e51400;strokeColor=#B20000;fontColor=#ffffff;" vertex="1" parent="1">
          <mxGeometry x="-192" y="574" width="200" height="100" as="geometry" />
        </mxCell>
        <mxCell id="E3Pn54R361O_8yfuafKR-4" value="TC702 &amp;lt; 70deg&amp;nbsp;" style="edgeStyle=none;html=1;endArrow=open;endSize=12;strokeWidth=3;verticalAlign=bottom;rounded=0;" edge="1" parent="1">
          <mxGeometry x="0.1667" y="-10" width="160" relative="1" as="geometry">
            <mxPoint x="-24" y="545" as="sourcePoint" />
            <mxPoint x="-24" y="465" as="targetPoint" />
            <Array as="points">
              <mxPoint x="-24" y="574" />
            </Array>
            <mxPoint as="offset" />
          </mxGeometry>
        </mxCell>
        <mxCell id="E3Pn54R361O_8yfuafKR-5" value="&lt;p style=&quot;margin:0px;margin-top:4px;text-align:center;&quot;&gt;CabinetExtractPressureOkay(PT302)&lt;/p&gt;&lt;hr&gt;&lt;p&gt;&lt;/p&gt;&lt;p style=&quot;margin:0px;margin-left:8px;text-align:left;&quot;&gt;entry / ClearAlarm()&lt;br&gt;do /&amp;nbsp;&lt;br&gt;exit /&amp;nbsp;&lt;/p&gt;" style="shape=mxgraph.sysml.simpleState;html=1;overflow=fill;whiteSpace=wrap;align=center;fillColor=#fff2cc;strokeColor=#d6b656;" vertex="1" parent="1">
          <mxGeometry x="214" y="362" width="200" height="100" as="geometry" />
        </mxCell>
        <mxCell id="E3Pn54R361O_8yfuafKR-6" value="PT302 &amp;lt;= 10pa&amp;nbsp;" style="edgeStyle=none;html=1;endArrow=open;endSize=12;strokeWidth=3;verticalAlign=bottom;rounded=0;entryX=0.2;entryY=0.1;entryDx=0;entryDy=0;entryPerimeter=0;" edge="1" parent="1">
          <mxGeometry width="160" relative="1" as="geometry">
            <mxPoint x="257" y="462" as="sourcePoint" />
            <mxPoint x="258" y="572" as="targetPoint" />
            <Array as="points">
              <mxPoint x="257" y="482" />
              <mxPoint x="258" y="532" />
            </Array>
          </mxGeometry>
        </mxCell>
        <mxCell id="E3Pn54R361O_8yfuafKR-7" value="&lt;p style=&quot;margin:0px;margin-top:4px;text-align:center;&quot;&gt;CabinetExtractPressureLow(PT302)&lt;/p&gt;&lt;hr&gt;&lt;p&gt;&lt;/p&gt;&lt;p style=&quot;margin:0px;margin-left:8px;text-align:left;&quot;&gt;entry / RaiseAlarm()&lt;br&gt;do /&amp;nbsp;&lt;br&gt;exit /&amp;nbsp;&lt;/p&gt;" style="shape=mxgraph.sysml.simpleState;html=1;overflow=fill;whiteSpace=wrap;align=center;fillColor=#e51400;strokeColor=#B20000;fontColor=#ffffff;" vertex="1" parent="1">
          <mxGeometry x="214" y="572" width="200" height="100" as="geometry" />
        </mxCell>
        <mxCell id="E3Pn54R361O_8yfuafKR-8" value="PT302 &amp;gt; 10pa&amp;nbsp;" style="edgeStyle=none;html=1;endArrow=open;endSize=12;strokeWidth=3;verticalAlign=bottom;rounded=0;" edge="1" parent="1">
          <mxGeometry x="0.1667" y="-10" width="160" relative="1" as="geometry">
            <mxPoint x="382" y="543" as="sourcePoint" />
            <mxPoint x="382" y="463" as="targetPoint" />
            <Array as="points">
              <mxPoint x="382" y="572" />
            </Array>
            <mxPoint as="offset" />
          </mxGeometry>
        </mxCell>
      </root>
    </mxGraphModel>
  </diagram>
  <diagram id="Rr_T0UThJ-qIpxV-RBs2" name="FanController">
    <mxGraphModel dx="1434" dy="756" grid="1" gridSize="10" guides="1" tooltips="1" connect="1" arrows="1" fold="1" page="1" pageScale="1" pageWidth="850" pageHeight="1100" math="0" shadow="0">
      <root>
        <mxCell id="0" />
        <mxCell id="1" parent="0" />
        <mxCell id="GDvUHPTmykQsJRJ7UCd4-11" value="&lt;p style=&quot;margin:0px;margin-top:4px;text-align:center;&quot;&gt;&lt;b&gt;CFanController&lt;/b&gt;&lt;/p&gt;&lt;hr size=&quot;1&quot;&gt;&lt;p style=&quot;margin:0px;margin-left:4px;&quot;&gt;&lt;br&gt;&lt;/p&gt;&lt;hr size=&quot;1&quot;&gt;&lt;p style=&quot;margin:0px;margin-left:4px;&quot;&gt;&lt;br&gt;&lt;/p&gt;" style="verticalAlign=top;align=left;overflow=fill;fontSize=12;fontFamily=Helvetica;html=1;whiteSpace=wrap;" parent="1" vertex="1">
          <mxGeometry x="490" y="130" width="160" height="90" as="geometry" />
        </mxCell>
        <mxCell id="GDvUHPTmykQsJRJ7UCd4-12" value="&lt;p style=&quot;margin:0px;margin-top:4px;text-align:center;&quot;&gt;&lt;i&gt;&amp;lt;&amp;lt;Interface&amp;gt;&amp;gt;&lt;/i&gt;&lt;br&gt;&lt;b&gt;IFanControl&lt;/b&gt;&lt;/p&gt;&lt;hr size=&quot;1&quot;&gt;&lt;p style=&quot;margin:0px;margin-left:4px;&quot;&gt;+ FanAccelerator: Real&lt;br&gt;+ FanWindingTemp1: Real&lt;/p&gt;&lt;p style=&quot;margin:0px;margin-left:4px;&quot;&gt;+ FanWindingTemp2: Real&lt;/p&gt;&lt;p style=&quot;margin:0px;margin-left:4px;&quot;&gt;&lt;span style=&quot;background-color: initial;&quot;&gt;+ FanBearingTemp1: Real&lt;/span&gt;&lt;br&gt;&lt;/p&gt;&lt;p style=&quot;margin:0px;margin-left:4px;&quot;&gt;+ FanBearingTemp2 :Real&lt;/p&gt;&lt;p style=&quot;margin:0px;margin-left:4px;&quot;&gt;+ FanFault : Real&lt;/p&gt;&lt;p style=&quot;margin:0px;margin-left:4px;&quot;&gt;+ FanMotorCurrent : Real&lt;/p&gt;&lt;p style=&quot;margin:0px;margin-left:4px;&quot;&gt;+ FanMotorshaftPower : Real&lt;/p&gt;&lt;p style=&quot;margin:0px;margin-left:4px;&quot;&gt;+ FanReady : Bool&lt;/p&gt;&lt;p style=&quot;margin:0px;margin-left:4px;&quot;&gt;+ FanRunning : Bool&lt;/p&gt;&lt;p style=&quot;margin:0px;margin-left:4px;&quot;&gt;+ FanSpeedFeedback : Real&lt;/p&gt;&lt;p style=&quot;margin:0px;margin-left:4px;&quot;&gt;&lt;br&gt;&lt;/p&gt;&lt;p style=&quot;margin:0px;margin-left:4px;&quot;&gt;&lt;br&gt;&lt;/p&gt;&lt;p style=&quot;margin:0px;margin-left:4px;&quot;&gt;&lt;br&gt;&lt;/p&gt;&lt;p style=&quot;margin:0px;margin-left:4px;&quot;&gt;&lt;br&gt;&lt;/p&gt;&lt;hr size=&quot;1&quot;&gt;&lt;p style=&quot;margin:0px;margin-left:4px;&quot;&gt;+ SetFanReferenceSpeed()&lt;br&gt;+ StartFan()&lt;/p&gt;&lt;p style=&quot;margin:0px;margin-left:4px;&quot;&gt;+StopFan()&lt;/p&gt;" style="verticalAlign=top;align=left;overflow=fill;fontSize=12;fontFamily=Helvetica;html=1;whiteSpace=wrap;" parent="1" vertex="1">
          <mxGeometry x="140" y="120" width="190" height="350" as="geometry" />
        </mxCell>
        <mxCell id="BRrrp5JPnRr7H1qJ5oyN-2" value="" style="endArrow=block;dashed=1;endFill=0;endSize=12;html=1;rounded=0;" parent="1" edge="1">
          <mxGeometry width="160" relative="1" as="geometry">
            <mxPoint x="330" y="150" as="sourcePoint" />
            <mxPoint x="490" y="150" as="targetPoint" />
          </mxGeometry>
        </mxCell>
      </root>
    </mxGraphModel>
  </diagram>
  <diagram id="xn8TCdQ_MCS-TlWCO_-u" name="DilutionSubSystem">
    <mxGraphModel dx="1434" dy="756" grid="1" gridSize="10" guides="1" tooltips="1" connect="1" arrows="1" fold="1" page="1" pageScale="1" pageWidth="850" pageHeight="1100" math="0" shadow="0">
      <root>
        <mxCell id="0" />
        <mxCell id="1" parent="0" />
        <mxCell id="maxn67T8bfU-ww77WbeH-1" value="&lt;p style=&quot;margin:0px;margin-top:4px;text-align:center;&quot;&gt;&lt;i&gt;&amp;lt;&amp;lt;Interface&amp;gt;&amp;gt;&lt;/i&gt;&lt;br&gt;&lt;b&gt;iDilution&lt;/b&gt;&lt;/p&gt;&lt;hr size=&quot;1&quot;&gt;&lt;p style=&quot;margin:0px;margin-left:4px;&quot;&gt;+ DilutionPressureSwitch: Bool&lt;br&gt;+ DilutionTempSwitch: Bool&lt;/p&gt;&lt;p style=&quot;margin:0px;margin-left:4px;&quot;&gt;+ ProcessInletTempSwitch : Bol&lt;/p&gt;&lt;p style=&quot;margin:0px;margin-left:4px;&quot;&gt;+ HydrogenMassFlowMeter : Real&lt;/p&gt;&lt;p style=&quot;margin:0px;margin-left:4px;&quot;&gt;+ StaticSensor : Bool&lt;/p&gt;&lt;p style=&quot;margin:0px;margin-left:4px;&quot;&gt;&lt;br&gt;&lt;/p&gt;&lt;hr size=&quot;1&quot;&gt;&lt;p style=&quot;margin:0px;margin-left:4px;&quot;&gt;&lt;br&gt;&lt;/p&gt;" style="verticalAlign=top;align=left;overflow=fill;fontSize=12;fontFamily=Helvetica;html=1;whiteSpace=wrap;" parent="1" vertex="1">
          <mxGeometry x="130" y="240" width="190" height="170" as="geometry" />
        </mxCell>
        <mxCell id="maxn67T8bfU-ww77WbeH-2" value="CDilutionSubsytemController" style="swimlane;fontStyle=0;childLayout=stackLayout;horizontal=1;startSize=26;fillColor=none;horizontalStack=0;resizeParent=1;resizeParentMax=0;resizeLast=0;collapsible=1;marginBottom=0;whiteSpace=wrap;html=1;" parent="1" vertex="1">
          <mxGeometry x="480" y="250" width="200" height="90" as="geometry" />
        </mxCell>
        <mxCell id="2wejgngAi4Y8h_MD3Ujt-1" value="" style="endArrow=block;dashed=1;endFill=0;endSize=12;html=1;rounded=0;" parent="1" edge="1">
          <mxGeometry width="160" relative="1" as="geometry">
            <mxPoint x="320" y="280" as="sourcePoint" />
            <mxPoint x="480" y="280" as="targetPoint" />
          </mxGeometry>
        </mxCell>
        <mxCell id="lnfRMaPzXmGFa-y5mBxu-23" value="&lt;p style=&quot;margin:0px;margin-top:4px;text-align:center;&quot;&gt;DilutionPressureOkay(PS102)&lt;/p&gt;&lt;hr&gt;&lt;p&gt;&lt;/p&gt;&lt;p style=&quot;margin:0px;margin-left:8px;text-align:left;&quot;&gt;entry / ClearAlarm()/ClearWarning()&lt;br&gt;do /&amp;nbsp;&lt;br&gt;exit /&amp;nbsp;&lt;/p&gt;" style="shape=mxgraph.sysml.simpleState;html=1;overflow=fill;whiteSpace=wrap;align=center;fillColor=#fff2cc;strokeColor=#d6b656;" vertex="1" parent="1">
          <mxGeometry x="1170" y="500" width="200" height="100" as="geometry" />
        </mxCell>
        <mxCell id="lnfRMaPzXmGFa-y5mBxu-27" value="&lt;p style=&quot;margin:0px;margin-top:4px;text-align:center;&quot;&gt;PressureNotOkay&lt;/p&gt;&lt;hr&gt;&lt;p&gt;&lt;/p&gt;&lt;p style=&quot;margin:0px;margin-left:8px;text-align:left;&quot;&gt;entry / RaiseWarning()&lt;br&gt;do / if FanRunningTime &amp;gt; T#30S&amp;nbsp; &amp;nbsp; &amp;nbsp; &amp;nbsp; &amp;nbsp; &amp;nbsp; &amp;nbsp; StartTimer()&lt;br&gt;exit /&amp;nbsp;&lt;/p&gt;" style="shape=mxgraph.sysml.simpleState;html=1;overflow=fill;whiteSpace=wrap;align=center;fillColor=#fa6800;fontColor=#000000;strokeColor=#C73500;" vertex="1" parent="1">
          <mxGeometry x="1170" y="700" width="200" height="100" as="geometry" />
        </mxCell>
        <mxCell id="lnfRMaPzXmGFa-y5mBxu-28" value="&lt;p style=&quot;margin:0px;margin-top:4px;text-align:center;&quot;&gt;LowPressureAlarm(PS102)&lt;/p&gt;&lt;hr&gt;&lt;p&gt;&lt;/p&gt;&lt;p style=&quot;margin:0px;margin-left:8px;text-align:left;&quot;&gt;entry / RaiseAlarm()/ ResetTimer()&lt;br&gt;do /&amp;nbsp;&lt;br&gt;exit /&amp;nbsp;&lt;/p&gt;" style="shape=mxgraph.sysml.simpleState;html=1;overflow=fill;whiteSpace=wrap;align=center;fillColor=#e51400;fontColor=#ffffff;strokeColor=#B20000;" vertex="1" parent="1">
          <mxGeometry x="1170" y="940" width="200" height="100" as="geometry" />
        </mxCell>
        <mxCell id="lnfRMaPzXmGFa-y5mBxu-29" value="ET &amp;gt; T#5S /SwitchToSecondary" style="edgeStyle=none;html=1;endArrow=open;endSize=12;strokeWidth=3;verticalAlign=bottom;rounded=0;" edge="1" parent="1">
          <mxGeometry width="160" relative="1" as="geometry">
            <mxPoint x="1269.5" y="800" as="sourcePoint" />
            <mxPoint x="1269.5" y="940" as="targetPoint" />
            <mxPoint as="offset" />
          </mxGeometry>
        </mxCell>
        <mxCell id="lnfRMaPzXmGFa-y5mBxu-30" value="PS102 &amp;lt;= 8mbar&amp;nbsp;" style="edgeStyle=none;html=1;endArrow=open;endSize=12;strokeWidth=3;verticalAlign=bottom;rounded=0;entryX=0.2;entryY=0.1;entryDx=0;entryDy=0;entryPerimeter=0;" edge="1" parent="1" target="lnfRMaPzXmGFa-y5mBxu-27">
          <mxGeometry width="160" relative="1" as="geometry">
            <mxPoint x="1209" y="600" as="sourcePoint" />
            <mxPoint x="1209" y="680" as="targetPoint" />
            <Array as="points">
              <mxPoint x="1209" y="620" />
            </Array>
          </mxGeometry>
        </mxCell>
        <mxCell id="lnfRMaPzXmGFa-y5mBxu-31" value="PS102 &amp;gt; 8mbar&amp;nbsp;" style="edgeStyle=none;html=1;endArrow=open;endSize=12;strokeWidth=3;verticalAlign=bottom;rounded=0;" edge="1" parent="1">
          <mxGeometry x="0.1667" y="-10" width="160" relative="1" as="geometry">
            <mxPoint x="1320" y="680" as="sourcePoint" />
            <mxPoint x="1320" y="600" as="targetPoint" />
            <Array as="points">
              <mxPoint x="1320" y="700" />
            </Array>
            <mxPoint as="offset" />
          </mxGeometry>
        </mxCell>
        <mxCell id="lnfRMaPzXmGFa-y5mBxu-32" value="PS102 &amp;gt; 8mbar &amp;amp; ResetAlarm&amp;nbsp;" style="edgeStyle=none;html=1;endArrow=open;endSize=12;strokeWidth=3;verticalAlign=bottom;rounded=0;exitX=1;exitY=0.5;exitDx=0;exitDy=0;exitPerimeter=0;" edge="1" parent="1" source="lnfRMaPzXmGFa-y5mBxu-28">
          <mxGeometry width="160" relative="1" as="geometry">
            <mxPoint x="1415" y="1019.5" as="sourcePoint" />
            <mxPoint x="1380" y="570" as="targetPoint" />
            <Array as="points">
              <mxPoint x="1540" y="990" />
              <mxPoint x="1540" y="570" />
              <mxPoint x="1460" y="570" />
            </Array>
          </mxGeometry>
        </mxCell>
        <mxCell id="lnfRMaPzXmGFa-y5mBxu-33" value="&lt;p style=&quot;margin:0px;margin-top:4px;text-align:center;&quot;&gt;ProcessInletTempOkay(TS101)&lt;/p&gt;&lt;hr&gt;&lt;p&gt;&lt;/p&gt;&lt;p style=&quot;margin:0px;margin-left:8px;text-align:left;&quot;&gt;entry / ClearAlarm()&lt;br&gt;do /&amp;nbsp;&lt;br&gt;exit /&amp;nbsp;&lt;/p&gt;" style="shape=mxgraph.sysml.simpleState;html=1;overflow=fill;whiteSpace=wrap;align=center;fillColor=#fff2cc;strokeColor=#d6b656;" vertex="1" parent="1">
          <mxGeometry x="850" y="490" width="200" height="100" as="geometry" />
        </mxCell>
        <mxCell id="lnfRMaPzXmGFa-y5mBxu-34" value="TS101 &amp;lt;= 70deg&amp;nbsp;" style="edgeStyle=none;html=1;endArrow=open;endSize=12;strokeWidth=3;verticalAlign=bottom;rounded=0;entryX=0.2;entryY=0.1;entryDx=0;entryDy=0;entryPerimeter=0;" edge="1" parent="1">
          <mxGeometry width="160" relative="1" as="geometry">
            <mxPoint x="893" y="590" as="sourcePoint" />
            <mxPoint x="894" y="700" as="targetPoint" />
            <Array as="points">
              <mxPoint x="893" y="610" />
              <mxPoint x="894" y="660" />
            </Array>
          </mxGeometry>
        </mxCell>
        <mxCell id="lnfRMaPzXmGFa-y5mBxu-35" value="&lt;p style=&quot;margin:0px;margin-top:4px;text-align:center;&quot;&gt;ProcessInletTempHigh(TS101)&lt;/p&gt;&lt;hr&gt;&lt;p&gt;&lt;/p&gt;&lt;p style=&quot;margin:0px;margin-left:8px;text-align:left;&quot;&gt;entry / RaiseAlarm()&lt;br&gt;do /&amp;nbsp;&lt;br&gt;exit /&amp;nbsp;&lt;/p&gt;" style="shape=mxgraph.sysml.simpleState;html=1;overflow=fill;whiteSpace=wrap;align=center;fillColor=#e51400;strokeColor=#B20000;fontColor=#ffffff;" vertex="1" parent="1">
          <mxGeometry x="850" y="700" width="200" height="100" as="geometry" />
        </mxCell>
        <mxCell id="lnfRMaPzXmGFa-y5mBxu-36" value="TS101 &amp;gt; 70deg&amp;nbsp;" style="edgeStyle=none;html=1;endArrow=open;endSize=12;strokeWidth=3;verticalAlign=bottom;rounded=0;" edge="1" parent="1">
          <mxGeometry x="0.1667" y="-10" width="160" relative="1" as="geometry">
            <mxPoint x="1018" y="671" as="sourcePoint" />
            <mxPoint x="1018" y="591" as="targetPoint" />
            <Array as="points">
              <mxPoint x="1018" y="700" />
            </Array>
            <mxPoint as="offset" />
          </mxGeometry>
        </mxCell>
        <mxCell id="lnfRMaPzXmGFa-y5mBxu-37" value="&lt;p style=&quot;margin:0px;margin-top:4px;text-align:center;&quot;&gt;DilutionTempOkay(TS102)&lt;/p&gt;&lt;hr&gt;&lt;p&gt;&lt;/p&gt;&lt;p style=&quot;margin:0px;margin-left:8px;text-align:left;&quot;&gt;entry / ClearAlarm()&lt;br&gt;do /&amp;nbsp;&lt;br&gt;exit /&amp;nbsp;&lt;/p&gt;" style="shape=mxgraph.sysml.simpleState;html=1;overflow=fill;whiteSpace=wrap;align=center;fillColor=#fff2cc;strokeColor=#d6b656;" vertex="1" parent="1">
          <mxGeometry x="590" y="490" width="200" height="100" as="geometry" />
        </mxCell>
        <mxCell id="lnfRMaPzXmGFa-y5mBxu-38" value="TS102 &amp;gt;= 70deg&amp;nbsp;" style="edgeStyle=none;html=1;endArrow=open;endSize=12;strokeWidth=3;verticalAlign=bottom;rounded=0;entryX=0.2;entryY=0.1;entryDx=0;entryDy=0;entryPerimeter=0;" edge="1" parent="1">
          <mxGeometry width="160" relative="1" as="geometry">
            <mxPoint x="633" y="590" as="sourcePoint" />
            <mxPoint x="634" y="700" as="targetPoint" />
            <Array as="points">
              <mxPoint x="633" y="610" />
              <mxPoint x="634" y="660" />
            </Array>
          </mxGeometry>
        </mxCell>
        <mxCell id="lnfRMaPzXmGFa-y5mBxu-39" value="&lt;p style=&quot;margin:0px;margin-top:4px;text-align:center;&quot;&gt;DilutionTemptTempHigh(TS102)&lt;/p&gt;&lt;hr&gt;&lt;p&gt;&lt;/p&gt;&lt;p style=&quot;margin:0px;margin-left:8px;text-align:left;&quot;&gt;entry / RaiseAlarm()&lt;br&gt;do /&amp;nbsp;&lt;br&gt;exit /&amp;nbsp;&lt;/p&gt;" style="shape=mxgraph.sysml.simpleState;html=1;overflow=fill;whiteSpace=wrap;align=center;fillColor=#e51400;strokeColor=#B20000;fontColor=#ffffff;" vertex="1" parent="1">
          <mxGeometry x="590" y="700" width="200" height="100" as="geometry" />
        </mxCell>
        <mxCell id="lnfRMaPzXmGFa-y5mBxu-40" value="TS102 &amp;lt; 70deg&amp;nbsp;" style="edgeStyle=none;html=1;endArrow=open;endSize=12;strokeWidth=3;verticalAlign=bottom;rounded=0;" edge="1" parent="1">
          <mxGeometry x="0.1667" y="-10" width="160" relative="1" as="geometry">
            <mxPoint x="758" y="671" as="sourcePoint" />
            <mxPoint x="758" y="591" as="targetPoint" />
            <Array as="points">
              <mxPoint x="758" y="700" />
            </Array>
            <mxPoint as="offset" />
          </mxGeometry>
        </mxCell>
        <mxCell id="lnfRMaPzXmGFa-y5mBxu-41" value="&lt;p style=&quot;margin:0px;margin-top:4px;text-align:center;&quot;&gt;StaticSensorOkay(VE108)&lt;/p&gt;&lt;hr&gt;&lt;p&gt;&lt;/p&gt;&lt;p style=&quot;margin:0px;margin-left:8px;text-align:left;&quot;&gt;entry / ClearAlarm()&lt;br&gt;do /&amp;nbsp;&lt;br&gt;exit /&amp;nbsp;&lt;/p&gt;" style="shape=mxgraph.sysml.simpleState;html=1;overflow=fill;whiteSpace=wrap;align=center;fillColor=#fff2cc;strokeColor=#d6b656;" vertex="1" parent="1">
          <mxGeometry x="330" y="490" width="200" height="100" as="geometry" />
        </mxCell>
        <mxCell id="lnfRMaPzXmGFa-y5mBxu-42" value="VE108 &amp;lt; -1000V 0r &amp;gt; 1000V&amp;nbsp;" style="edgeStyle=none;html=1;endArrow=open;endSize=12;strokeWidth=3;verticalAlign=bottom;rounded=0;entryX=0.2;entryY=0.1;entryDx=0;entryDy=0;entryPerimeter=0;" edge="1" parent="1">
          <mxGeometry width="160" relative="1" as="geometry">
            <mxPoint x="373" y="590" as="sourcePoint" />
            <mxPoint x="374" y="700" as="targetPoint" />
            <Array as="points">
              <mxPoint x="373" y="610" />
              <mxPoint x="374" y="660" />
            </Array>
          </mxGeometry>
        </mxCell>
        <mxCell id="lnfRMaPzXmGFa-y5mBxu-43" value="&lt;p style=&quot;margin:0px;margin-top:4px;text-align:center;&quot;&gt;DilutionTemptTempHigh(TS102)&lt;/p&gt;&lt;hr&gt;&lt;p&gt;&lt;/p&gt;&lt;p style=&quot;margin:0px;margin-left:8px;text-align:left;&quot;&gt;entry / RaiseAlarm()&lt;br&gt;do /&amp;nbsp;&lt;br&gt;exit /&amp;nbsp;&lt;/p&gt;" style="shape=mxgraph.sysml.simpleState;html=1;overflow=fill;whiteSpace=wrap;align=center;fillColor=#e51400;strokeColor=#B20000;fontColor=#ffffff;" vertex="1" parent="1">
          <mxGeometry x="330" y="700" width="200" height="100" as="geometry" />
        </mxCell>
        <mxCell id="lnfRMaPzXmGFa-y5mBxu-44" value="VE108&amp;gt; -1000V and &amp;lt;1000V&amp;nbsp;" style="edgeStyle=none;html=1;endArrow=open;endSize=12;strokeWidth=3;verticalAlign=bottom;rounded=0;" edge="1" parent="1">
          <mxGeometry x="-0.1449" y="-22" width="160" relative="1" as="geometry">
            <mxPoint x="498" y="671" as="sourcePoint" />
            <mxPoint x="498" y="591" as="targetPoint" />
            <Array as="points">
              <mxPoint x="498" y="700" />
            </Array>
            <mxPoint as="offset" />
          </mxGeometry>
        </mxCell>
      </root>
    </mxGraphModel>
  </diagram>
  <diagram id="SCIywS24lLD4Jex1si3d" name="ExhaustFeedbackController">
    <mxGraphModel dx="1434" dy="756" grid="1" gridSize="10" guides="1" tooltips="1" connect="1" arrows="1" fold="1" page="1" pageScale="1" pageWidth="850" pageHeight="1100" math="0" shadow="0">
      <root>
        <mxCell id="0" />
        <mxCell id="1" parent="0" />
        <mxCell id="Babick_-rVxHI0n04WxY-2" value="&lt;p style=&quot;margin:0px;margin-top:4px;text-align:center;&quot;&gt;&lt;i&gt;&amp;lt;&amp;lt;Interface&amp;gt;&amp;gt;&lt;/i&gt;&lt;br&gt;&lt;b&gt;IExhaustFeedback&lt;/b&gt;&lt;/p&gt;&lt;hr size=&quot;1&quot;&gt;&lt;p style=&quot;margin:0px;margin-left:4px;&quot;&gt;+ ExhaustPressure&amp;nbsp; &amp;nbsp; &amp;nbsp; &amp;nbsp; : Real&lt;br&gt;+ HydrogeConc_GD705: Real&lt;/p&gt;&lt;p style=&quot;margin:0px;margin-left:4px;&quot;&gt;+ Alarm1_GD705&amp;nbsp; &amp;nbsp; &amp;nbsp; &amp;nbsp; &amp;nbsp; : Bool&lt;/p&gt;&lt;p style=&quot;margin:0px;margin-left:4px;&quot;&gt;+ Alarm2_GD705&amp;nbsp; &amp;nbsp; &amp;nbsp; &amp;nbsp; &amp;nbsp; : Bool&lt;/p&gt;&lt;p style=&quot;margin:0px;margin-left:4px;&quot;&gt;+ Fault_GD705&amp;nbsp; &amp;nbsp; &amp;nbsp; &amp;nbsp; &amp;nbsp; &amp;nbsp; &amp;nbsp;: Bool&lt;/p&gt;&lt;p style=&quot;margin:0px;margin-left:4px;&quot;&gt;+ HydrogenConc_GD706 : Real&lt;/p&gt;&lt;p style=&quot;margin:0px;margin-left:4px;&quot;&gt;+ Alarm1_GD706&amp;nbsp; &amp;nbsp; &amp;nbsp; &amp;nbsp; &amp;nbsp; &amp;nbsp; &amp;nbsp; : Bool&lt;/p&gt;&lt;p style=&quot;margin:0px;margin-left:4px;&quot;&gt;+ Alarm2_GD706&amp;nbsp; &amp;nbsp; &amp;nbsp; &amp;nbsp; &amp;nbsp; &amp;nbsp; &amp;nbsp; : Bool&lt;/p&gt;&lt;p style=&quot;margin:0px;margin-left:4px;&quot;&gt;+ Fault_GD706&amp;nbsp; &amp;nbsp; &amp;nbsp; &amp;nbsp; &amp;nbsp; &amp;nbsp; &amp;nbsp; &amp;nbsp; &amp;nbsp; : Bool&lt;/p&gt;&lt;p style=&quot;margin:0px;margin-left:4px;&quot;&gt;&lt;br&gt;&lt;/p&gt;&lt;hr size=&quot;1&quot;&gt;&lt;p style=&quot;margin:0px;margin-left:4px;&quot;&gt;+ method1(Type): Type&lt;br&gt;+ method2(Type, Type): Type&lt;/p&gt;" style="verticalAlign=top;align=left;overflow=fill;fontSize=12;fontFamily=Helvetica;html=1;whiteSpace=wrap;" parent="1" vertex="1">
          <mxGeometry x="140" y="250" width="190" height="190" as="geometry" />
        </mxCell>
        <mxCell id="Babick_-rVxHI0n04WxY-3" value="" style="endArrow=block;dashed=1;endFill=0;endSize=12;html=1;rounded=0;" parent="1" edge="1">
          <mxGeometry width="160" relative="1" as="geometry">
            <mxPoint x="330" y="280" as="sourcePoint" />
            <mxPoint x="490" y="280" as="targetPoint" />
            <Array as="points">
              <mxPoint x="420" y="280" />
            </Array>
          </mxGeometry>
        </mxCell>
        <mxCell id="Babick_-rVxHI0n04WxY-4" value="CExhausteedbackController" style="swimlane;fontStyle=0;childLayout=stackLayout;horizontal=1;startSize=26;fillColor=none;horizontalStack=0;resizeParent=1;resizeParentMax=0;resizeLast=0;collapsible=1;marginBottom=0;whiteSpace=wrap;html=1;" parent="1" vertex="1">
          <mxGeometry x="490" y="250" width="170" height="52" as="geometry" />
        </mxCell>
        <mxCell id="lXTVrdF50wmQRHUhFGRa-1" value="&lt;p style=&quot;margin:0px;margin-top:4px;text-align:center;&quot;&gt;CabinetExtractPressure(PT701)&lt;/p&gt;&lt;hr&gt;&lt;p&gt;&lt;/p&gt;&lt;p style=&quot;margin:0px;margin-left:8px;text-align:left;&quot;&gt;entry / ClearAlarm()&lt;br&gt;do /&amp;nbsp;&lt;br&gt;exit /&amp;nbsp;&lt;/p&gt;" style="shape=mxgraph.sysml.simpleState;html=1;overflow=fill;whiteSpace=wrap;align=center;fillColor=#fff2cc;strokeColor=#d6b656;" vertex="1" parent="1">
          <mxGeometry x="210" y="520" width="200" height="100" as="geometry" />
        </mxCell>
        <mxCell id="lXTVrdF50wmQRHUhFGRa-2" value="PT701 &amp;lt;= 200Pa&amp;nbsp;" style="edgeStyle=none;html=1;endArrow=open;endSize=12;strokeWidth=3;verticalAlign=bottom;rounded=0;entryX=0.2;entryY=0.1;entryDx=0;entryDy=0;entryPerimeter=0;" edge="1" parent="1">
          <mxGeometry width="160" relative="1" as="geometry">
            <mxPoint x="253" y="620" as="sourcePoint" />
            <mxPoint x="254" y="730" as="targetPoint" />
            <Array as="points">
              <mxPoint x="253" y="640" />
              <mxPoint x="254" y="690" />
            </Array>
          </mxGeometry>
        </mxCell>
        <mxCell id="lXTVrdF50wmQRHUhFGRa-3" value="&lt;p style=&quot;margin:0px;margin-top:4px;text-align:center;&quot;&gt;CabinetExtractPressureLow(PT701)&lt;/p&gt;&lt;hr&gt;&lt;p&gt;&lt;/p&gt;&lt;p style=&quot;margin:0px;margin-left:8px;text-align:left;&quot;&gt;entry / RaiseAlarm()&lt;br&gt;do /&amp;nbsp;&lt;br&gt;exit /&amp;nbsp;&lt;/p&gt;" style="shape=mxgraph.sysml.simpleState;html=1;overflow=fill;whiteSpace=wrap;align=center;fillColor=#e51400;strokeColor=#B20000;fontColor=#ffffff;" vertex="1" parent="1">
          <mxGeometry x="210" y="730" width="200" height="100" as="geometry" />
        </mxCell>
        <mxCell id="lXTVrdF50wmQRHUhFGRa-4" value="PT701&amp;nbsp; &amp;gt; 200Pa" style="edgeStyle=none;html=1;endArrow=open;endSize=12;strokeWidth=3;verticalAlign=bottom;rounded=0;" edge="1" parent="1">
          <mxGeometry x="0.1667" y="-10" width="160" relative="1" as="geometry">
            <mxPoint x="378" y="701" as="sourcePoint" />
            <mxPoint x="378" y="621" as="targetPoint" />
            <Array as="points">
              <mxPoint x="378" y="730" />
            </Array>
            <mxPoint as="offset" />
          </mxGeometry>
        </mxCell>
        <mxCell id="lXTVrdF50wmQRHUhFGRa-5" value="&lt;p style=&quot;margin:0px;margin-top:4px;text-align:center;&quot;&gt;GD705-Alarm1&lt;/p&gt;&lt;hr&gt;&lt;p&gt;&lt;/p&gt;&lt;p style=&quot;margin:0px;margin-left:8px;text-align:left;&quot;&gt;entry / ClearAlarm()&lt;br&gt;do /&amp;nbsp;&lt;br&gt;exit /&amp;nbsp;&lt;/p&gt;" style="shape=mxgraph.sysml.simpleState;html=1;overflow=fill;whiteSpace=wrap;align=center;fillColor=#fff2cc;strokeColor=#d6b656;" vertex="1" parent="1">
          <mxGeometry x="495" y="520" width="200" height="100" as="geometry" />
        </mxCell>
        <mxCell id="lXTVrdF50wmQRHUhFGRa-6" value="GD705 &amp;gt;= 1%" style="edgeStyle=none;html=1;endArrow=open;endSize=12;strokeWidth=3;verticalAlign=bottom;rounded=0;entryX=0.2;entryY=0.1;entryDx=0;entryDy=0;entryPerimeter=0;" edge="1" parent="1">
          <mxGeometry width="160" relative="1" as="geometry">
            <mxPoint x="538" y="620" as="sourcePoint" />
            <mxPoint x="539" y="730" as="targetPoint" />
            <Array as="points">
              <mxPoint x="538" y="640" />
              <mxPoint x="539" y="690" />
            </Array>
          </mxGeometry>
        </mxCell>
        <mxCell id="lXTVrdF50wmQRHUhFGRa-7" value="&lt;p style=&quot;margin:0px;margin-top:4px;text-align:center;&quot;&gt;GD705-Alarm2&lt;/p&gt;&lt;hr&gt;&lt;p&gt;&lt;/p&gt;&lt;p style=&quot;margin:0px;margin-left:8px;text-align:left;&quot;&gt;entry / RaiseAlarm()&lt;br&gt;do /&amp;nbsp;&lt;br&gt;exit /&amp;nbsp;&lt;/p&gt;" style="shape=mxgraph.sysml.simpleState;html=1;overflow=fill;whiteSpace=wrap;align=center;fillColor=#e51400;strokeColor=#B20000;fontColor=#ffffff;" vertex="1" parent="1">
          <mxGeometry x="495" y="730" width="200" height="100" as="geometry" />
        </mxCell>
        <mxCell id="lXTVrdF50wmQRHUhFGRa-8" value="GD705 &amp;lt; 1%" style="edgeStyle=none;html=1;endArrow=open;endSize=12;strokeWidth=3;verticalAlign=bottom;rounded=0;" edge="1" parent="1">
          <mxGeometry x="0.1667" y="-10" width="160" relative="1" as="geometry">
            <mxPoint x="663" y="701" as="sourcePoint" />
            <mxPoint x="663" y="621" as="targetPoint" />
            <Array as="points">
              <mxPoint x="663" y="730" />
            </Array>
            <mxPoint as="offset" />
          </mxGeometry>
        </mxCell>
        <mxCell id="lXTVrdF50wmQRHUhFGRa-9" value="&lt;p style=&quot;margin:0px;margin-top:4px;text-align:center;&quot;&gt;GD705-Alarm2&lt;/p&gt;&lt;hr&gt;&lt;p&gt;&lt;/p&gt;&lt;p style=&quot;margin:0px;margin-left:8px;text-align:left;&quot;&gt;entry / ClearAlarm()&lt;br&gt;do /&amp;nbsp;&lt;br&gt;exit /&amp;nbsp;&lt;/p&gt;" style="shape=mxgraph.sysml.simpleState;html=1;overflow=fill;whiteSpace=wrap;align=center;fillColor=#fff2cc;strokeColor=#d6b656;" vertex="1" parent="1">
          <mxGeometry x="770" y="520" width="200" height="100" as="geometry" />
        </mxCell>
        <mxCell id="lXTVrdF50wmQRHUhFGRa-10" value="GD705 &amp;gt;= 1%" style="edgeStyle=none;html=1;endArrow=open;endSize=12;strokeWidth=3;verticalAlign=bottom;rounded=0;entryX=0.2;entryY=0.1;entryDx=0;entryDy=0;entryPerimeter=0;" edge="1" parent="1">
          <mxGeometry x="-0.0001" width="160" relative="1" as="geometry">
            <mxPoint x="813" y="620" as="sourcePoint" />
            <mxPoint x="814" y="730" as="targetPoint" />
            <Array as="points">
              <mxPoint x="813" y="640" />
              <mxPoint x="814" y="690" />
            </Array>
            <mxPoint as="offset" />
          </mxGeometry>
        </mxCell>
        <mxCell id="lXTVrdF50wmQRHUhFGRa-11" value="&lt;p style=&quot;margin:0px;margin-top:4px;text-align:center;&quot;&gt;GD705-Alarm2&lt;/p&gt;&lt;hr&gt;&lt;p&gt;&lt;/p&gt;&lt;p style=&quot;margin:0px;margin-left:8px;text-align:left;&quot;&gt;entry / RaiseAlarm()&lt;br&gt;do /&amp;nbsp;&lt;br&gt;exit /&amp;nbsp;&lt;/p&gt;" style="shape=mxgraph.sysml.simpleState;html=1;overflow=fill;whiteSpace=wrap;align=center;fillColor=#e51400;strokeColor=#B20000;fontColor=#ffffff;" vertex="1" parent="1">
          <mxGeometry x="770" y="730" width="200" height="100" as="geometry" />
        </mxCell>
        <mxCell id="lXTVrdF50wmQRHUhFGRa-12" value="GD705 &amp;lt; 1%" style="edgeStyle=none;html=1;endArrow=open;endSize=12;strokeWidth=3;verticalAlign=bottom;rounded=0;" edge="1" parent="1">
          <mxGeometry x="0.1667" y="-10" width="160" relative="1" as="geometry">
            <mxPoint x="938" y="701" as="sourcePoint" />
            <mxPoint x="938" y="621" as="targetPoint" />
            <Array as="points">
              <mxPoint x="938" y="730" />
            </Array>
            <mxPoint as="offset" />
          </mxGeometry>
        </mxCell>
        <mxCell id="lXTVrdF50wmQRHUhFGRa-13" value="&lt;p style=&quot;margin:0px;margin-top:4px;text-align:center;&quot;&gt;GD706-Alarm1&lt;/p&gt;&lt;hr&gt;&lt;p&gt;&lt;/p&gt;&lt;p style=&quot;margin:0px;margin-left:8px;text-align:left;&quot;&gt;entry / ClearAlarm()&lt;br&gt;do /&amp;nbsp;&lt;br&gt;exit /&amp;nbsp;&lt;/p&gt;" style="shape=mxgraph.sysml.simpleState;html=1;overflow=fill;whiteSpace=wrap;align=center;fillColor=#fff2cc;strokeColor=#d6b656;" vertex="1" parent="1">
          <mxGeometry x="495" y="870" width="200" height="100" as="geometry" />
        </mxCell>
        <mxCell id="lXTVrdF50wmQRHUhFGRa-14" value="GD706 &amp;gt;= 1%" style="edgeStyle=none;html=1;endArrow=open;endSize=12;strokeWidth=3;verticalAlign=bottom;rounded=0;entryX=0.2;entryY=0.1;entryDx=0;entryDy=0;entryPerimeter=0;" edge="1" parent="1">
          <mxGeometry width="160" relative="1" as="geometry">
            <mxPoint x="538" y="970" as="sourcePoint" />
            <mxPoint x="539" y="1080" as="targetPoint" />
            <Array as="points">
              <mxPoint x="538" y="990" />
              <mxPoint x="539" y="1040" />
            </Array>
          </mxGeometry>
        </mxCell>
        <mxCell id="lXTVrdF50wmQRHUhFGRa-15" value="&lt;p style=&quot;margin:0px;margin-top:4px;text-align:center;&quot;&gt;GD706-Alarm2&lt;/p&gt;&lt;hr&gt;&lt;p&gt;&lt;/p&gt;&lt;p style=&quot;margin:0px;margin-left:8px;text-align:left;&quot;&gt;entry / RaiseAlarm()&lt;br&gt;do /&amp;nbsp;&lt;br&gt;exit /&amp;nbsp;&lt;/p&gt;" style="shape=mxgraph.sysml.simpleState;html=1;overflow=fill;whiteSpace=wrap;align=center;fillColor=#e51400;strokeColor=#B20000;fontColor=#ffffff;" vertex="1" parent="1">
          <mxGeometry x="495" y="1080" width="200" height="100" as="geometry" />
        </mxCell>
        <mxCell id="lXTVrdF50wmQRHUhFGRa-16" value="GD706&amp;lt; 1%" style="edgeStyle=none;html=1;endArrow=open;endSize=12;strokeWidth=3;verticalAlign=bottom;rounded=0;" edge="1" parent="1">
          <mxGeometry x="0.1667" y="-10" width="160" relative="1" as="geometry">
            <mxPoint x="663" y="1051" as="sourcePoint" />
            <mxPoint x="663" y="971" as="targetPoint" />
            <Array as="points">
              <mxPoint x="663" y="1080" />
            </Array>
            <mxPoint as="offset" />
          </mxGeometry>
        </mxCell>
        <mxCell id="lXTVrdF50wmQRHUhFGRa-17" value="&lt;p style=&quot;margin:0px;margin-top:4px;text-align:center;&quot;&gt;GD706-Alarm2&lt;/p&gt;&lt;hr&gt;&lt;p&gt;&lt;/p&gt;&lt;p style=&quot;margin:0px;margin-left:8px;text-align:left;&quot;&gt;entry / ClearAlarm()&lt;br&gt;do /&amp;nbsp;&lt;br&gt;exit /&amp;nbsp;&lt;/p&gt;" style="shape=mxgraph.sysml.simpleState;html=1;overflow=fill;whiteSpace=wrap;align=center;fillColor=#fff2cc;strokeColor=#d6b656;" vertex="1" parent="1">
          <mxGeometry x="770" y="870" width="200" height="100" as="geometry" />
        </mxCell>
        <mxCell id="lXTVrdF50wmQRHUhFGRa-18" value="GD706 &amp;gt;= 1%" style="edgeStyle=none;html=1;endArrow=open;endSize=12;strokeWidth=3;verticalAlign=bottom;rounded=0;entryX=0.2;entryY=0.1;entryDx=0;entryDy=0;entryPerimeter=0;" edge="1" parent="1">
          <mxGeometry x="-0.0001" width="160" relative="1" as="geometry">
            <mxPoint x="813" y="970" as="sourcePoint" />
            <mxPoint x="814" y="1080" as="targetPoint" />
            <Array as="points">
              <mxPoint x="813" y="990" />
              <mxPoint x="814" y="1040" />
            </Array>
            <mxPoint as="offset" />
          </mxGeometry>
        </mxCell>
        <mxCell id="lXTVrdF50wmQRHUhFGRa-19" value="&lt;p style=&quot;margin:0px;margin-top:4px;text-align:center;&quot;&gt;GD706-Alarm2&lt;/p&gt;&lt;hr&gt;&lt;p&gt;&lt;/p&gt;&lt;p style=&quot;margin:0px;margin-left:8px;text-align:left;&quot;&gt;entry / RaiseAlarm()&lt;br&gt;do /&amp;nbsp;&lt;br&gt;exit /&amp;nbsp;&lt;/p&gt;" style="shape=mxgraph.sysml.simpleState;html=1;overflow=fill;whiteSpace=wrap;align=center;fillColor=#e51400;strokeColor=#B20000;fontColor=#ffffff;" vertex="1" parent="1">
          <mxGeometry x="770" y="1080" width="200" height="100" as="geometry" />
        </mxCell>
        <mxCell id="lXTVrdF50wmQRHUhFGRa-20" value="GD706 &amp;lt; 1%" style="edgeStyle=none;html=1;endArrow=open;endSize=12;strokeWidth=3;verticalAlign=bottom;rounded=0;" edge="1" parent="1">
          <mxGeometry x="0.1667" y="-10" width="160" relative="1" as="geometry">
            <mxPoint x="938" y="1051" as="sourcePoint" />
            <mxPoint x="938" y="971" as="targetPoint" />
            <Array as="points">
              <mxPoint x="938" y="1080" />
            </Array>
            <mxPoint as="offset" />
          </mxGeometry>
        </mxCell>
        <mxCell id="lXTVrdF50wmQRHUhFGRa-21" value="&lt;p style=&quot;margin:0px;margin-top:4px;text-align:center;&quot;&gt;GD705-SensorFault&lt;/p&gt;&lt;hr&gt;&lt;p&gt;&lt;/p&gt;&lt;p style=&quot;margin:0px;margin-left:8px;text-align:left;&quot;&gt;entry / ClearAlarm()&lt;br&gt;do /&amp;nbsp;&lt;br&gt;exit /&amp;nbsp;&lt;/p&gt;" style="shape=mxgraph.sysml.simpleState;html=1;overflow=fill;whiteSpace=wrap;align=center;fillColor=#fff2cc;strokeColor=#d6b656;" vertex="1" parent="1">
          <mxGeometry x="1014" y="520" width="200" height="100" as="geometry" />
        </mxCell>
        <mxCell id="lXTVrdF50wmQRHUhFGRa-22" value="Sensor Fault" style="edgeStyle=none;html=1;endArrow=open;endSize=12;strokeWidth=3;verticalAlign=bottom;rounded=0;entryX=0.2;entryY=0.1;entryDx=0;entryDy=0;entryPerimeter=0;" edge="1" parent="1">
          <mxGeometry width="160" relative="1" as="geometry">
            <mxPoint x="1057" y="620" as="sourcePoint" />
            <mxPoint x="1058" y="730" as="targetPoint" />
            <Array as="points">
              <mxPoint x="1057" y="640" />
              <mxPoint x="1058" y="690" />
            </Array>
          </mxGeometry>
        </mxCell>
        <mxCell id="lXTVrdF50wmQRHUhFGRa-23" value="&lt;p style=&quot;margin:0px;margin-top:4px;text-align:center;&quot;&gt;GD705-SensorFault&lt;/p&gt;&lt;hr&gt;&lt;p&gt;&lt;/p&gt;&lt;p style=&quot;margin:0px;margin-left:8px;text-align:left;&quot;&gt;entry / RaiseAlarm()&lt;br&gt;do /&amp;nbsp;&lt;br&gt;exit /&amp;nbsp;&lt;/p&gt;" style="shape=mxgraph.sysml.simpleState;html=1;overflow=fill;whiteSpace=wrap;align=center;fillColor=#e51400;strokeColor=#B20000;fontColor=#ffffff;" vertex="1" parent="1">
          <mxGeometry x="1014" y="730" width="200" height="100" as="geometry" />
        </mxCell>
        <mxCell id="lXTVrdF50wmQRHUhFGRa-24" value="Sensor okay" style="edgeStyle=none;html=1;endArrow=open;endSize=12;strokeWidth=3;verticalAlign=bottom;rounded=0;" edge="1" parent="1">
          <mxGeometry x="0.1667" y="-10" width="160" relative="1" as="geometry">
            <mxPoint x="1182" y="701" as="sourcePoint" />
            <mxPoint x="1182" y="621" as="targetPoint" />
            <Array as="points">
              <mxPoint x="1182" y="730" />
            </Array>
            <mxPoint as="offset" />
          </mxGeometry>
        </mxCell>
        <mxCell id="lXTVrdF50wmQRHUhFGRa-25" value="&lt;p style=&quot;margin:0px;margin-top:4px;text-align:center;&quot;&gt;HydrogenConcentration Okay&lt;/p&gt;&lt;hr&gt;&lt;p&gt;&lt;/p&gt;&lt;p style=&quot;margin:0px;margin-left:8px;text-align:left;&quot;&gt;entry / ClearAlarm()&lt;br&gt;do /&amp;nbsp;&lt;br&gt;exit /&amp;nbsp;&lt;/p&gt;" style="shape=mxgraph.sysml.simpleState;html=1;overflow=fill;whiteSpace=wrap;align=center;fillColor=#fff2cc;strokeColor=#d6b656;" vertex="1" parent="1">
          <mxGeometry x="745" y="1300" width="200" height="100" as="geometry" />
        </mxCell>
        <mxCell id="lXTVrdF50wmQRHUhFGRa-26" value="(GD705 -A1 or GD705-A2) And (GD706-A1 or GD706-A2)" style="edgeStyle=none;html=1;endArrow=open;endSize=12;strokeWidth=3;verticalAlign=bottom;rounded=0;entryX=0.2;entryY=0.1;entryDx=0;entryDy=0;entryPerimeter=0;" edge="1" parent="1">
          <mxGeometry x="0.055" y="-99" width="160" relative="1" as="geometry">
            <mxPoint x="788" y="1400" as="sourcePoint" />
            <mxPoint x="789" y="1510" as="targetPoint" />
            <Array as="points">
              <mxPoint x="788" y="1420" />
              <mxPoint x="789" y="1470" />
            </Array>
            <mxPoint as="offset" />
          </mxGeometry>
        </mxCell>
        <mxCell id="lXTVrdF50wmQRHUhFGRa-27" value="&lt;p style=&quot;margin:0px;margin-top:4px;text-align:center;&quot;&gt;HydrogenConcentration Alarm&lt;/p&gt;&lt;hr&gt;&lt;p&gt;&lt;/p&gt;&lt;p style=&quot;margin:0px;margin-left:8px;text-align:left;&quot;&gt;entry / RaiseAlarm()&lt;br&gt;do /&amp;nbsp;&lt;br&gt;exit /&amp;nbsp;&lt;/p&gt;" style="shape=mxgraph.sysml.simpleState;html=1;overflow=fill;whiteSpace=wrap;align=center;fillColor=#e51400;strokeColor=#B20000;fontColor=#ffffff;" vertex="1" parent="1">
          <mxGeometry x="745" y="1510" width="200" height="100" as="geometry" />
        </mxCell>
        <mxCell id="lXTVrdF50wmQRHUhFGRa-28" value="GD706&amp;nbsp; = No Alarm or GD706 = No Alarm" style="edgeStyle=none;html=1;endArrow=open;endSize=12;strokeWidth=3;verticalAlign=bottom;rounded=0;" edge="1" parent="1">
          <mxGeometry x="-0.1594" y="-7" width="160" relative="1" as="geometry">
            <mxPoint x="913" y="1481" as="sourcePoint" />
            <mxPoint x="913" y="1401" as="targetPoint" />
            <Array as="points">
              <mxPoint x="913" y="1510" />
            </Array>
            <mxPoint as="offset" />
          </mxGeometry>
        </mxCell>
        <mxCell id="lXTVrdF50wmQRHUhFGRa-29" value="&lt;p style=&quot;margin:0px;margin-top:4px;text-align:center;&quot;&gt;GD706-SensorFault&lt;/p&gt;&lt;hr&gt;&lt;p&gt;&lt;/p&gt;&lt;p style=&quot;margin:0px;margin-left:8px;text-align:left;&quot;&gt;entry / ClearAlarm()&lt;br&gt;do /&amp;nbsp;&lt;br&gt;exit /&amp;nbsp;&lt;/p&gt;" style="shape=mxgraph.sysml.simpleState;html=1;overflow=fill;whiteSpace=wrap;align=center;fillColor=#fff2cc;strokeColor=#d6b656;" vertex="1" parent="1">
          <mxGeometry x="1030" y="870" width="200" height="100" as="geometry" />
        </mxCell>
        <mxCell id="lXTVrdF50wmQRHUhFGRa-30" value="Sensor Fault" style="edgeStyle=none;html=1;endArrow=open;endSize=12;strokeWidth=3;verticalAlign=bottom;rounded=0;entryX=0.2;entryY=0.1;entryDx=0;entryDy=0;entryPerimeter=0;" edge="1" parent="1">
          <mxGeometry width="160" relative="1" as="geometry">
            <mxPoint x="1073" y="970" as="sourcePoint" />
            <mxPoint x="1074" y="1080" as="targetPoint" />
            <Array as="points">
              <mxPoint x="1073" y="990" />
              <mxPoint x="1074" y="1040" />
            </Array>
          </mxGeometry>
        </mxCell>
        <mxCell id="lXTVrdF50wmQRHUhFGRa-31" value="&lt;p style=&quot;margin:0px;margin-top:4px;text-align:center;&quot;&gt;GD706-SensorFault&lt;/p&gt;&lt;hr&gt;&lt;p&gt;&lt;/p&gt;&lt;p style=&quot;margin:0px;margin-left:8px;text-align:left;&quot;&gt;entry / RaiseAlarm()&lt;br&gt;do /&amp;nbsp;&lt;br&gt;exit /&amp;nbsp;&lt;/p&gt;" style="shape=mxgraph.sysml.simpleState;html=1;overflow=fill;whiteSpace=wrap;align=center;fillColor=#e51400;strokeColor=#B20000;fontColor=#ffffff;" vertex="1" parent="1">
          <mxGeometry x="1030" y="1080" width="200" height="100" as="geometry" />
        </mxCell>
        <mxCell id="lXTVrdF50wmQRHUhFGRa-32" value="Sensor okay" style="edgeStyle=none;html=1;endArrow=open;endSize=12;strokeWidth=3;verticalAlign=bottom;rounded=0;" edge="1" parent="1">
          <mxGeometry x="0.1667" y="-10" width="160" relative="1" as="geometry">
            <mxPoint x="1198" y="1051" as="sourcePoint" />
            <mxPoint x="1198" y="971" as="targetPoint" />
            <Array as="points">
              <mxPoint x="1198" y="1080" />
            </Array>
            <mxPoint as="offset" />
          </mxGeometry>
        </mxCell>
        <mxCell id="a0k_9ZMp39hqIt0pwrAp-5" value="&lt;p style=&quot;margin:0px;margin-top:4px;text-align:center;&quot;&gt;GD705&lt;/p&gt;&lt;hr&gt;&lt;p&gt;&lt;/p&gt;&lt;p style=&quot;margin:0px;margin-left:8px;text-align:left;&quot;&gt;entry / ClearAlarm()&lt;br&gt;do /&amp;nbsp;&lt;br&gt;exit /&amp;nbsp;&lt;/p&gt;" style="shape=mxgraph.sysml.simpleState;html=1;overflow=fill;whiteSpace=wrap;align=center;fillColor=#fff2cc;strokeColor=#d6b656;" vertex="1" parent="1">
          <mxGeometry x="1070" y="1310" width="200" height="100" as="geometry" />
        </mxCell>
        <mxCell id="a0k_9ZMp39hqIt0pwrAp-6" value="GD706 &amp;gt;= 2%&amp;nbsp; or GD705 &amp;gt;= 2%" style="edgeStyle=none;html=1;endArrow=open;endSize=12;strokeWidth=3;verticalAlign=bottom;rounded=0;entryX=0.2;entryY=0.1;entryDx=0;entryDy=0;entryPerimeter=0;" edge="1" parent="1">
          <mxGeometry x="-0.0886" y="6" width="160" relative="1" as="geometry">
            <mxPoint x="1113" y="1410" as="sourcePoint" />
            <mxPoint x="1114" y="1520" as="targetPoint" />
            <Array as="points">
              <mxPoint x="1113" y="1430" />
              <mxPoint x="1114" y="1480" />
            </Array>
            <mxPoint as="offset" />
          </mxGeometry>
        </mxCell>
        <mxCell id="a0k_9ZMp39hqIt0pwrAp-7" value="&lt;p style=&quot;margin:0px;margin-top:4px;text-align:center;&quot;&gt;GD705&lt;/p&gt;&lt;hr&gt;&lt;p&gt;&lt;/p&gt;&lt;p style=&quot;margin:0px;margin-left:8px;text-align:left;&quot;&gt;entry / RaiseAlarm()/Remove Okay signal&lt;br&gt;do /&amp;nbsp;&lt;br&gt;exit /&amp;nbsp;&lt;/p&gt;" style="shape=mxgraph.sysml.simpleState;html=1;overflow=fill;whiteSpace=wrap;align=center;fillColor=#e51400;strokeColor=#B20000;fontColor=#ffffff;" vertex="1" parent="1">
          <mxGeometry x="1070" y="1520" width="200" height="100" as="geometry" />
        </mxCell>
        <mxCell id="a0k_9ZMp39hqIt0pwrAp-8" value="GD706&amp;lt; 2% or GD705 &amp;lt; 2%" style="edgeStyle=none;html=1;endArrow=open;endSize=12;strokeWidth=3;verticalAlign=bottom;rounded=0;" edge="1" parent="1">
          <mxGeometry x="-0.1594" y="-22" width="160" relative="1" as="geometry">
            <mxPoint x="1238" y="1491" as="sourcePoint" />
            <mxPoint x="1238" y="1411" as="targetPoint" />
            <Array as="points">
              <mxPoint x="1238" y="1520" />
            </Array>
            <mxPoint as="offset" />
          </mxGeometry>
        </mxCell>
        <mxCell id="a0k_9ZMp39hqIt0pwrAp-11" value="GD705&amp;lt; 2% AND GD706 &amp;lt; 2%/ Send Okay Signal" style="edgeStyle=none;html=1;endArrow=open;endSize=12;strokeWidth=3;verticalAlign=bottom;rounded=0;exitX=1.005;exitY=0.59;exitDx=0;exitDy=0;exitPerimeter=0;" edge="1" parent="1" source="a0k_9ZMp39hqIt0pwrAp-7">
          <mxGeometry x="-0.3192" y="-30" width="160" relative="1" as="geometry">
            <mxPoint x="1370" y="1590" as="sourcePoint" />
            <mxPoint x="1270" y="1380" as="targetPoint" />
            <Array as="points">
              <mxPoint x="1360" y="1580" />
              <mxPoint x="1360" y="1380" />
            </Array>
            <mxPoint as="offset" />
          </mxGeometry>
        </mxCell>
      </root>
    </mxGraphModel>
  </diagram>
  <diagram id="dLqM8_xBIkk4OBueAg9e" name="FanSubSuystemController">
    <mxGraphModel dx="1434" dy="756" grid="1" gridSize="10" guides="1" tooltips="1" connect="1" arrows="1" fold="1" page="1" pageScale="1" pageWidth="850" pageHeight="1100" math="0" shadow="0">
      <root>
        <mxCell id="0" />
        <mxCell id="1" parent="0" />
        <mxCell id="FgCiY2FcbL8b_KzG13xN-13" value="CFanSubSystemController" style="swimlane;fontStyle=0;childLayout=stackLayout;horizontal=1;startSize=26;fillColor=none;horizontalStack=0;resizeParent=1;resizeParentMax=0;resizeLast=0;collapsible=1;marginBottom=0;whiteSpace=wrap;html=1;" parent="1" vertex="1">
          <mxGeometry x="230" y="210" width="290" height="104" as="geometry">
            <mxRectangle x="230" y="210" width="180" height="30" as="alternateBounds" />
          </mxGeometry>
        </mxCell>
        <mxCell id="FgCiY2FcbL8b_KzG13xN-14" value="+ PrimaryFanController: FanController" style="text;strokeColor=none;fillColor=none;align=left;verticalAlign=top;spacingLeft=4;spacingRight=4;overflow=hidden;rotatable=0;points=[[0,0.5],[1,0.5]];portConstraint=eastwest;whiteSpace=wrap;html=1;" parent="FgCiY2FcbL8b_KzG13xN-13" vertex="1">
          <mxGeometry y="26" width="290" height="26" as="geometry" />
        </mxCell>
        <mxCell id="FgCiY2FcbL8b_KzG13xN-15" value="+ SecondaryFanController: FanController" style="text;strokeColor=none;fillColor=none;align=left;verticalAlign=top;spacingLeft=4;spacingRight=4;overflow=hidden;rotatable=0;points=[[0,0.5],[1,0.5]];portConstraint=eastwest;whiteSpace=wrap;html=1;" parent="FgCiY2FcbL8b_KzG13xN-13" vertex="1">
          <mxGeometry y="52" width="290" height="26" as="geometry" />
        </mxCell>
        <mxCell id="FgCiY2FcbL8b_KzG13xN-16" value="+ PrimaryOutletDamperValve: CFeedbackValve" style="text;strokeColor=none;fillColor=none;align=left;verticalAlign=top;spacingLeft=4;spacingRight=4;overflow=hidden;rotatable=0;points=[[0,0.5],[1,0.5]];portConstraint=eastwest;whiteSpace=wrap;html=1;" parent="FgCiY2FcbL8b_KzG13xN-13" vertex="1">
          <mxGeometry y="78" width="290" height="26" as="geometry" />
        </mxCell>
        <mxCell id="Ekxoqn4hrEjeuFra81TH-1" value="+ SecondaryOutletDamperValve: CFeedbackValve" style="text;strokeColor=none;fillColor=none;align=left;verticalAlign=top;spacingLeft=4;spacingRight=4;overflow=hidden;rotatable=0;points=[[0,0.5],[1,0.5]];portConstraint=eastwest;whiteSpace=wrap;html=1;" parent="1" vertex="1">
          <mxGeometry x="230" y="314" width="290" height="26" as="geometry" />
        </mxCell>
      </root>
    </mxGraphModel>
  </diagram>
  <diagram id="gaeoU5mlcv3bUiePqdjp" name="H2DExtractController">
    <mxGraphModel dx="1434" dy="756" grid="1" gridSize="10" guides="1" tooltips="1" connect="1" arrows="1" fold="1" page="1" pageScale="1" pageWidth="850" pageHeight="1100" math="0" shadow="0">
      <root>
        <mxCell id="0" />
        <mxCell id="1" parent="0" />
        <mxCell id="fompYzjAIG2faMZZVp-_-1" value="&lt;p style=&quot;margin:0px;margin-top:4px;text-align:center;&quot;&gt;&lt;i&gt;&amp;lt;&amp;lt;Interface&amp;gt;&amp;gt;&lt;/i&gt;&lt;br&gt;&lt;b&gt;IH2DExtract&lt;/b&gt;&lt;/p&gt;&lt;hr size=&quot;1&quot;&gt;&lt;p style=&quot;margin:0px;margin-left:4px;&quot;&gt;+ CabinetExtractPressure: Real&lt;br&gt;+ HydrogenConcentration: Real&lt;/p&gt;&lt;hr size=&quot;1&quot;&gt;&lt;p style=&quot;margin:0px;margin-left:4px;&quot;&gt;&lt;br&gt;&lt;/p&gt;" style="verticalAlign=top;align=left;overflow=fill;fontSize=12;fontFamily=Helvetica;html=1;whiteSpace=wrap;" parent="1" vertex="1">
          <mxGeometry x="110" y="130" width="190" height="140" as="geometry" />
        </mxCell>
        <mxCell id="fompYzjAIG2faMZZVp-_-3" value="" style="endArrow=block;dashed=1;endFill=0;endSize=12;html=1;rounded=0;" parent="1" edge="1">
          <mxGeometry width="160" relative="1" as="geometry">
            <mxPoint x="300" y="150" as="sourcePoint" />
            <mxPoint x="460" y="150" as="targetPoint" />
          </mxGeometry>
        </mxCell>
        <mxCell id="fompYzjAIG2faMZZVp-_-4" value="CH2DExtractController" style="swimlane;fontStyle=0;childLayout=stackLayout;horizontal=1;startSize=26;fillColor=none;horizontalStack=0;resizeParent=1;resizeParentMax=0;resizeLast=0;collapsible=1;marginBottom=0;whiteSpace=wrap;html=1;" parent="1" vertex="1">
          <mxGeometry x="460" y="130" width="140" height="80" as="geometry" />
        </mxCell>
        <mxCell id="Vf_aAtqTYQIoOuCNI1_O-1" value="&lt;p style=&quot;margin:0px;margin-top:4px;text-align:center;&quot;&gt;CabinetExtractPressure(PT301)&lt;/p&gt;&lt;hr&gt;&lt;p&gt;&lt;/p&gt;&lt;p style=&quot;margin:0px;margin-left:8px;text-align:left;&quot;&gt;entry / ClearAlarm()&lt;br&gt;do /&amp;nbsp;&lt;br&gt;exit /&amp;nbsp;&lt;/p&gt;" style="shape=mxgraph.sysml.simpleState;html=1;overflow=fill;whiteSpace=wrap;align=center;fillColor=#fff2cc;strokeColor=#d6b656;" vertex="1" parent="1">
          <mxGeometry x="150" y="320" width="200" height="100" as="geometry" />
        </mxCell>
        <mxCell id="Vf_aAtqTYQIoOuCNI1_O-2" value="PT301 &amp;lt;= 10Pa&amp;nbsp;" style="edgeStyle=none;html=1;endArrow=open;endSize=12;strokeWidth=3;verticalAlign=bottom;rounded=0;entryX=0.2;entryY=0.1;entryDx=0;entryDy=0;entryPerimeter=0;" edge="1" parent="1">
          <mxGeometry width="160" relative="1" as="geometry">
            <mxPoint x="193" y="420" as="sourcePoint" />
            <mxPoint x="194" y="530" as="targetPoint" />
            <Array as="points">
              <mxPoint x="193" y="440" />
              <mxPoint x="194" y="490" />
            </Array>
          </mxGeometry>
        </mxCell>
        <mxCell id="Vf_aAtqTYQIoOuCNI1_O-3" value="&lt;p style=&quot;margin:0px;margin-top:4px;text-align:center;&quot;&gt;CabinetExtractPressureLow(PT701)&lt;/p&gt;&lt;hr&gt;&lt;p&gt;&lt;/p&gt;&lt;p style=&quot;margin:0px;margin-left:8px;text-align:left;&quot;&gt;entry / RaiseAlarm()&lt;br&gt;do /&amp;nbsp;&lt;br&gt;exit /&amp;nbsp;&lt;/p&gt;" style="shape=mxgraph.sysml.simpleState;html=1;overflow=fill;whiteSpace=wrap;align=center;fillColor=#e51400;strokeColor=#B20000;fontColor=#ffffff;" vertex="1" parent="1">
          <mxGeometry x="150" y="530" width="200" height="100" as="geometry" />
        </mxCell>
        <mxCell id="Vf_aAtqTYQIoOuCNI1_O-4" value="PT301&amp;nbsp; &amp;gt; 10Pa" style="edgeStyle=none;html=1;endArrow=open;endSize=12;strokeWidth=3;verticalAlign=bottom;rounded=0;" edge="1" parent="1">
          <mxGeometry x="0.1667" y="-10" width="160" relative="1" as="geometry">
            <mxPoint x="318" y="501" as="sourcePoint" />
            <mxPoint x="318" y="421" as="targetPoint" />
            <Array as="points">
              <mxPoint x="318" y="530" />
            </Array>
            <mxPoint as="offset" />
          </mxGeometry>
        </mxCell>
        <mxCell id="Vf_aAtqTYQIoOuCNI1_O-11" value="&lt;p style=&quot;margin:0px;margin-top:4px;text-align:center;&quot;&gt;GD306-Alarm1&lt;/p&gt;&lt;hr&gt;&lt;p&gt;&lt;/p&gt;&lt;p style=&quot;margin:0px;margin-left:8px;text-align:left;&quot;&gt;entry / ClearAlarm()&lt;br&gt;do /&amp;nbsp;&lt;br&gt;exit /&amp;nbsp;&lt;/p&gt;" style="shape=mxgraph.sysml.simpleState;html=1;overflow=fill;whiteSpace=wrap;align=center;fillColor=#fff2cc;strokeColor=#d6b656;" vertex="1" parent="1">
          <mxGeometry x="430" y="320" width="200" height="100" as="geometry" />
        </mxCell>
        <mxCell id="Vf_aAtqTYQIoOuCNI1_O-12" value="GD306 &amp;gt;= 1%" style="edgeStyle=none;html=1;endArrow=open;endSize=12;strokeWidth=3;verticalAlign=bottom;rounded=0;entryX=0.2;entryY=0.1;entryDx=0;entryDy=0;entryPerimeter=0;" edge="1" parent="1">
          <mxGeometry width="160" relative="1" as="geometry">
            <mxPoint x="473" y="420" as="sourcePoint" />
            <mxPoint x="474" y="530" as="targetPoint" />
            <Array as="points">
              <mxPoint x="473" y="440" />
              <mxPoint x="474" y="490" />
            </Array>
          </mxGeometry>
        </mxCell>
        <mxCell id="Vf_aAtqTYQIoOuCNI1_O-13" value="&lt;p style=&quot;margin:0px;margin-top:4px;text-align:center;&quot;&gt;GD306-Alarm2&lt;/p&gt;&lt;hr&gt;&lt;p&gt;&lt;/p&gt;&lt;p style=&quot;margin:0px;margin-left:8px;text-align:left;&quot;&gt;entry / RaiseAlarm()&lt;br&gt;do /&amp;nbsp;&lt;br&gt;exit /&amp;nbsp;&lt;/p&gt;" style="shape=mxgraph.sysml.simpleState;html=1;overflow=fill;whiteSpace=wrap;align=center;fillColor=#e51400;strokeColor=#B20000;fontColor=#ffffff;" vertex="1" parent="1">
          <mxGeometry x="430" y="530" width="200" height="100" as="geometry" />
        </mxCell>
        <mxCell id="Vf_aAtqTYQIoOuCNI1_O-14" value="GD306 &amp;lt; 1%" style="edgeStyle=none;html=1;endArrow=open;endSize=12;strokeWidth=3;verticalAlign=bottom;rounded=0;" edge="1" parent="1">
          <mxGeometry x="0.1449" y="-32" width="160" relative="1" as="geometry">
            <mxPoint x="598" y="501" as="sourcePoint" />
            <mxPoint x="598" y="421" as="targetPoint" />
            <Array as="points">
              <mxPoint x="598" y="530" />
            </Array>
            <mxPoint as="offset" />
          </mxGeometry>
        </mxCell>
        <mxCell id="Vf_aAtqTYQIoOuCNI1_O-15" value="&lt;p style=&quot;margin:0px;margin-top:4px;text-align:center;&quot;&gt;GD306-Alarm2&lt;/p&gt;&lt;hr&gt;&lt;p&gt;&lt;/p&gt;&lt;p style=&quot;margin:0px;margin-left:8px;text-align:left;&quot;&gt;entry / ClearAlarm()&lt;br&gt;do /&amp;nbsp;&lt;br&gt;exit /&amp;nbsp;&lt;/p&gt;" style="shape=mxgraph.sysml.simpleState;html=1;overflow=fill;whiteSpace=wrap;align=center;fillColor=#fff2cc;strokeColor=#d6b656;" vertex="1" parent="1">
          <mxGeometry x="670" y="320" width="200" height="100" as="geometry" />
        </mxCell>
        <mxCell id="Vf_aAtqTYQIoOuCNI1_O-16" value="GD306 &amp;gt;= 1%" style="edgeStyle=none;html=1;endArrow=open;endSize=12;strokeWidth=3;verticalAlign=bottom;rounded=0;entryX=0.2;entryY=0.1;entryDx=0;entryDy=0;entryPerimeter=0;" edge="1" parent="1">
          <mxGeometry width="160" relative="1" as="geometry">
            <mxPoint x="713" y="420" as="sourcePoint" />
            <mxPoint x="714" y="530" as="targetPoint" />
            <Array as="points">
              <mxPoint x="713" y="440" />
              <mxPoint x="714" y="490" />
            </Array>
          </mxGeometry>
        </mxCell>
        <mxCell id="Vf_aAtqTYQIoOuCNI1_O-17" value="&lt;p style=&quot;margin:0px;margin-top:4px;text-align:center;&quot;&gt;GD306-Alarm2&lt;/p&gt;&lt;hr&gt;&lt;p&gt;&lt;/p&gt;&lt;p style=&quot;margin:0px;margin-left:8px;text-align:left;&quot;&gt;entry / RaiseAlarm()&lt;br&gt;do /&amp;nbsp;&lt;br&gt;exit /&amp;nbsp;&lt;/p&gt;" style="shape=mxgraph.sysml.simpleState;html=1;overflow=fill;whiteSpace=wrap;align=center;fillColor=#e51400;strokeColor=#B20000;fontColor=#ffffff;" vertex="1" parent="1">
          <mxGeometry x="670" y="530" width="200" height="100" as="geometry" />
        </mxCell>
        <mxCell id="Vf_aAtqTYQIoOuCNI1_O-18" value="GD306 &amp;lt; 1%" style="edgeStyle=none;html=1;endArrow=open;endSize=12;strokeWidth=3;verticalAlign=bottom;rounded=0;" edge="1" parent="1">
          <mxGeometry x="0.1449" y="-32" width="160" relative="1" as="geometry">
            <mxPoint x="838" y="501" as="sourcePoint" />
            <mxPoint x="838" y="421" as="targetPoint" />
            <Array as="points">
              <mxPoint x="838" y="530" />
            </Array>
            <mxPoint as="offset" />
          </mxGeometry>
        </mxCell>
        <mxCell id="Vf_aAtqTYQIoOuCNI1_O-19" value="&lt;p style=&quot;margin:0px;margin-top:4px;text-align:center;&quot;&gt;GD306-Sensor fault&lt;/p&gt;&lt;hr&gt;&lt;p&gt;&lt;/p&gt;&lt;p style=&quot;margin:0px;margin-left:8px;text-align:left;&quot;&gt;entry / ClearAlarm()&lt;br&gt;do /&amp;nbsp;&lt;br&gt;exit /&amp;nbsp;&lt;/p&gt;" style="shape=mxgraph.sysml.simpleState;html=1;overflow=fill;whiteSpace=wrap;align=center;fillColor=#fff2cc;strokeColor=#d6b656;" vertex="1" parent="1">
          <mxGeometry x="910" y="320" width="200" height="100" as="geometry" />
        </mxCell>
        <mxCell id="Vf_aAtqTYQIoOuCNI1_O-20" value="Sensor Fault signal" style="edgeStyle=none;html=1;endArrow=open;endSize=12;strokeWidth=3;verticalAlign=bottom;rounded=0;entryX=0.2;entryY=0.1;entryDx=0;entryDy=0;entryPerimeter=0;" edge="1" parent="1">
          <mxGeometry width="160" relative="1" as="geometry">
            <mxPoint x="953" y="420" as="sourcePoint" />
            <mxPoint x="954" y="530" as="targetPoint" />
            <Array as="points">
              <mxPoint x="953" y="440" />
              <mxPoint x="954" y="490" />
            </Array>
          </mxGeometry>
        </mxCell>
        <mxCell id="Vf_aAtqTYQIoOuCNI1_O-21" value="&lt;p style=&quot;margin:0px;margin-top:4px;text-align:center;&quot;&gt;GD306-Alarm2&lt;/p&gt;&lt;hr&gt;&lt;p&gt;&lt;/p&gt;&lt;p style=&quot;margin:0px;margin-left:8px;text-align:left;&quot;&gt;entry / RaiseAlarm()&lt;br&gt;do /&amp;nbsp;&lt;br&gt;exit /&amp;nbsp;&lt;/p&gt;" style="shape=mxgraph.sysml.simpleState;html=1;overflow=fill;whiteSpace=wrap;align=center;fillColor=#e51400;strokeColor=#B20000;fontColor=#ffffff;" vertex="1" parent="1">
          <mxGeometry x="910" y="530" width="200" height="100" as="geometry" />
        </mxCell>
        <mxCell id="Vf_aAtqTYQIoOuCNI1_O-22" value="Sensor okay" style="edgeStyle=none;html=1;endArrow=open;endSize=12;strokeWidth=3;verticalAlign=bottom;rounded=0;" edge="1" parent="1">
          <mxGeometry x="0.1449" y="-12" width="160" relative="1" as="geometry">
            <mxPoint x="1078" y="501" as="sourcePoint" />
            <mxPoint x="1078" y="421" as="targetPoint" />
            <Array as="points">
              <mxPoint x="1078" y="530" />
            </Array>
            <mxPoint as="offset" />
          </mxGeometry>
        </mxCell>
      </root>
    </mxGraphModel>
  </diagram>
</mxfile>
